<svg width="758" height="387" viewBox="0 0 758 387" fill="none" xmlns="http://www.w3.org/2000/svg">
<g clip-path="url(#clip0_3480_1419)">
<path d="M193.113 1.34375H559.939L436.08 185.419H69.2539L193.113 1.34375Z" fill="#101010"/>
<path d="M330.812 200.309H697.638L573.779 384.384H206.953L330.812 200.309Z" fill="#101010"/>
<path d="M445.355 227.499C470.044 227.499 483.134 237.11 483.134 257.656C483.134 271.741 474.518 280.523 461.759 283.174V285.494C476.34 287.482 487.111 294.607 487.111 312.503C487.111 333.215 472.529 343.488 447.343 343.488H383.217V227.499H445.355ZM413.872 318.633H441.875C451.651 318.633 455.959 315.651 455.959 307.532C455.959 299.247 451.651 296.264 443.201 296.264H413.872V318.633ZM413.872 273.729H439.058C448.006 273.729 451.983 270.746 451.983 262.793C451.983 255.336 448.337 252.354 439.887 252.354H413.872V273.729ZM547.117 345.477C518.948 345.477 500.059 333.546 500.059 301.235C500.059 269.089 518.948 257.159 546.62 257.159C574.126 257.159 592.519 269.089 592.519 301.235L592.353 307.366H529.719C530.879 321.285 536.015 324.267 547.117 324.267C558.55 324.267 562.03 320.953 563.521 312.503L591.524 317.308C587.382 337.523 570.315 345.477 547.117 345.477ZM530.216 290.63H563.356C562.527 279.694 555.733 277.54 546.62 277.54C538.004 277.54 531.044 279.86 530.216 290.63ZM601.798 281.517V259.148H615.054L626.487 234.79H643.057V259.148H684.316V281.517H643.057V311.674C643.057 319.959 645.542 323.107 652.502 323.107C660.952 323.107 661.946 318.136 662.775 303.058L690.281 307.2C689.287 330.895 678.019 345.477 650.679 345.477C628.475 345.477 613.728 334.706 613.728 311.343V281.517H601.798Z" fill="url(#paint0_linear_3480_1419)"/>
<path d="M127.305 12.3193C150.503 12.3193 167.57 23.4212 167.57 45.9562C167.57 62.1947 158.457 71.971 143.875 75.2849V77.6047C152.326 80.4216 157.628 88.0438 163.925 102.46L176.186 128.309H141.721L124.488 88.2095H95.4909V128.309H64.8366V12.3193H127.305ZM95.4909 65.1773H122.831C131.116 65.1773 136.419 61.6976 136.419 51.2586C136.419 41.4823 131.116 38.0027 122.831 38.0027H95.4909V65.1773ZM216.061 130.297C198.332 130.297 185.573 121.846 185.573 102.625C185.573 83.4042 198.332 76.1134 216.724 76.1134C228.158 76.1134 237.437 79.096 243.07 83.9013H245.225V77.1076C245.225 67.3314 242.408 63.0232 232.3 63.0232C224.844 63.0232 219.541 64.3488 218.381 72.1367L189.715 67.4971C193.195 49.2702 208.108 41.9794 231.969 41.9794C259.309 41.9794 274.553 52.9156 274.553 79.7588V128.309H246.384L245.225 114.887H243.236C239.094 124.829 229.815 130.297 216.061 130.297ZM214.57 100.968C214.57 106.602 217.718 108.59 225.672 108.59C232.797 108.59 240.088 106.933 245.225 103.785V97.1572C239.756 94.6717 232.963 93.1804 225.672 93.1804C218.547 93.1804 214.57 94.8374 214.57 100.968ZM323.064 43.9678L324.224 57.3894H326.378C330.521 46.7847 339.965 41.9794 353.884 41.9794C371.448 41.9794 383.213 50.2644 383.213 74.125V128.309H353.884V79.2617C353.884 68.657 349.576 65.1773 340.96 65.1773C334.166 65.1773 328.532 67.6628 324.224 72.3024V128.309H294.895V43.9678H323.064ZM461.46 69.8169C461.46 63.686 458.312 60.7034 446.382 60.7034C434.12 60.7034 431.137 63.686 431.137 69.8169C431.137 76.6105 434.12 79.2617 446.382 79.2617C458.312 79.2617 461.46 76.6105 461.46 69.8169ZM397.666 142.724C397.666 133.942 403.134 128.971 412.413 127.646V124.829C404.791 122.509 401.146 117.704 401.146 109.916C401.146 100.637 406.614 95.8316 415.562 94.3403V91.5234C406.448 87.381 401.312 80.4216 401.312 69.8169C401.312 48.9388 420.864 41.9794 446.382 41.9794C451.85 41.9794 457.484 42.3108 462.786 43.305C464.94 26.7351 477.202 23.4212 492.612 23.4212L494.103 47.1161C488.304 46.9504 480.681 46.9504 473.391 47.9446V50.5958C483.167 52.7499 490.623 60.0406 490.623 70.9768C490.623 91.192 471.402 96.6601 446.382 96.6601C440.582 96.6601 435.28 96.3287 430.475 95.6659C429.646 97.1572 429.149 98.8142 429.149 100.305C429.149 103.288 431.635 104.448 437.434 104.614L463.117 105.608C481.676 106.271 496.588 113.396 496.588 132.948C496.588 154.489 479.356 163.437 444.062 163.437C411.419 163.437 397.666 156.477 397.666 142.724ZM425.007 136.262C425.007 142.393 428.321 144.547 444.89 144.547C463.614 144.547 466.266 142.559 466.266 136.428C466.266 132.285 462.952 130.96 456.986 130.794L426.995 129.634C425.669 131.788 425.007 133.942 425.007 136.262ZM550.749 130.297C522.58 130.297 503.69 118.367 503.69 86.0554C503.69 53.9098 522.58 41.9794 550.252 41.9794C577.758 41.9794 596.15 53.9098 596.15 86.0554L595.985 92.1862H533.35C534.51 106.105 539.647 109.088 550.749 109.088C562.182 109.088 565.662 105.774 567.153 97.3229L595.156 102.128C591.014 122.343 573.947 130.297 550.749 130.297ZM533.847 75.4506H566.987C566.159 64.5145 559.365 62.3604 550.252 62.3604C541.635 62.3604 534.676 64.6802 533.847 75.4506Z" fill="url(#paint1_linear_3480_1419)"/>
<rect x="27.1465" y="184.059" width="704.518" height="17.8778" fill="url(#paint2_linear_3480_1419)"/>
<rect x="-0.457031" y="229.094" width="72.1734" height="17.8778" transform="rotate(-90 -0.457031 229.094)" fill="url(#paint3_linear_3480_1419)"/>
<rect x="740.475" y="229.094" width="72.1734" height="17.8778" transform="rotate(-90 740.475 229.094)" fill="url(#paint4_linear_3480_1419)"/>
</g>
<defs>
<linearGradient id="paint0_linear_3480_1419" x1="539.249" y1="211.273" x2="643.916" y2="424.421" gradientUnits="userSpaceOnUse">
<stop stop-color="#B0FF09"/>
<stop offset="1" stop-color="#05B8F1"/>
</linearGradient>
<linearGradient id="paint1_linear_3480_1419" x1="336.605" y1="-3.90641" x2="407.665" y2="239.931" gradientUnits="userSpaceOnUse">
<stop stop-color="#B0FF09"/>
<stop offset="1" stop-color="#05B8F1"/>
</linearGradient>
<linearGradient id="paint2_linear_3480_1419" x1="391.16" y1="183.193" x2="392.027" y2="214.911" gradientUnits="userSpaceOnUse">
<stop stop-color="#B0FF09"/>
<stop offset="1" stop-color="#05B8F1"/>
</linearGradient>
<linearGradient id="paint3_linear_3480_1419" x1="36.8338" y1="228.228" x2="44.7435" y2="257.858" gradientUnits="userSpaceOnUse">
<stop stop-color="#B0FF09"/>
<stop offset="1" stop-color="#05B8F1"/>
</linearGradient>
<linearGradient id="paint4_linear_3480_1419" x1="777.765" y1="228.228" x2="785.675" y2="257.858" gradientUnits="userSpaceOnUse">
<stop stop-color="#B0FF09"/>
<stop offset="1" stop-color="#05B8F1"/>
</linearGradient>
<clipPath id="clip0_3480_1419">
<rect width="757.908" height="386.492" fill="white"/>
</clipPath>
</defs>
</svg>
