<svg width="1451" height="1109" viewBox="0 0 1451 1109" fill="none" xmlns="http://www.w3.org/2000/svg">
<g opacity="0.4">
<path opacity="0.0144928" d="M1840.87 1144.07C1850.96 1145.4 1860.71 1139.89 1864.78 1130.56L1986.35 851.949C1988.76 846.432 1988.89 840.187 1986.72 834.573L1829.7 428.748C1827.99 424.333 1824.95 420.558 1821.01 417.945L1503.22 207.582C1496.06 202.844 1486.85 202.519 1479.38 206.741L1248.57 337.122C1241.1 341.344 1236.62 349.399 1236.99 357.975L1253.12 738.738C1253.32 743.467 1254.99 748.018 1257.89 751.76L1524.42 1095.72C1528.1 1100.48 1533.52 1103.59 1539.49 1104.38L1840.87 1144.07Z" stroke="url(#paint0_linear_3927_2069)"/>
<path opacity="0.0289855" d="M1795.57 1159.45C1805.55 1161.29 1815.55 1156.31 1820.11 1147.24L1955.55 877.536C1958.25 872.149 1958.72 865.91 1956.84 860.181L1822.72 450.43C1821.24 445.917 1818.39 441.977 1814.57 439.158L1510.57 214.814C1503.67 209.724 1494.5 208.925 1486.83 212.745L1250.93 330.165C1243.25 333.985 1238.36 341.78 1238.26 350.352L1233.97 728.151C1233.92 732.899 1235.35 737.545 1238.06 741.444L1484.11 1095.48C1487.55 1100.44 1492.8 1103.82 1498.73 1104.91L1795.57 1159.45Z" stroke="url(#paint1_linear_3927_2069)"/>
<path opacity="0.0434783" d="M1750.11 1173.34C1759.96 1175.67 1770.17 1171.24 1775.2 1162.45L1923.91 902.34C1926.91 897.098 1927.71 890.884 1926.14 885.054L1814.88 472.652C1813.64 468.053 1811 463.958 1807.31 460.938L1517.67 223.473C1511.05 218.045 1501.95 216.775 1494.1 220.184L1253.82 324.469C1245.96 327.878 1240.68 335.392 1240.12 343.935L1215.76 717.683C1215.45 722.436 1216.63 727.167 1219.14 731.213L1444.4 1094.14C1447.58 1099.27 1452.67 1102.93 1458.54 1104.32L1750.11 1173.34Z" stroke="url(#paint2_linear_3927_2069)"/>
<path opacity="0.057971" d="M1704.58 1185.75C1714.27 1188.57 1724.67 1184.69 1730.14 1176.21L1891.5 926.335C1894.78 921.255 1895.92 915.082 1894.65 909.17L1806.18 495.377C1805.18 490.705 1802.74 486.464 1799.2 483.25L1524.46 233.544C1518.14 227.794 1509.13 226.059 1501.12 229.047L1257.19 320.064C1249.18 323.053 1243.51 330.265 1242.49 338.755L1198.47 707.397C1197.91 712.141 1198.84 716.943 1201.15 721.127L1405.35 1091.74C1408.27 1097.03 1413.17 1100.96 1418.98 1102.65L1704.58 1185.75Z" stroke="url(#paint3_linear_3927_2069)"/>
<path opacity="0.0724638" d="M1659.05 1196.69C1668.56 1199.99 1679.11 1196.67 1685.02 1188.52L1858.36 949.482C1861.92 944.58 1863.38 938.466 1862.43 932.485L1796.57 518.546C1795.82 513.813 1793.6 509.437 1790.22 506.037L1530.86 244.992C1524.84 238.935 1515.95 236.74 1507.8 239.302L1260.95 316.955C1252.8 319.517 1246.77 326.408 1245.3 334.819L1182.09 697.332C1181.27 702.053 1181.95 706.914 1184.04 711.226L1367.02 1088.32C1369.66 1093.77 1374.36 1097.95 1380.08 1099.93L1659.05 1196.69Z" stroke="url(#paint4_linear_3927_2069)"/>
<path opacity="0.0869565" d="M1613.61 1206.16C1622.91 1209.93 1633.59 1207.18 1639.91 1199.38L1824.54 971.746C1828.36 967.036 1830.15 960.999 1829.52 954.967L1786.05 542.104C1785.54 537.323 1783.54 532.822 1780.33 529.244L1536.79 257.778C1531.09 251.431 1522.34 248.785 1514.08 250.914L1265.02 315.148C1256.77 317.277 1250.38 323.828 1248.47 332.136L1166.59 687.53C1165.51 692.215 1165.94 697.121 1167.81 701.55L1329.44 1083.94C1331.8 1089.53 1336.29 1093.94 1341.91 1096.22L1613.61 1206.16Z" stroke="url(#paint5_linear_3927_2069)"/>
<path opacity="0.101449" d="M1568.33 1214.2C1577.41 1218.42 1588.18 1216.24 1594.9 1208.82L1790.1 993.107C1794.18 988.603 1796.29 982.661 1795.98 976.594L1774.6 566.007C1774.35 561.19 1772.58 556.576 1769.54 552.827L1542.18 271.871C1536.83 265.253 1528.24 262.163 1519.89 263.855L1269.35 314.653C1261.01 316.345 1254.3 322.538 1251.94 330.72L1151.97 678.044C1150.64 682.679 1150.8 687.617 1152.45 692.151L1292.68 1078.64C1294.75 1084.35 1299.02 1089 1304.52 1091.56L1568.33 1214.2Z" stroke="url(#paint6_linear_3927_2069)"/>
<path opacity="0.115942" d="M1523.3 1220.82C1532.12 1225.48 1542.95 1223.87 1550.04 1216.84L1755.09 1013.53C1759.41 1009.25 1761.84 1003.42 1761.84 997.334L1762.2 590.192C1762.2 585.353 1760.67 580.638 1757.82 576.726L1546.97 287.223C1541.96 280.351 1533.56 276.827 1525.15 278.078L1273.85 315.464C1265.44 316.715 1258.42 322.533 1255.63 330.565L1138.18 668.908C1136.6 673.479 1136.5 678.437 1137.92 683.065L1256.77 1072.47C1258.55 1078.29 1262.57 1083.16 1267.95 1086L1523.3 1220.82Z" stroke="url(#paint7_linear_3927_2069)"/>
<path opacity="0.130435" d="M1478.59 1226.06C1487.14 1231.14 1498 1230.1 1505.44 1223.49L1719.56 1033.01C1724.11 1028.96 1726.86 1023.26 1727.18 1017.17L1748.85 614.615C1749.11 609.767 1747.82 604.962 1745.17 600.897L1551.09 303.796C1546.45 296.689 1538.25 292.743 1529.8 293.551L1278.45 317.583C1270 318.391 1262.69 323.82 1259.48 331.678L1125.22 660.172C1123.39 664.667 1123.03 669.629 1124.2 674.34L1221.76 1065.5C1223.24 1071.41 1227.01 1076.49 1232.25 1079.6L1478.59 1226.06Z" stroke="url(#paint8_linear_3927_2069)"/>
<path opacity="0.144928" d="M1434.27 1229.93C1442.53 1235.43 1453.39 1234.96 1461.15 1228.78L1683.57 1051.52C1688.34 1047.71 1691.39 1042.16 1692.04 1036.09L1734.54 639.218C1735.06 634.374 1734.02 629.492 1731.57 625.283L1554.48 321.538C1550.21 314.215 1542.24 309.859 1533.77 310.223L1283.08 321.001C1274.61 321.365 1267.04 326.389 1263.41 334.052L1113.05 651.874C1110.97 656.277 1110.35 661.232 1111.28 666.013L1187.69 1057.77C1188.85 1063.76 1192.37 1069.03 1197.45 1072.41L1434.27 1229.93Z" stroke="url(#paint9_linear_3927_2069)"/>
<path opacity="0.15942" d="M1390.41 1232.48C1398.36 1238.37 1409.19 1238.47 1417.25 1232.73L1647.17 1069.03C1652.15 1065.49 1655.5 1060.09 1656.48 1054.06L1719.27 663.946C1720.05 659.12 1719.26 654.172 1717.02 649.83L1557.08 340.396C1553.2 332.877 1545.47 328.124 1537.01 328.044L1287.67 325.702C1279.2 325.622 1271.39 330.23 1267.36 337.674L1101.65 644.048C1099.32 648.348 1098.44 653.28 1099.12 658.12L1154.58 1049.34C1155.44 1055.4 1158.69 1060.85 1163.6 1064.49L1390.41 1232.48Z" stroke="url(#paint10_linear_3927_2069)"/>
<path opacity="0.173913" d="M1347.08 1233.75C1354.7 1240.01 1365.47 1240.68 1373.8 1235.4L1610.43 1085.55C1615.6 1082.28 1619.25 1077.06 1620.54 1071.08L1703.04 688.748C1704.08 683.953 1703.54 678.952 1701.51 674.486L1558.84 360.318C1555.35 352.623 1547.89 347.487 1539.45 346.966L1292.14 331.674C1283.71 331.152 1275.68 335.33 1271.26 342.536L1090.97 636.734C1088.41 640.916 1087.26 645.813 1087.7 650.699L1122.47 1040.28C1123.02 1046.38 1125.99 1052 1130.72 1055.89L1347.08 1233.75Z" stroke="url(#paint11_linear_3927_2069)"/>
<path opacity="0.188406" d="M1304.35 1233.78C1311.62 1240.39 1322.31 1241.62 1330.88 1236.82L1573.39 1101.07C1578.75 1098.08 1582.67 1093.05 1584.28 1087.14L1685.85 713.574C1687.14 708.824 1686.87 703.784 1685.06 699.204L1559.7 381.251C1556.61 373.401 1549.44 367.898 1541.05 366.937L1296.44 338.901C1288.06 337.94 1279.83 341.679 1275.04 348.625L1081 629.971C1078.2 634.023 1076.79 638.87 1076.97 643.789L1091.39 1030.64C1091.62 1036.77 1094.3 1042.55 1098.84 1046.68L1304.35 1233.78Z" stroke="url(#paint12_linear_3927_2069)"/>
<path opacity="0.202899" d="M1262.28 1232.6C1269.18 1239.56 1279.75 1241.33 1288.54 1237.02L1536.12 1115.57C1541.64 1112.87 1545.83 1108.05 1547.75 1102.22L1667.7 738.362C1669.25 733.67 1669.23 728.603 1667.66 723.921L1559.62 403.124C1556.93 395.141 1550.06 389.286 1541.76 387.89L1300.49 347.351C1292.19 345.955 1283.79 349.245 1278.64 355.911L1071.68 623.78C1068.66 627.689 1066.99 632.472 1066.92 637.412L1061.36 1020.49C1061.27 1026.63 1063.66 1032.55 1067.99 1036.91L1262.28 1232.6Z" stroke="url(#paint13_linear_3927_2069)"/>
<path opacity="0.217391" d="M1220.93 1230.29C1227.45 1237.55 1237.87 1239.87 1246.86 1236.05L1498.67 1129.07C1504.33 1126.66 1508.79 1122.07 1511.02 1116.33L1648.61 763.07C1650.41 758.45 1650.66 753.37 1649.32 748.597L1558.55 425.889C1556.27 417.794 1549.73 411.604 1541.52 409.779L1304.24 357.008C1296.03 355.182 1287.48 358.016 1281.99 364.383L1063 618.203C1059.77 621.958 1057.84 626.664 1057.51 631.611L1032.41 1009.89C1032 1016.03 1034.09 1022.08 1038.2 1026.66L1220.93 1230.29Z" stroke="url(#paint14_linear_3927_2069)"/>
<path opacity="0.231884" d="M1180.35 1226.87C1186.48 1234.43 1196.72 1237.28 1205.87 1233.97L1461.09 1141.54C1466.89 1139.44 1471.59 1135.09 1474.13 1129.47L1628.59 787.64C1630.63 783.105 1631.15 778.025 1630.04 773.172L1556.45 449.473C1554.59 441.286 1548.39 434.78 1540.3 432.531L1307.61 367.834C1299.52 365.585 1290.85 367.955 1285.03 374.006L1054.92 613.261C1051.47 616.847 1049.28 621.463 1048.7 626.405L1004.54 998.903C1003.81 1005.03 1005.59 1011.18 1009.47 1015.97L1180.35 1226.87Z" stroke="url(#paint15_linear_3927_2069)"/>
<path opacity="0.246377" d="M1140.6 1222.41C1146.32 1230.24 1156.36 1233.61 1165.65 1230.81L1423.44 1153.01C1429.36 1151.22 1434.29 1147.12 1437.13 1141.63L1607.64 812.024C1609.93 807.587 1610.71 802.521 1609.85 797.6L1553.29 473.813C1551.85 465.557 1546 458.754 1538.05 456.089L1310.55 379.8C1302.61 377.135 1293.84 379.037 1287.71 384.755L1047.38 608.982C1043.73 612.39 1041.29 616.901 1040.45 621.824L977.767 987.592C976.724 993.679 978.19 999.928 981.831 1004.92L1140.6 1222.41Z" stroke="url(#paint16_linear_3927_2069)"/>
<path opacity="0.26087" d="M1101.74 1216.97C1107.03 1225.05 1116.85 1228.93 1126.24 1226.64L1385.79 1163.47C1391.8 1162.01 1396.96 1158.17 1400.09 1152.83L1585.79 836.178C1588.33 831.853 1589.37 826.813 1588.76 821.836L1549.04 498.849C1548.01 490.544 1542.53 483.463 1534.75 480.392L1313.01 392.875C1305.23 389.803 1296.39 391.233 1289.97 396.601L1040.37 605.396C1036.52 608.613 1033.84 613.007 1032.74 617.899L952.114 976.027C950.755 982.062 951.903 988.39 955.294 993.564L1101.74 1216.97Z" stroke="url(#paint17_linear_3927_2069)"/>
<path opacity="0.275362" d="M1063.79 1210.6C1068.66 1218.91 1078.21 1223.28 1087.68 1221.51L1348.17 1172.94C1354.26 1171.8 1359.63 1168.24 1363.04 1163.07L1563.05 860.045C1565.83 855.844 1567.13 850.845 1566.77 845.824L1543.65 524.502C1543.05 516.171 1537.96 508.832 1530.36 505.364L1314.92 407.011C1307.33 403.543 1298.44 404.498 1291.76 409.502L1033.82 602.515C1029.79 605.531 1026.87 609.794 1025.52 614.641L927.572 964.264C925.901 970.232 926.726 976.622 929.858 981.969L1063.79 1210.6Z" stroke="url(#paint18_linear_3927_2069)"/>
<path opacity="0.289855" d="M1026.8 1203.37C1031.23 1211.88 1040.51 1216.72 1050.02 1215.48L1310.63 1181.43C1316.79 1180.63 1322.35 1177.35 1326.04 1172.36L1539.45 883.586C1542.45 879.522 1544.02 874.576 1543.92 869.524L1537.12 550.71C1536.94 542.375 1532.24 534.799 1524.84 530.945L1316.24 422.174C1308.85 418.32 1299.94 418.799 1293 423.425L1027.71 600.366C1023.51 603.17 1020.35 607.289 1018.74 612.078L904.143 952.374C902.162 958.258 902.661 964.695 905.526 970.203L1026.8 1203.37Z" stroke="url(#paint19_linear_3927_2069)"/>
<path opacity="0.304348" d="M990.821 1195.34C994.801 1204.03 1003.77 1209.32 1013.31 1208.6L1273.24 1188.95C1279.44 1188.49 1285.18 1185.51 1289.14 1180.71L1515.01 906.753C1518.24 902.839 1520.07 897.961 1520.22 892.89L1529.42 577.403C1529.66 569.085 1525.36 561.294 1518.19 557.066L1316.91 438.319C1309.74 434.091 1300.84 434.096 1293.68 438.331L1021.99 598.963C1017.63 601.546 1014.24 605.508 1012.38 610.227L881.833 940.421C879.546 946.205 879.717 952.671 882.306 958.326L990.821 1195.34Z" stroke="url(#paint20_linear_3927_2069)"/>
<path opacity="0.318841" d="M955.878 1186.56C959.403 1195.41 968.051 1201.14 977.574 1200.94L1236.04 1195.53C1242.27 1195.4 1248.18 1192.73 1252.39 1188.14L1489.76 929.501C1493.21 925.747 1495.3 920.951 1495.7 915.873L1520.53 604.505C1521.19 596.225 1517.31 588.24 1510.38 583.652L1316.89 455.396C1309.97 450.807 1301.1 450.338 1293.73 454.171L1016.63 598.318C1012.11 600.669 1008.5 604.463 1006.39 609.098L860.634 928.462C858.047 934.13 857.888 940.61 860.194 946.398L955.878 1186.56Z" stroke="url(#paint21_linear_3927_2069)"/>
<path opacity="0.333333" d="M921.999 1177.11C925.065 1186.09 933.364 1192.24 942.847 1192.56L1199.08 1201.17C1205.32 1201.38 1211.37 1199.02 1215.83 1194.66L1463.72 951.785C1467.38 948.205 1469.72 943.503 1470.39 938.431L1510.45 631.945C1511.52 623.725 1508.06 615.569 1501.4 610.634L1316.14 473.354C1309.48 468.419 1300.66 467.48 1293.11 470.901L1011.56 598.442C1006.9 600.553 1003.09 604.167 1000.73 608.704L840.532 916.56C837.651 922.098 837.162 928.573 839.178 934.481L921.999 1177.11Z" stroke="url(#paint22_linear_3927_2069)"/>
<path opacity="0.347826" d="M889.215 1167.06C891.816 1176.15 899.747 1182.7 909.163 1183.53L1162.41 1205.91C1168.64 1206.46 1174.82 1204.43 1179.52 1200.3L1436.94 973.576C1440.79 970.181 1443.39 965.585 1444.31 960.532L1499.16 659.66C1500.65 651.521 1497.61 643.216 1491.23 637.95L1314.61 492.154C1308.23 486.888 1299.5 485.483 1291.79 488.482L1006.76 599.354C1001.98 601.216 997.956 604.638 995.353 609.066L821.521 904.786C818.352 910.177 817.532 916.633 819.253 922.645L889.215 1167.06Z" stroke="url(#paint23_linear_3927_2069)"/>
<path opacity="0.362319" d="M857.543 1156.48C859.677 1165.65 867.22 1172.57 876.539 1173.91L1126.07 1209.77C1132.27 1210.66 1138.57 1208.96 1143.48 1205.08L1409.43 994.829C1413.47 991.63 1416.32 987.155 1417.5 982.133L1486.67 687.575C1488.55 679.538 1485.96 671.107 1479.87 665.525L1312.27 511.738C1306.18 506.156 1297.56 504.292 1289.72 506.862L1002.18 601.055C997.279 602.661 993.065 605.879 990.225 610.185L803.579 893.194C800.129 898.424 798.98 904.843 800.4 910.945L857.543 1156.48Z" stroke="url(#paint24_linear_3927_2069)"/>
<path opacity="0.376812" d="M827.003 1145.41C828.669 1154.64 835.806 1161.91 845.001 1163.75L1090.1 1212.77C1096.26 1214 1102.65 1212.64 1107.77 1209.01L1381.23 1015.5C1385.46 1012.51 1388.55 1008.17 1389.98 1003.19L1472.96 715.615C1475.25 707.699 1473.09 699.166 1467.32 693.285L1309.08 532.047C1303.31 526.166 1294.82 523.85 1286.86 525.985L997.776 603.546C992.772 604.888 988.373 607.892 985.302 612.064L786.689 881.838C782.967 886.894 781.49 893.258 782.605 899.436L827.003 1145.41Z" stroke="url(#paint25_linear_3927_2069)"/>
<path opacity="0.391304" d="M797.611 1133.96C798.808 1143.22 805.523 1150.82 814.567 1153.15L1054.55 1214.95C1060.64 1216.51 1067.11 1215.5 1072.43 1212.15L1352.39 1035.58C1356.79 1032.8 1360.11 1028.61 1361.8 1023.69L1458.06 743.719C1460.73 735.944 1459.02 727.332 1453.57 721.17L1305.02 553.036C1299.58 546.874 1291.24 544.114 1283.2 545.809L993.504 606.839C988.412 607.911 983.839 610.691 980.542 614.716L770.83 870.786C766.845 875.652 765.043 881.947 765.849 888.185L797.611 1133.96Z" stroke="url(#paint26_linear_3927_2069)"/>
<path opacity="0.405797" d="M769.378 1122.17C770.108 1131.44 776.385 1139.34 785.251 1142.15L1019.46 1216.33C1025.47 1218.24 1032 1217.57 1037.5 1214.5L1322.94 1055.01C1327.5 1052.46 1331.05 1048.43 1333 1043.58L1441.96 771.813C1445.01 764.198 1443.75 755.531 1438.64 749.107L1300.06 574.644C1294.96 568.22 1286.8 565.026 1278.69 566.277L989.325 610.929C984.159 611.726 979.423 614.271 975.907 618.139L755.978 860.089C751.739 864.752 749.615 870.96 750.11 877.243L769.378 1122.17Z" stroke="url(#paint27_linear_3927_2069)"/>
<path opacity="0.42029" d="M742.304 1110.11C742.569 1119.37 748.396 1127.55 757.057 1130.82L984.866 1216.96C990.772 1219.19 997.339 1218.88 1003.01 1216.1L1292.91 1073.78C1297.62 1071.47 1301.4 1067.6 1303.59 1062.83L1424.68 799.828C1428.1 792.393 1427.29 783.694 1422.54 777.026L1294.17 596.812C1289.42 590.145 1281.47 586.529 1273.32 587.334L985.189 615.813C979.964 616.33 975.076 618.631 971.349 622.329L742.099 849.799C737.617 854.246 735.176 860.351 735.356 866.663L742.304 1110.11Z" stroke="url(#paint28_linear_3927_2069)"/>
<path opacity="0.434783" d="M716.391 1097.86C716.193 1107.08 721.557 1115.51 729.99 1119.24L950.792 1216.86C956.578 1219.42 963.167 1219.46 968.987 1216.98L1262.35 1091.86C1267.2 1089.79 1271.19 1086.1 1273.63 1081.43L1406.23 827.703C1410.01 820.464 1409.64 811.757 1405.26 804.865L1287.33 619.488C1282.95 612.597 1275.22 608.571 1267.06 608.929L981.054 621.491C975.784 621.723 970.757 623.771 966.826 627.289L729.161 839.971C724.446 844.191 721.693 850.177 721.557 856.502L716.391 1097.86Z" stroke="url(#paint29_linear_3927_2069)"/>
<path opacity="0.449275" d="M691.642 1085.49C690.989 1094.64 695.879 1103.3 704.058 1107.47L917.283 1216.07C922.932 1218.95 929.523 1219.35 935.479 1217.17L1231.31 1109.21C1236.29 1107.4 1240.48 1103.9 1243.17 1099.34L1386.64 855.366C1390.77 848.342 1390.85 839.65 1386.84 832.555L1279.54 642.608C1275.53 635.513 1268.05 631.091 1259.9 631.003L976.886 627.952C971.586 627.895 966.432 629.683 962.305 633.009L717.136 830.653C712.2 834.632 709.141 840.483 708.689 846.807L691.642 1085.49Z" stroke="url(#paint30_linear_3927_2069)"/>
<path opacity="0.463768" d="M668.049 1073.05C666.945 1082.12 671.353 1090.98 679.255 1095.57L884.365 1214.63C889.86 1217.82 896.434 1218.58 902.509 1216.72L1199.82 1125.83C1204.91 1124.27 1209.3 1120.99 1212.23 1116.54L1365.93 882.759C1370.39 875.966 1370.91 867.312 1367.29 860.034L1270.77 666.116C1267.15 658.839 1259.93 654.035 1251.82 653.503L972.639 635.19C967.325 634.841 962.056 636.36 957.743 639.485L705.984 821.893C700.84 825.62 697.48 831.321 696.713 837.628L668.049 1073.05Z" stroke="url(#paint31_linear_3927_2069)"/>
<path opacity="0.478261" d="M645.598 1060.62C644.051 1069.58 647.968 1078.61 655.572 1083.6L852.063 1212.58C857.385 1216.07 863.923 1217.19 870.102 1215.65L1167.93 1141.69C1173.12 1140.4 1177.7 1137.32 1180.86 1133L1344.12 909.816C1348.91 903.271 1349.86 894.678 1346.63 887.238L1261.01 689.953C1257.78 682.513 1250.85 677.344 1242.8 676.371L968.269 643.191C962.956 642.549 957.586 643.793 953.097 646.705L695.662 813.734C690.322 817.198 686.67 822.735 685.587 829.008L645.598 1060.62Z" stroke="url(#paint32_linear_3927_2069)"/>
<path opacity="0.492754" d="M624.282 1048.26C622.3 1057.09 625.722 1066.26 633.005 1071.63L820.41 1209.95C825.543 1213.74 832.026 1215.21 838.29 1214L1135.68 1156.76C1140.96 1155.75 1145.72 1152.9 1149.1 1148.72L1321.25 936.477C1326.34 930.194 1327.73 921.685 1324.91 914.106L1250.26 714.055C1247.43 706.476 1240.81 700.959 1232.84 699.549L963.744 651.94C958.448 651.003 952.991 651.965 948.335 654.657L686.136 806.216C680.613 809.408 676.677 814.765 675.28 820.989L624.282 1048.26Z" stroke="url(#paint33_linear_3927_2069)"/>
<path opacity="0.507246" d="M604.08 1036.04C601.674 1044.72 604.594 1054 611.537 1059.74L789.425 1206.8C794.351 1210.87 800.76 1212.69 807.092 1211.82L1103.13 1171.06C1108.48 1170.32 1113.4 1167.71 1117.01 1163.69L1297.34 962.697C1302.73 956.692 1304.55 948.288 1302.13 940.591L1238.52 738.379C1236.1 730.682 1229.8 724.834 1221.94 722.995L959.021 661.436C953.758 660.204 948.228 660.878 943.416 663.339L677.357 799.392C671.665 802.302 667.454 807.464 665.746 813.624L604.08 1036.04Z" stroke="url(#paint34_linear_3927_2069)"/>
<path opacity="0.521739" d="M584.975 1024C582.154 1032.51 584.571 1041.88 591.155 1047.97L759.129 1203.15C763.835 1207.5 770.149 1209.67 776.533 1209.13L1070.31 1184.55C1075.72 1184.09 1080.8 1181.73 1084.62 1177.87L1272.45 988.404C1278.11 982.689 1280.35 974.413 1278.34 966.62L1225.79 762.849C1223.78 755.056 1217.82 748.896 1210.09 746.634L954.066 671.643C948.852 670.115 943.264 670.497 938.306 672.719L669.282 793.279C663.436 795.899 658.959 800.854 656.943 806.934L584.975 1024Z" stroke="url(#paint35_linear_3927_2069)"/>
<path opacity="0.536232" d="M566.931 1012.23C563.707 1020.55 565.62 1029.98 571.828 1036.38L729.533 1199.06C734.001 1203.67 740.203 1206.19 746.62 1206L1037.27 1197.23C1042.72 1197.07 1047.94 1194.95 1051.98 1191.27L1246.59 1013.56C1252.52 1008.15 1255.17 1000.02 1253.57 992.157L1212.06 787.422C1210.47 779.556 1204.86 773.104 1197.29 770.428L948.833 682.558C943.684 680.737 938.053 680.822 932.96 682.797L661.855 787.93C655.869 790.252 651.137 794.985 648.817 800.97L566.931 1012.23Z" stroke="url(#paint36_linear_3927_2069)"/>
<path opacity="0.550725" d="M549.938 1000.77C546.325 1008.88 547.733 1018.34 553.549 1025.04L700.667 1194.57C704.884 1199.43 710.954 1202.29 717.386 1202.44L1004.06 1209.1C1009.55 1209.23 1014.9 1207.37 1019.13 1203.88L1219.83 1038.12C1226 1033.02 1229.05 1025.06 1227.88 1017.15L1197.36 812.039C1196.18 804.121 1190.95 797.398 1183.56 794.318L943.304 694.156C938.236 692.043 932.576 691.827 927.361 693.547L655.042 783.369C648.932 785.384 643.956 789.883 641.336 795.759L549.938 1000.77Z" stroke="url(#paint37_linear_3927_2069)"/>
<path opacity="0.565217" d="M533.954 989.682C529.965 997.556 530.87 1007.02 536.279 1014L672.532 1189.72C676.483 1194.82 682.404 1198 688.833 1198.5L970.725 1220.15C976.23 1220.57 981.701 1218.98 986.127 1215.68L1192.19 1062.01C1198.59 1057.24 1202.04 1049.48 1201.28 1041.53L1181.69 836.636C1180.93 828.69 1176.07 821.717 1168.89 818.245L937.433 706.408C932.462 704.006 926.789 703.486 921.464 704.944L648.782 779.617C642.563 781.32 637.353 785.572 634.44 791.324L533.954 989.682Z" stroke="url(#paint38_linear_3927_2069)"/>
<path opacity="0.57971" d="M518.947 979.015C514.597 986.641 515.003 996.085 519.991 1003.31L645.14 1184.55C648.812 1189.87 654.565 1193.39 660.972 1194.22L937.31 1230.37C942.815 1231.09 948.394 1229.78 953.003 1226.69L1163.74 1085.22C1170.35 1080.78 1174.17 1073.22 1173.83 1065.27L1165.05 861.166C1164.71 853.214 1160.25 846.014 1153.29 842.162L931.19 719.296C926.332 716.609 920.662 715.783 915.239 716.973L643.023 776.706C636.711 778.091 631.281 782.085 628.079 787.698L518.947 979.015Z" stroke="url(#paint39_linear_3927_2069)"/>
<path opacity="0.594203" d="M504.887 968.822C500.192 976.183 500.104 985.577 504.66 993.025L618.507 1179.12C621.887 1184.64 627.454 1188.47 633.821 1189.65L903.87 1239.78C909.359 1240.8 915.032 1239.77 919.816 1236.9L1134.51 1107.68C1141.31 1103.59 1145.5 1096.27 1145.58 1088.33L1147.48 885.576C1147.55 877.641 1143.51 870.236 1136.78 866.017L924.552 732.795C919.823 729.827 914.171 728.693 908.663 729.609L637.721 774.656C631.332 775.718 625.694 779.443 622.211 784.903L504.887 968.822Z" stroke="url(#paint40_linear_3927_2069)"/>
<path opacity="0.608696" d="M491.728 959.149C486.703 966.229 486.127 975.546 490.241 983.191L592.628 1173.45C595.704 1179.16 601.067 1183.3 607.377 1184.82L870.439 1248.37C875.897 1249.69 881.65 1248.96 886.599 1246.3L1104.56 1129.38C1111.54 1125.64 1116.08 1118.56 1116.56 1110.66L1128.98 909.81C1129.47 901.914 1125.84 894.328 1119.38 889.757L917.48 746.873C912.896 743.629 907.278 742.187 901.699 742.823L632.811 773.482C626.362 774.217 620.53 777.662 616.773 782.956L491.728 959.149Z" stroke="url(#paint41_linear_3927_2069)"/>
<path opacity="0.623188" d="M479.429 950.047C474.092 956.832 473.036 966.046 476.699 973.862L567.507 1167.6C570.269 1173.49 575.411 1177.92 581.644 1179.79L837.065 1256.16C842.477 1257.78 848.297 1257.34 853.4 1254.92L1073.94 1150.27C1081.07 1146.89 1085.95 1140.07 1086.84 1132.24L1109.58 933.828C1110.48 925.993 1107.27 918.249 1101.1 913.343L909.951 761.51C905.528 757.997 899.96 756.247 894.322 756.599L628.244 773.207C621.75 773.612 615.738 776.768 611.715 781.881L479.429 950.047Z" stroke="url(#paint42_linear_3927_2069)"/>
<path opacity="0.637681" d="M467.952 941.555C462.32 948.031 460.794 957.116 463.999 965.076L543.151 1161.61C545.587 1167.66 550.492 1172.37 556.631 1174.57L803.798 1263.16C809.148 1265.07 815.02 1264.93 820.267 1262.75L1042.71 1170.32C1049.97 1167.31 1055.17 1160.77 1056.47 1153.02L1089.31 957.575C1090.62 949.823 1087.84 941.945 1081.96 936.722L901.942 776.672C897.696 772.896 892.194 770.839 886.512 770.902L623.967 773.837C617.446 773.909 611.268 776.766 606.989 781.687L467.952 941.555Z" stroke="url(#paint43_linear_3927_2069)"/>
<path opacity="0.652174" d="M457.248 933.718C451.341 939.871 449.354 948.803 452.097 956.88L519.553 1155.52C521.654 1161.71 526.307 1166.7 532.333 1169.24L770.679 1269.37C775.95 1271.58 781.86 1271.74 787.241 1269.81L1010.92 1189.52C1018.3 1186.87 1023.8 1180.63 1025.5 1172.98L1068.19 981.012C1069.89 973.364 1067.56 965.377 1062 959.854L893.429 792.332C889.374 788.302 883.955 785.94 878.242 785.711L619.924 775.386C613.393 775.125 607.063 777.674 602.536 782.389L457.248 933.718Z" stroke="url(#paint44_linear_3927_2069)"/>
<path opacity="0.666667" d="M447.272 926.56C441.108 932.379 438.674 941.134 440.949 949.3L496.711 1149.37C498.469 1155.68 502.854 1160.94 508.75 1163.79L737.752 1274.8C742.929 1277.31 748.862 1277.77 754.366 1276.09L978.629 1207.82C986.099 1205.55 991.89 1199.61 993.982 1192.09L1046.26 1004.08C1048.35 996.56 1046.45 988.489 1041.23 982.685L884.391 808.449C880.543 804.173 875.222 801.507 869.493 800.984L616.06 777.847C609.536 777.252 603.069 779.486 598.305 783.984L447.272 926.56Z" stroke="url(#paint45_linear_3927_2069)"/>
<path opacity="0.681159" d="M437.965 920.126C431.563 925.601 428.695 934.155 430.502 942.383L474.608 1143.21C476.017 1149.63 480.118 1155.13 485.866 1158.3L705.049 1279.47C710.116 1282.28 716.057 1283.05 721.672 1281.64L945.884 1225.22C953.43 1223.32 959.491 1217.71 961.965 1210.33L1023.52 1026.76C1026 1019.38 1024.54 1011.25 1019.67 1005.19L874.8 825.001C871.172 820.489 865.966 817.523 860.234 816.703L612.312 781.235C605.811 780.305 599.224 782.218 594.233 786.486L437.965 920.126Z" stroke="url(#paint46_linear_3927_2069)"/>
<path opacity="0.695652" d="M429.295 914.439C422.675 919.56 419.387 927.892 420.725 936.154L453.254 1137.08C454.306 1143.58 458.11 1149.31 463.692 1152.8L672.628 1283.41C677.569 1286.5 683.505 1287.59 689.219 1286.44L912.761 1241.69C920.364 1240.17 926.676 1234.89 929.523 1227.68L1000.05 1048.99C1002.89 1041.78 1001.89 1033.62 997.373 1027.31L864.653 841.948C861.261 837.21 856.186 833.948 850.466 832.829L608.641 785.541C602.181 784.277 595.489 785.863 590.283 789.891L429.295 914.439Z" stroke="url(#paint47_linear_3927_2069)"/>
<path opacity="0.710145" d="M421.195 909.536C414.378 914.296 410.686 922.383 411.555 930.652L432.622 1131.02C433.312 1137.58 436.807 1143.52 442.206 1147.32L640.515 1286.65C645.315 1290.02 651.229 1291.41 657.03 1290.54L879.307 1257.24C886.947 1256.09 893.49 1251.16 896.699 1244.13L975.85 1070.76C979.059 1063.73 978.497 1055.56 974.357 1049.03L853.924 859.266C850.78 854.313 845.852 850.759 840.159 849.342L604.981 790.77C598.578 789.176 591.798 790.428 586.387 794.206L421.195 909.536Z" stroke="url(#paint48_linear_3927_2069)"/>
<path opacity="0.724638" d="M413.611 905.428C406.617 909.819 402.538 917.642 402.942 925.89L412.698 1125.05C413.022 1131.66 416.194 1137.8 421.394 1141.89L608.746 1289.18C613.389 1292.83 619.266 1294.54 625.142 1293.95L845.576 1271.83C853.234 1271.06 859.99 1266.49 863.548 1259.66L950.966 1092.01C954.524 1085.18 954.406 1077.03 950.652 1070.31L842.594 876.908C839.713 871.752 834.947 867.913 829.296 866.195L601.275 796.903C594.946 794.98 588.094 795.895 582.491 799.412L413.611 905.428Z" stroke="url(#paint49_linear_3927_2069)"/>
<path opacity="0.73913" d="M406.5 902.142C399.351 906.157 394.902 913.697 394.846 921.897L393.478 1119.23C393.432 1125.86 396.27 1132.18 401.256 1136.55L577.369 1291.04C581.839 1294.96 587.663 1296.99 593.603 1296.68L811.641 1285.47C819.297 1285.08 826.244 1280.87 830.14 1274.27L925.446 1112.72C929.341 1106.12 929.664 1098 926.306 1091.11L830.665 894.846C828.059 889.5 823.472 885.381 817.877 883.365L597.483 803.935C591.244 801.687 584.336 802.261 578.555 805.509L406.5 902.142Z" stroke="url(#paint50_linear_3927_2069)"/>
<path opacity="0.753623" d="M399.801 899.698C392.516 903.334 387.718 910.573 387.207 918.698L374.937 1113.59C374.519 1120.22 377.013 1126.71 381.767 1131.35L546.409 1292.27C550.693 1296.46 556.449 1298.8 562.438 1298.78L777.551 1298.17C785.186 1298.15 792.305 1294.32 796.524 1287.95L899.322 1132.87C903.541 1126.5 904.3 1118.45 901.346 1111.41L818.118 913.049C815.8 907.527 811.406 903.135 805.882 900.821L593.544 811.858C587.412 809.289 580.466 809.52 574.518 812.488L399.801 899.698Z" stroke="url(#paint51_linear_3927_2069)"/>
<path opacity="0.768116" d="M393.468 898.103C386.07 901.356 380.941 908.277 379.983 916.301L357.065 1108.15C356.274 1114.77 358.413 1121.4 362.922 1126.31L515.911 1292.89C519.992 1297.33 525.664 1299.98 531.691 1300.25L743.374 1309.92C750.97 1310.27 758.24 1306.81 762.767 1300.7L872.647 1152.41C877.173 1146.31 878.363 1138.34 875.82 1131.18L804.954 931.475C802.937 925.79 798.752 921.134 793.314 918.523L589.418 820.648C583.41 817.764 576.441 817.648 570.341 820.33L393.468 898.103Z" stroke="url(#paint52_linear_3927_2069)"/>
<path opacity="0.782609" d="M387.427 897.367C379.936 900.235 374.499 906.822 373.102 914.721L339.822 1102.97C338.659 1109.54 340.435 1116.3 344.683 1121.46L485.886 1292.92C489.749 1297.61 495.323 1300.57 501.374 1301.14L709.151 1320.72C716.688 1321.43 724.088 1318.36 728.907 1312.52L845.443 1171.34C850.262 1165.51 851.875 1157.66 849.749 1150.39L791.151 950.09C789.445 944.257 785.484 939.345 780.146 936.44L585.036 830.286C579.167 827.093 572.194 826.63 565.955 829.019L387.427 897.367Z" stroke="url(#paint53_linear_3927_2069)"/>
<path opacity="0.797101" d="M381.642 897.499C374.08 899.981 368.355 906.22 366.531 913.968L323.206 1098.05C321.671 1104.57 323.076 1111.44 327.049 1116.83L456.382 1292.4C460.013 1297.33 465.473 1300.6 471.534 1301.46L674.954 1330.58C682.416 1331.65 689.924 1328.97 695.019 1323.42L817.772 1189.63C822.868 1184.08 824.895 1176.37 823.191 1169.03L776.721 968.858C775.337 962.894 771.615 957.735 766.391 954.539L580.37 840.752C574.656 837.257 567.695 836.446 561.331 838.534L381.642 897.499Z" stroke="url(#paint54_linear_3927_2069)"/>
<path opacity="0.811594" d="M376.047 898.499C368.434 900.595 362.443 906.474 360.205 914.046L307.179 1093.45C305.276 1099.89 306.303 1106.84 309.988 1112.45L427.414 1291.37C430.8 1296.52 436.129 1300.09 442.188 1301.26L640.83 1339.52C648.198 1340.94 655.792 1338.65 661.148 1333.39L789.667 1207.27C795.022 1202.01 797.455 1194.46 796.174 1187.07L761.652 987.744C760.599 981.663 757.131 976.268 752.036 972.786L575.362 852.019C569.818 848.229 562.887 847.071 556.412 848.854L376.047 898.499Z" stroke="url(#paint55_linear_3927_2069)"/>
<path opacity="0.826087" d="M370.593 900.373C362.95 902.083 356.717 907.591 354.078 914.964L291.724 1089.18C289.456 1095.52 290.099 1102.53 293.484 1108.35L399.014 1289.85C402.141 1295.23 407.324 1299.1 413.368 1300.56L606.839 1347.55C614.096 1349.32 621.756 1347.42 627.352 1342.47L761.18 1224.23C766.776 1219.29 769.602 1211.92 768.747 1204.5L745.95 1006.72C745.238 1000.54 742.037 994.916 737.086 991.152L569.974 864.065C564.614 859.99 557.73 858.486 551.159 859.957L370.593 900.373Z" stroke="url(#paint56_linear_3927_2069)"/>
<path opacity="0.84058" d="M365.222 903.106C357.57 904.435 351.118 909.56 348.093 916.713L276.81 1085.26C274.18 1091.48 274.436 1098.54 277.508 1104.55L371.201 1287.88C374.055 1293.46 379.078 1297.63 385.093 1299.4L573.03 1354.69C580.159 1356.78 587.863 1355.28 593.682 1350.66L732.351 1240.51C738.17 1235.89 741.376 1228.72 740.946 1221.3L729.612 1025.73C729.25 1019.47 726.329 1013.64 721.537 1009.59L564.159 876.851C558.999 872.499 552.178 870.652 545.527 871.807L365.222 903.106Z" stroke="url(#paint57_linear_3927_2069)"/>
<path opacity="0.855072" d="M359.883 906.706C352.242 907.656 345.594 912.391 342.2 919.301L262.409 1081.74C259.425 1087.81 259.289 1094.9 262.038 1101.08L343.997 1285.51C346.565 1291.29 351.412 1295.74 357.385 1297.81L539.456 1360.96C546.442 1363.38 554.168 1362.27 560.19 1357.98L703.226 1256.1C709.248 1251.81 712.822 1244.87 712.815 1237.48L712.644 1044.77C712.638 1038.45 710.013 1032.41 705.392 1028.09L557.878 890.358C552.931 885.739 546.19 883.552 539.474 884.386L359.883 906.706Z" stroke="url(#paint58_linear_3927_2069)"/>
<path opacity="0.869565" d="M354.528 911.155C346.919 911.731 340.1 916.069 336.353 922.717L248.499 1078.62C245.168 1084.53 244.638 1091.62 247.052 1097.96L317.426 1282.77C319.695 1288.72 324.352 1293.46 330.269 1295.84L506.172 1366.38C512.999 1369.12 520.727 1368.4 526.933 1364.46L673.856 1270.99C680.063 1267.05 683.988 1260.35 684.401 1253.01L695.056 1063.78C695.415 1057.42 693.096 1051.19 688.661 1046.61L551.099 904.544C546.379 899.669 539.735 897.145 532.968 897.657L354.528 911.155Z" stroke="url(#paint59_linear_3927_2069)"/>
<path opacity="0.884058" d="M349.095 916.437C341.536 916.644 334.57 920.579 330.491 926.946L235.037 1075.92C231.367 1081.65 230.441 1088.72 232.513 1095.2L291.492 1279.68C293.451 1285.81 297.901 1290.83 303.75 1293.5L473.214 1370.99C479.868 1374.03 487.576 1373.7 493.945 1370.1L644.274 1285.18C650.644 1281.58 654.905 1275.15 655.733 1267.88L676.844 1082.74C677.572 1076.35 675.573 1069.95 671.338 1065.11L543.774 919.37C539.293 914.251 532.762 911.395 525.961 911.582L349.095 916.437Z" stroke="url(#paint60_linear_3927_2069)"/>
<path opacity="0.898551" d="M343.54 922.538C336.051 922.384 328.963 925.913 324.571 931.98L222 1073.67C218 1079.2 216.68 1086.22 218.4 1092.82L266.216 1276.31C267.853 1282.59 272.082 1287.87 277.849 1290.85L440.635 1374.8C447.101 1378.13 454.769 1378.19 461.281 1374.95L614.532 1298.67C621.044 1295.42 625.623 1289.27 626.861 1282.11L658.023 1101.62C659.127 1095.22 657.459 1088.66 653.436 1083.57L535.876 934.802C531.646 929.45 525.245 926.268 518.425 926.128L343.54 922.538Z" stroke="url(#paint61_linear_3927_2069)"/>
<path opacity="0.913043" d="M337.821 929.446C330.42 928.94 323.234 932.058 318.55 937.81L209.361 1071.89C205.042 1077.19 203.327 1084.16 204.688 1090.86L241.614 1272.68C242.918 1279.1 246.912 1284.65 252.584 1287.92L408.483 1377.86C414.748 1381.47 422.355 1381.91 428.99 1379.03L584.677 1311.46C591.311 1308.58 596.19 1302.73 597.829 1295.68L638.609 1120.38C640.092 1114 638.768 1107.29 634.97 1101.96L527.378 950.806C523.411 945.233 517.156 941.732 510.332 941.264L337.821 929.446Z" stroke="url(#paint62_linear_3927_2069)"/>
<path opacity="0.927536" d="M331.89 937.13C324.595 936.278 317.336 938.987 312.382 944.408L197.088 1070.58C192.462 1075.64 190.355 1082.52 191.351 1089.3L217.696 1268.84C218.656 1275.38 222.401 1281.18 227.964 1284.75L376.8 1380.2C382.851 1384.08 390.377 1384.88 397.113 1382.37L554.753 1323.55C561.489 1321.04 566.648 1315.5 568.678 1308.6L618.614 1138.99C620.48 1132.65 619.509 1125.81 615.951 1120.24L518.252 967.329C514.56 961.549 508.465 957.735 501.653 956.94L331.89 937.13Z" stroke="url(#paint63_linear_3927_2069)"/>
<path opacity="0.942029" d="M325.691 945.57C318.52 944.384 311.212 946.683 306.011 951.761L185.138 1069.76C180.217 1074.57 177.723 1081.33 178.347 1088.18L194.458 1264.82C195.064 1271.47 198.545 1277.52 203.988 1281.38L345.612 1381.85C351.439 1385.98 358.865 1387.15 365.681 1385.01L524.792 1334.96C531.607 1332.81 537.026 1327.6 539.438 1320.88L598.041 1157.42C600.293 1151.14 599.685 1144.19 596.378 1138.39L508.462 984.337C505.054 978.364 499.136 974.245 492.351 973.124L325.691 945.57Z" stroke="url(#paint64_linear_3927_2069)"/>
<path opacity="0.956522" d="M319.192 954.735C312.16 953.226 304.828 955.117 299.404 959.839L173.487 1069.44C168.285 1073.97 165.408 1080.6 165.657 1087.49L171.912 1260.67C172.155 1267.4 175.36 1273.69 180.668 1277.84L314.966 1382.85C320.557 1387.22 327.864 1388.74 334.738 1386.97L494.843 1345.68C501.717 1343.91 507.375 1339.04 510.155 1332.51L576.914 1175.64C579.552 1169.44 579.318 1162.39 576.275 1156.38L497.993 1001.78C494.879 995.628 489.151 991.213 482.41 989.766L319.192 954.735Z" stroke="url(#paint65_linear_3927_2069)"/>
<path opacity="0.971014" d="M312.351 964.603C305.475 962.782 298.143 964.269 292.519 968.624L162.102 1069.63C156.636 1073.86 153.381 1080.34 153.251 1087.25L150.063 1256.43C149.935 1263.23 152.848 1269.74 158.01 1274.18L284.894 1383.25C290.241 1387.84 297.411 1389.71 304.321 1388.31L464.949 1355.74C471.859 1354.34 477.735 1349.83 480.869 1343.51L555.25 1193.63C558.276 1187.54 558.425 1180.41 555.656 1174.19L486.826 1019.62C484.014 1013.3 478.492 1008.6 471.809 1006.83L312.351 964.603Z" stroke="url(#paint66_linear_3927_2069)"/>
<path opacity="0.985507" d="M305.127 975.136C298.421 973.016 291.113 974.103 285.315 978.083L150.948 1070.33C145.233 1074.25 141.609 1080.56 141.097 1087.47L128.906 1252.13C128.399 1258.99 131.008 1265.71 136.011 1270.43L255.426 1383.08C260.519 1387.89 267.534 1390.09 274.459 1389.06L435.144 1365.15C442.07 1364.12 448.14 1359.97 451.614 1353.89L533.065 1211.36C536.477 1205.39 537.017 1198.2 534.535 1191.78L474.94 1037.8C472.438 1031.34 467.136 1026.36 460.526 1024.27L305.127 975.136Z" stroke="url(#paint67_linear_3927_2069)"/>
<path d="M297.48 986.303C290.96 983.897 283.698 984.591 277.751 988.189L139.989 1071.54C134.042 1075.14 130.057 1081.25 129.163 1088.14L108.437 1247.82C107.542 1254.71 109.835 1261.64 114.666 1266.63L226.584 1382.4C231.416 1387.39 238.259 1389.92 245.179 1389.26L405.463 1373.93C412.382 1373.27 418.624 1369.49 422.421 1363.67L510.375 1228.8C514.171 1222.98 515.11 1215.74 512.926 1209.14L462.318 1056.29C460.133 1049.69 455.063 1044.45 448.542 1042.04L297.48 986.303Z" stroke="url(#paint68_linear_3927_2069)"/>
</g>
<defs>
<linearGradient id="paint0_linear_3927_2069" x1="1893.24" y1="1185.9" x2="2370.3" y2="354.188" gradientUnits="userSpaceOnUse">
<stop stop-color="#B0FF09"/>
<stop offset="1" stop-color="#05B8F1"/>
</linearGradient>
<linearGradient id="paint1_linear_3927_2069" x1="1845.37" y1="1203.55" x2="2360.81" y2="402.331" gradientUnits="userSpaceOnUse">
<stop stop-color="#B0FF09"/>
<stop offset="1" stop-color="#05B8F1"/>
</linearGradient>
<linearGradient id="paint2_linear_3927_2069" x1="1797.25" y1="1219.55" x2="2349.19" y2="450.557" gradientUnits="userSpaceOnUse">
<stop stop-color="#B0FF09"/>
<stop offset="1" stop-color="#05B8F1"/>
</linearGradient>
<linearGradient id="paint3_linear_3927_2069" x1="1748.97" y1="1233.92" x2="2335.46" y2="498.767" gradientUnits="userSpaceOnUse">
<stop stop-color="#B0FF09"/>
<stop offset="1" stop-color="#05B8F1"/>
</linearGradient>
<linearGradient id="paint4_linear_3927_2069" x1="1700.62" y1="1246.66" x2="2319.63" y2="546.845" gradientUnits="userSpaceOnUse">
<stop stop-color="#B0FF09"/>
<stop offset="1" stop-color="#05B8F1"/>
</linearGradient>
<linearGradient id="paint5_linear_3927_2069" x1="1652.28" y1="1257.77" x2="2301.73" y2="594.679" gradientUnits="userSpaceOnUse">
<stop stop-color="#B0FF09"/>
<stop offset="1" stop-color="#05B8F1"/>
</linearGradient>
<linearGradient id="paint6_linear_3927_2069" x1="1604.06" y1="1267.28" x2="2281.8" y2="642.175" gradientUnits="userSpaceOnUse">
<stop stop-color="#B0FF09"/>
<stop offset="1" stop-color="#05B8F1"/>
</linearGradient>
<linearGradient id="paint7_linear_3927_2069" x1="1556.03" y1="1275.2" x2="2259.87" y2="689.221" gradientUnits="userSpaceOnUse">
<stop stop-color="#B0FF09"/>
<stop offset="1" stop-color="#05B8F1"/>
</linearGradient>
<linearGradient id="paint8_linear_3927_2069" x1="1508.29" y1="1281.57" x2="2235.99" y2="735.726" gradientUnits="userSpaceOnUse">
<stop stop-color="#B0FF09"/>
<stop offset="1" stop-color="#05B8F1"/>
</linearGradient>
<linearGradient id="paint9_linear_3927_2069" x1="1460.9" y1="1286.42" x2="2210.21" y2="781.593" gradientUnits="userSpaceOnUse">
<stop stop-color="#B0FF09"/>
<stop offset="1" stop-color="#05B8F1"/>
</linearGradient>
<linearGradient id="paint10_linear_3927_2069" x1="1413.96" y1="1289.77" x2="2182.58" y2="826.726" gradientUnits="userSpaceOnUse">
<stop stop-color="#B0FF09"/>
<stop offset="1" stop-color="#05B8F1"/>
</linearGradient>
<linearGradient id="paint11_linear_3927_2069" x1="1367.54" y1="1291.67" x2="2153.15" y2="871.04" gradientUnits="userSpaceOnUse">
<stop stop-color="#B0FF09"/>
<stop offset="1" stop-color="#05B8F1"/>
</linearGradient>
<linearGradient id="paint12_linear_3927_2069" x1="1321.71" y1="1292.17" x2="2121.98" y2="914.455" gradientUnits="userSpaceOnUse">
<stop stop-color="#B0FF09"/>
<stop offset="1" stop-color="#05B8F1"/>
</linearGradient>
<linearGradient id="paint13_linear_3927_2069" x1="1276.55" y1="1291.29" x2="2089.15" y2="956.881" gradientUnits="userSpaceOnUse">
<stop stop-color="#B0FF09"/>
<stop offset="1" stop-color="#05B8F1"/>
</linearGradient>
<linearGradient id="paint14_linear_3927_2069" x1="1232.13" y1="1289.12" x2="2054.72" y2="998.253" gradientUnits="userSpaceOnUse">
<stop stop-color="#B0FF09"/>
<stop offset="1" stop-color="#05B8F1"/>
</linearGradient>
<linearGradient id="paint15_linear_3927_2069" x1="1188.5" y1="1285.68" x2="2018.76" y2="1038.49" gradientUnits="userSpaceOnUse">
<stop stop-color="#B0FF09"/>
<stop offset="1" stop-color="#05B8F1"/>
</linearGradient>
<linearGradient id="paint16_linear_3927_2069" x1="1145.73" y1="1281.05" x2="1981.35" y2="1077.53" gradientUnits="userSpaceOnUse">
<stop stop-color="#B0FF09"/>
<stop offset="1" stop-color="#05B8F1"/>
</linearGradient>
<linearGradient id="paint17_linear_3927_2069" x1="1103.89" y1="1275.27" x2="1942.57" y2="1115.31" gradientUnits="userSpaceOnUse">
<stop stop-color="#B0FF09"/>
<stop offset="1" stop-color="#05B8F1"/>
</linearGradient>
<linearGradient id="paint18_linear_3927_2069" x1="1063.01" y1="1268.42" x2="1902.5" y2="1151.78" gradientUnits="userSpaceOnUse">
<stop stop-color="#B0FF09"/>
<stop offset="1" stop-color="#05B8F1"/>
</linearGradient>
<linearGradient id="paint19_linear_3927_2069" x1="1023.15" y1="1260.56" x2="1861.2" y2="1186.88" gradientUnits="userSpaceOnUse">
<stop stop-color="#B0FF09"/>
<stop offset="1" stop-color="#05B8F1"/>
</linearGradient>
<linearGradient id="paint20_linear_3927_2069" x1="984.356" y1="1251.76" x2="1818.79" y2="1220.56" gradientUnits="userSpaceOnUse">
<stop stop-color="#B0FF09"/>
<stop offset="1" stop-color="#05B8F1"/>
</linearGradient>
<linearGradient id="paint21_linear_3927_2069" x1="946.672" y1="1242.08" x2="1775.34" y2="1252.78" gradientUnits="userSpaceOnUse">
<stop stop-color="#B0FF09"/>
<stop offset="1" stop-color="#05B8F1"/>
</linearGradient>
<linearGradient id="paint22_linear_3927_2069" x1="910.129" y1="1231.59" x2="1730.93" y2="1283.5" gradientUnits="userSpaceOnUse">
<stop stop-color="#B0FF09"/>
<stop offset="1" stop-color="#05B8F1"/>
</linearGradient>
<linearGradient id="paint23_linear_3927_2069" x1="874.764" y1="1220.37" x2="1685.66" y2="1312.7" gradientUnits="userSpaceOnUse">
<stop stop-color="#B0FF09"/>
<stop offset="1" stop-color="#05B8F1"/>
</linearGradient>
<linearGradient id="paint24_linear_3927_2069" x1="840.599" y1="1208.5" x2="1639.61" y2="1340.34" gradientUnits="userSpaceOnUse">
<stop stop-color="#B0FF09"/>
<stop offset="1" stop-color="#05B8F1"/>
</linearGradient>
<linearGradient id="paint25_linear_3927_2069" x1="807.661" y1="1196.04" x2="1592.88" y2="1366.41" gradientUnits="userSpaceOnUse">
<stop stop-color="#B0FF09"/>
<stop offset="1" stop-color="#05B8F1"/>
</linearGradient>
<linearGradient id="paint26_linear_3927_2069" x1="775.97" y1="1183.07" x2="1545.55" y2="1390.88" gradientUnits="userSpaceOnUse">
<stop stop-color="#B0FF09"/>
<stop offset="1" stop-color="#05B8F1"/>
</linearGradient>
<linearGradient id="paint27_linear_3927_2069" x1="745.542" y1="1169.67" x2="1497.73" y2="1413.74" gradientUnits="userSpaceOnUse">
<stop stop-color="#B0FF09"/>
<stop offset="1" stop-color="#05B8F1"/>
</linearGradient>
<linearGradient id="paint28_linear_3927_2069" x1="716.382" y1="1155.91" x2="1449.48" y2="1434.99" gradientUnits="userSpaceOnUse">
<stop stop-color="#B0FF09"/>
<stop offset="1" stop-color="#05B8F1"/>
</linearGradient>
<linearGradient id="paint29_linear_3927_2069" x1="688.494" y1="1141.87" x2="1400.91" y2="1454.63" gradientUnits="userSpaceOnUse">
<stop stop-color="#B0FF09"/>
<stop offset="1" stop-color="#05B8F1"/>
</linearGradient>
<linearGradient id="paint30_linear_3927_2069" x1="661.888" y1="1127.62" x2="1352.1" y2="1472.66" gradientUnits="userSpaceOnUse">
<stop stop-color="#B0FF09"/>
<stop offset="1" stop-color="#05B8F1"/>
</linearGradient>
<linearGradient id="paint31_linear_3927_2069" x1="636.557" y1="1113.23" x2="1303.14" y2="1489.08" gradientUnits="userSpaceOnUse">
<stop stop-color="#B0FF09"/>
<stop offset="1" stop-color="#05B8F1"/>
</linearGradient>
<linearGradient id="paint32_linear_3927_2069" x1="612.489" y1="1098.78" x2="1254.11" y2="1503.91" gradientUnits="userSpaceOnUse">
<stop stop-color="#B0FF09"/>
<stop offset="1" stop-color="#05B8F1"/>
</linearGradient>
<linearGradient id="paint33_linear_3927_2069" x1="589.68" y1="1084.34" x2="1205.11" y2="1517.15" gradientUnits="userSpaceOnUse">
<stop stop-color="#B0FF09"/>
<stop offset="1" stop-color="#05B8F1"/>
</linearGradient>
<linearGradient id="paint34_linear_3927_2069" x1="568.111" y1="1069.99" x2="1156.2" y2="1528.85" gradientUnits="userSpaceOnUse">
<stop stop-color="#B0FF09"/>
<stop offset="1" stop-color="#05B8F1"/>
</linearGradient>
<linearGradient id="paint35_linear_3927_2069" x1="547.766" y1="1055.79" x2="1107.48" y2="1539.02" gradientUnits="userSpaceOnUse">
<stop stop-color="#B0FF09"/>
<stop offset="1" stop-color="#05B8F1"/>
</linearGradient>
<linearGradient id="paint36_linear_3927_2069" x1="528.61" y1="1041.81" x2="1059.01" y2="1547.69" gradientUnits="userSpaceOnUse">
<stop stop-color="#B0FF09"/>
<stop offset="1" stop-color="#05B8F1"/>
</linearGradient>
<linearGradient id="paint37_linear_3927_2069" x1="510.635" y1="1028.11" x2="1010.87" y2="1554.89" gradientUnits="userSpaceOnUse">
<stop stop-color="#B0FF09"/>
<stop offset="1" stop-color="#05B8F1"/>
</linearGradient>
<linearGradient id="paint38_linear_3927_2069" x1="493.796" y1="1014.76" x2="963.146" y2="1560.66" gradientUnits="userSpaceOnUse">
<stop stop-color="#B0FF09"/>
<stop offset="1" stop-color="#05B8F1"/>
</linearGradient>
<linearGradient id="paint39_linear_3927_2069" x1="478.063" y1="1001.81" x2="915.891" y2="1565.04" gradientUnits="userSpaceOnUse">
<stop stop-color="#B0FF09"/>
<stop offset="1" stop-color="#05B8F1"/>
</linearGradient>
<linearGradient id="paint40_linear_3927_2069" x1="463.406" y1="989.336" x2="869.184" y2="1568.08" gradientUnits="userSpaceOnUse">
<stop stop-color="#B0FF09"/>
<stop offset="1" stop-color="#05B8F1"/>
</linearGradient>
<linearGradient id="paint41_linear_3927_2069" x1="449.775" y1="977.376" x2="823.077" y2="1569.81" gradientUnits="userSpaceOnUse">
<stop stop-color="#B0FF09"/>
<stop offset="1" stop-color="#05B8F1"/>
</linearGradient>
<linearGradient id="paint42_linear_3927_2069" x1="437.129" y1="965.996" x2="777.635" y2="1570.3" gradientUnits="userSpaceOnUse">
<stop stop-color="#B0FF09"/>
<stop offset="1" stop-color="#05B8F1"/>
</linearGradient>
<linearGradient id="paint43_linear_3927_2069" x1="425.429" y1="955.237" x2="732.918" y2="1569.59" gradientUnits="userSpaceOnUse">
<stop stop-color="#B0FF09"/>
<stop offset="1" stop-color="#05B8F1"/>
</linearGradient>
<linearGradient id="paint44_linear_3927_2069" x1="414.624" y1="945.152" x2="688.976" y2="1567.74" gradientUnits="userSpaceOnUse">
<stop stop-color="#B0FF09"/>
<stop offset="1" stop-color="#05B8F1"/>
</linearGradient>
<linearGradient id="paint45_linear_3927_2069" x1="404.664" y1="935.773" x2="645.861" y2="1564.8" gradientUnits="userSpaceOnUse">
<stop stop-color="#B0FF09"/>
<stop offset="1" stop-color="#05B8F1"/>
</linearGradient>
<linearGradient id="paint46_linear_3927_2069" x1="395.49" y1="927.15" x2="603.608" y2="1560.83" gradientUnits="userSpaceOnUse">
<stop stop-color="#B0FF09"/>
<stop offset="1" stop-color="#05B8F1"/>
</linearGradient>
<linearGradient id="paint47_linear_3927_2069" x1="387.063" y1="919.312" x2="562.278" y2="1555.9" gradientUnits="userSpaceOnUse">
<stop stop-color="#B0FF09"/>
<stop offset="1" stop-color="#05B8F1"/>
</linearGradient>
<linearGradient id="paint48_linear_3927_2069" x1="379.316" y1="912.302" x2="521.895" y2="1550.07" gradientUnits="userSpaceOnUse">
<stop stop-color="#B0FF09"/>
<stop offset="1" stop-color="#05B8F1"/>
</linearGradient>
<linearGradient id="paint49_linear_3927_2069" x1="372.19" y1="906.135" x2="482.491" y2="1543.39" gradientUnits="userSpaceOnUse">
<stop stop-color="#B0FF09"/>
<stop offset="1" stop-color="#05B8F1"/>
</linearGradient>
<linearGradient id="paint50_linear_3927_2069" x1="365.638" y1="900.845" x2="444.107" y2="1535.94" gradientUnits="userSpaceOnUse">
<stop stop-color="#B0FF09"/>
<stop offset="1" stop-color="#05B8F1"/>
</linearGradient>
<linearGradient id="paint51_linear_3927_2069" x1="359.594" y1="896.457" x2="406.764" y2="1527.78" gradientUnits="userSpaceOnUse">
<stop stop-color="#B0FF09"/>
<stop offset="1" stop-color="#05B8F1"/>
</linearGradient>
<linearGradient id="paint52_linear_3927_2069" x1="354.007" y1="892.981" x2="370.491" y2="1518.98" gradientUnits="userSpaceOnUse">
<stop stop-color="#B0FF09"/>
<stop offset="1" stop-color="#05B8F1"/>
</linearGradient>
<linearGradient id="paint53_linear_3927_2069" x1="348.801" y1="890.433" x2="335.291" y2="1509.6" gradientUnits="userSpaceOnUse">
<stop stop-color="#B0FF09"/>
<stop offset="1" stop-color="#05B8F1"/>
</linearGradient>
<linearGradient id="paint54_linear_3927_2069" x1="343.932" y1="888.824" x2="301.195" y2="1499.71" gradientUnits="userSpaceOnUse">
<stop stop-color="#B0FF09"/>
<stop offset="1" stop-color="#05B8F1"/>
</linearGradient>
<linearGradient id="paint55_linear_3927_2069" x1="339.329" y1="888.16" x2="268.203" y2="1489.37" gradientUnits="userSpaceOnUse">
<stop stop-color="#B0FF09"/>
<stop offset="1" stop-color="#05B8F1"/>
</linearGradient>
<linearGradient id="paint56_linear_3927_2069" x1="334.94" y1="888.448" x2="236.328" y2="1478.67" gradientUnits="userSpaceOnUse">
<stop stop-color="#B0FF09"/>
<stop offset="1" stop-color="#05B8F1"/>
</linearGradient>
<linearGradient id="paint57_linear_3927_2069" x1="330.7" y1="889.677" x2="205.57" y2="1467.64" gradientUnits="userSpaceOnUse">
<stop stop-color="#B0FF09"/>
<stop offset="1" stop-color="#05B8F1"/>
</linearGradient>
<linearGradient id="paint58_linear_3927_2069" x1="326.551" y1="891.858" x2="175.929" y2="1456.38" gradientUnits="userSpaceOnUse">
<stop stop-color="#B0FF09"/>
<stop offset="1" stop-color="#05B8F1"/>
</linearGradient>
<linearGradient id="paint59_linear_3927_2069" x1="322.443" y1="894.974" x2="147.407" y2="1444.93" gradientUnits="userSpaceOnUse">
<stop stop-color="#B0FF09"/>
<stop offset="1" stop-color="#05B8F1"/>
</linearGradient>
<linearGradient id="paint60_linear_3927_2069" x1="318.305" y1="899.012" x2="119.984" y2="1433.36" gradientUnits="userSpaceOnUse">
<stop stop-color="#B0FF09"/>
<stop offset="1" stop-color="#05B8F1"/>
</linearGradient>
<linearGradient id="paint61_linear_3927_2069" x1="314.09" y1="903.96" x2="93.6565" y2="1421.74" gradientUnits="userSpaceOnUse">
<stop stop-color="#B0FF09"/>
<stop offset="1" stop-color="#05B8F1"/>
</linearGradient>
<linearGradient id="paint62_linear_3927_2069" x1="309.746" y1="909.806" x2="68.4144" y2="1410.12" gradientUnits="userSpaceOnUse">
<stop stop-color="#B0FF09"/>
<stop offset="1" stop-color="#05B8F1"/>
</linearGradient>
<linearGradient id="paint63_linear_3927_2069" x1="305.224" y1="916.519" x2="44.2411" y2="1398.57" gradientUnits="userSpaceOnUse">
<stop stop-color="#B0FF09"/>
<stop offset="1" stop-color="#05B8F1"/>
</linearGradient>
<linearGradient id="paint64_linear_3927_2069" x1="300.46" y1="924.082" x2="21.1051" y2="1387.14" gradientUnits="userSpaceOnUse">
<stop stop-color="#B0FF09"/>
<stop offset="1" stop-color="#05B8F1"/>
</linearGradient>
<linearGradient id="paint65_linear_3927_2069" x1="295.416" y1="932.462" x2="-1.00775" y2="1375.88" gradientUnits="userSpaceOnUse">
<stop stop-color="#B0FF09"/>
<stop offset="1" stop-color="#05B8F1"/>
</linearGradient>
<linearGradient id="paint66_linear_3927_2069" x1="290.044" y1="941.638" x2="-22.1226" y2="1364.85" gradientUnits="userSpaceOnUse">
<stop stop-color="#B0FF09"/>
<stop offset="1" stop-color="#05B8F1"/>
</linearGradient>
<linearGradient id="paint67_linear_3927_2069" x1="284.299" y1="951.571" x2="-42.2709" y2="1354.1" gradientUnits="userSpaceOnUse">
<stop stop-color="#B0FF09"/>
<stop offset="1" stop-color="#05B8F1"/>
</linearGradient>
<linearGradient id="paint68_linear_3927_2069" x1="278.136" y1="962.229" x2="-61.4867" y2="1343.69" gradientUnits="userSpaceOnUse">
<stop stop-color="#B0FF09"/>
<stop offset="1" stop-color="#05B8F1"/>
</linearGradient>
</defs>
</svg>
