<svg width="32" height="32" viewBox="0 0 32 32" fill="none" xmlns="http://www.w3.org/2000/svg">
<g id="vuesax/outline/flash">
<g id="flash">
<path id="Vector" d="M13.3214 30.3329C13.0547 30.3329 12.8414 30.2795 12.6814 30.2129C12.1481 30.0129 11.2414 29.3595 11.2414 27.2929L11.2414 18.6929H8.12141C6.33474 18.6929 5.69474 17.8529 5.46807 17.3595C5.24141 16.8529 5.04141 15.8262 6.21474 14.4795L16.3081 3.01285C17.6681 1.46619 18.7747 1.57285 19.3081 1.77285C19.8414 1.97285 20.7481 2.62619 20.7481 4.69285V13.2929H23.8681C25.6547 13.2929 26.2947 14.1329 26.5214 14.6262C26.7481 15.1329 26.9481 16.1595 25.7747 17.5062L15.6814 28.9729C14.7347 30.0529 13.9081 30.3329 13.3214 30.3329ZM18.5747 3.65285C18.5347 3.70619 18.2547 3.83952 17.8147 4.34619L7.72141 15.8129C7.34807 16.2395 7.29474 16.5062 7.29474 16.5595C7.32141 16.5729 7.56141 16.7062 8.12141 16.7062H12.2414C12.7881 16.7062 13.2414 17.1595 13.2414 17.7062L13.2414 27.3062C13.2414 27.9729 13.3614 28.2662 13.4147 28.3462C13.4547 28.2929 13.7347 28.1595 14.1747 27.6529L24.2681 16.1862C24.6414 15.7595 24.6947 15.4929 24.6947 15.4395C24.6681 15.4262 24.4281 15.2929 23.8681 15.2929H19.7481C19.2014 15.2929 18.7481 14.8395 18.7481 14.2929V4.69285C18.7614 4.02619 18.6281 3.74619 18.5747 3.65285Z" fill="url(#paint0_linear_3520_702)"/>
</g>
</g>
<defs>
<linearGradient id="paint0_linear_3520_702" x1="16.3518" y1="0.271742" x2="40.1794" y2="16.7734" gradientUnits="userSpaceOnUse">
<stop stop-color="#B0FF09"/>
<stop offset="1" stop-color="#05B8F1"/>
</linearGradient>
</defs>
</svg>
