<svg width="96" height="96" viewBox="0 0 96 96" fill="none" xmlns="http://www.w3.org/2000/svg">
<path fill-rule="evenodd" clip-rule="evenodd" d="M32.9375 73.9477L42.1612 76.4018V73.1926L42.9142 72.4375H48.1848V76.2129V78.8557H42.5377L35.5728 75.8354L32.9375 73.9477Z" fill="#DFCEC3"/>
<path fill-rule="evenodd" clip-rule="evenodd" d="M63.0547 73.9477L54.0193 76.4018V73.1926L53.2664 72.4375H47.9958V76.2129V78.8557H53.6429L60.6074 75.8354L63.0547 73.9477Z" fill="#DFCEC3"/>
<path fill-rule="evenodd" clip-rule="evenodd" d="M42.917 66.9753L42.1641 73.2045L43.1051 72.4494H52.8934L54.0228 73.2045L53.2698 66.9753L51.7639 66.0312L44.2345 66.2202L42.917 66.9753Z" fill="#393939"/>
<path fill-rule="evenodd" clip-rule="evenodd" d="M37.8359 24.875L42.3536 35.4462L44.4244 66.2159H51.7654L54.0243 35.4462L58.1655 24.875L37.8359 24.875Z" fill="#F89C35"/>
<path fill-rule="evenodd" clip-rule="evenodd" d="M18.0675 48.085L12.7969 63.3752L25.9734 62.6202H34.4439V56.0134L34.0674 42.4219L32.185 43.932L18.0675 48.085Z" fill="#F89D35"/>
<path fill-rule="evenodd" clip-rule="evenodd" d="M28.0469 49.7969L43.4822 50.1744L41.7883 58.1028L34.4469 56.2151L28.0469 49.7969Z" fill="#D87C30"/>
<path fill-rule="evenodd" clip-rule="evenodd" d="M28.0469 49.9844L34.4469 56.025V62.0657L28.0469 49.9844Z" fill="#EA8D3A"/>
<path fill-rule="evenodd" clip-rule="evenodd" d="M34.4453 56.2031L41.9748 58.0908L44.422 66.2081L42.7277 67.1518L34.4453 62.2438V56.2031Z" fill="#F89D35"/>
<path fill-rule="evenodd" clip-rule="evenodd" d="M34.4434 62.25L32.9375 73.9538L42.9142 66.9694L34.4434 62.25Z" fill="#EB8F35"/>
<path fill-rule="evenodd" clip-rule="evenodd" d="M43.4761 50.1719L44.4175 66.2175L41.5938 58.0059L43.4761 50.1719Z" fill="#EA8E3A"/>
<path fill-rule="evenodd" clip-rule="evenodd" d="M25.7812 62.4389L34.4401 62.25L32.9342 73.9538L25.7812 62.4389Z" fill="#D87C30"/>
<path fill-rule="evenodd" clip-rule="evenodd" d="M16.9381 79.0493L32.938 73.9523L25.785 62.4375L12.7969 63.3812L16.9381 79.0493Z" fill="#EB8F35"/>
<path fill-rule="evenodd" clip-rule="evenodd" d="M42.3528 35.4375L34.2588 42.2332L28.0469 49.7841L43.4822 50.3505L42.3528 35.4375Z" fill="#E8821E"/>
<path fill-rule="evenodd" clip-rule="evenodd" d="M32.9375 73.9531L42.9142 66.9688L42.1612 73.0094V76.4073L35.3847 75.0857L32.9375 73.9531Z" fill="#DFCEC3"/>
<path fill-rule="evenodd" clip-rule="evenodd" d="M63.0547 73.9531L53.2664 66.9688L54.0194 73.0094V76.4073L60.7959 75.0857L63.0547 73.9531Z" fill="#DFCEC3"/>
<path fill-rule="evenodd" clip-rule="evenodd" d="M39.3355 53.5625L41.4062 57.9044L34.0649 56.0167L39.3355 53.5625Z" fill="#393939"/>
<path fill-rule="evenodd" clip-rule="evenodd" d="M16.75 16L42.3501 35.4432L38.0209 24.872L16.75 16Z" fill="#E88F35"/>
<path fill-rule="evenodd" clip-rule="evenodd" d="M16.7476 16L13.3594 26.3824L15.2417 37.7086L13.9241 38.4637L15.8064 40.1626L14.3006 41.484L16.3712 43.3717L15.0535 44.5044L18.0653 48.2798L32.183 43.938C39.085 38.4008 42.4733 35.5692 42.3478 35.4434C42.2223 35.3175 33.6889 28.8364 16.7476 16Z" fill="#8E5A30"/>
<path fill-rule="evenodd" clip-rule="evenodd" d="M77.9247 48.085L83.1953 63.3752L70.0188 62.6202H61.5483V56.0134L61.9248 42.4219L63.8071 43.932L77.9247 48.085Z" fill="#F89D35"/>
<path fill-rule="evenodd" clip-rule="evenodd" d="M67.9453 49.7969L52.5099 50.1744L54.2039 58.1028L61.5453 56.2151L67.9453 49.7969Z" fill="#D87C30"/>
<path fill-rule="evenodd" clip-rule="evenodd" d="M67.9453 49.9844L61.5453 56.025V62.0657L67.9453 49.9844Z" fill="#EA8D3A"/>
<path fill-rule="evenodd" clip-rule="evenodd" d="M61.5469 56.2031L54.0174 58.0908L51.5702 66.2081L53.2645 67.1518L61.5469 62.2438V56.2031Z" fill="#F89D35"/>
<path fill-rule="evenodd" clip-rule="evenodd" d="M61.5488 62.25L63.0547 73.9538L53.2664 67.158L61.5488 62.25Z" fill="#EB8F35"/>
<path fill-rule="evenodd" clip-rule="evenodd" d="M52.5161 50.1719L51.5747 66.2175L54.3984 58.0059L52.5161 50.1719Z" fill="#EA8E3A"/>
<path fill-rule="evenodd" clip-rule="evenodd" d="M70.2109 62.4389L61.5521 62.25L63.058 73.9538L70.2109 62.4389Z" fill="#D87C30"/>
<path fill-rule="evenodd" clip-rule="evenodd" d="M79.0541 79.0493L63.0542 73.9523L70.2072 62.4375L83.1953 63.3812L79.0541 79.0493Z" fill="#EB8F35"/>
<path fill-rule="evenodd" clip-rule="evenodd" d="M53.6394 35.4375L61.7333 42.2332L67.9453 49.7841L52.5099 50.3505L53.6394 35.4375Z" fill="#E8821E"/>
<path fill-rule="evenodd" clip-rule="evenodd" d="M56.6567 53.5625L54.5859 57.9044L61.9273 56.0167L56.6567 53.5625Z" fill="#393939"/>
<path fill-rule="evenodd" clip-rule="evenodd" d="M79.2422 16L53.6421 35.4432L57.9713 24.872L79.2422 16Z" fill="#E88F35"/>
<path fill-rule="evenodd" clip-rule="evenodd" d="M79.2446 16L82.6328 26.3824L80.7504 37.7086L82.0681 38.4637L80.1857 40.1626L81.6916 41.484L79.621 43.3717L80.9387 44.5044L77.9269 48.2798L63.8092 43.938C56.9072 38.4008 53.5189 35.5692 53.6444 35.4434C53.7699 35.3175 62.3033 28.8364 79.2446 16Z" fill="#8E5A30"/>
</svg>
