<svg width="1276" height="272" viewBox="0 0 1276 272" fill="none" xmlns="http://www.w3.org/2000/svg">
<g filter="url(#filter0_d_3767_5550)">
<path d="M157.509 65.3822C158.092 64.5182 159.068 64 160.113 64H634.071C636.584 64 638.078 66.7974 636.675 68.8759L543.706 206.615C543.123 207.479 542.147 207.997 541.102 207.997L67.1441 207.997C64.6311 207.997 63.137 205.199 64.54 203.121L157.509 65.3822Z" fill="url(#paint0_linear_3767_5550)"/>
<path d="M669.138 65.3822C669.721 64.5182 670.698 64 671.742 64L953.055 64.0031C955.568 64.0031 957.062 66.8005 955.659 68.879L862.69 206.618C862.107 207.482 861.131 208 860.086 208L578.773 207.997C576.26 207.997 574.766 205.199 576.169 203.121L669.138 65.3822Z" fill="url(#paint1_linear_3767_5550)"/>
<path d="M985.365 65.3822C985.948 64.5182 986.924 64 987.969 64L1079.38 64.0031C1081.89 64.0031 1083.39 66.8005 1081.98 68.879L989.014 206.618C988.431 207.482 987.455 208 986.41 208L895 207.997C892.487 207.997 890.993 205.199 892.396 203.121L985.365 65.3822Z" fill="url(#paint2_linear_3767_5550)"/>
<path d="M1113.28 65.3822C1113.87 64.5182 1114.84 64 1115.89 64L1208.86 64.0031C1211.37 64.0031 1212.86 66.8005 1211.46 68.879L1118.49 206.618C1117.91 207.482 1116.93 208 1115.89 208L1022.92 207.997C1020.4 207.997 1018.91 205.199 1020.31 203.121L1113.28 65.3822Z" fill="url(#paint3_linear_3767_5550)"/>
<path d="M157.834 65.6018C158.344 64.846 159.198 64.3924 160.113 64.3924H634.071C636.272 64.3924 637.576 66.8403 636.35 68.6564L543.381 206.395C542.871 207.151 542.017 207.605 541.102 207.605L67.1441 207.604C64.9432 207.604 63.6394 205.157 64.8652 203.34L157.834 65.6018ZM669.463 65.6018C669.974 64.846 670.828 64.3924 671.742 64.3924L953.055 64.3954C955.256 64.3954 956.56 66.8434 955.334 68.6595L862.365 206.398C861.855 207.154 861.001 207.608 860.086 207.608L578.773 207.604C576.573 207.604 575.269 205.156 576.495 203.34L669.463 65.6018ZM985.69 65.6018C986.2 64.846 987.054 64.3924 987.969 64.3924L1079.38 64.3954C1081.58 64.3954 1082.88 66.8434 1081.66 68.6595L988.689 206.398C988.179 207.154 987.325 207.608 986.41 207.608L895 207.604C892.799 207.604 891.495 205.156 892.721 203.34L985.69 65.6018ZM1113.61 65.6018C1114.12 64.846 1114.97 64.3924 1115.89 64.3924L1208.86 64.3954C1211.06 64.3954 1212.36 66.8434 1211.13 68.6595L1118.17 206.398C1117.66 207.154 1116.8 207.608 1115.89 207.608L1022.92 207.604C1020.72 207.604 1019.41 205.156 1020.64 203.34L1113.61 65.6018Z" stroke="white" stroke-opacity="0.2" stroke-width="0.784708"/>
</g>
<defs>
<filter id="filter0_d_3767_5550" x="0" y="0" width="1276" height="272" filterUnits="userSpaceOnUse" color-interpolation-filters="sRGB">
<feFlood flood-opacity="0" result="BackgroundImageFix"/>
<feColorMatrix in="SourceAlpha" type="matrix" values="0 0 0 0 0 0 0 0 0 0 0 0 0 0 0 0 0 0 127 0" result="hardAlpha"/>
<feOffset/>
<feGaussianBlur stdDeviation="32"/>
<feComposite in2="hardAlpha" operator="out"/>
<feColorMatrix type="matrix" values="0 0 0 0 0.407843 0 0 0 0 0.882353 0 0 0 0 0.419608 0 0 0 0.3 0"/>
<feBlend mode="normal" in2="BackgroundImageFix" result="effect1_dropShadow_3767_5550"/>
<feBlend mode="normal" in="SourceGraphic" in2="effect1_dropShadow_3767_5550" result="shape"/>
</filter>
<linearGradient id="paint0_linear_3767_5550" x1="657.153" y1="57.0271" x2="691.094" y2="308.107" gradientUnits="userSpaceOnUse">
<stop stop-color="#B0FF09"/>
<stop offset="1" stop-color="#05B8F1"/>
</linearGradient>
<linearGradient id="paint1_linear_3767_5550" x1="657.153" y1="57.0271" x2="691.094" y2="308.107" gradientUnits="userSpaceOnUse">
<stop stop-color="#B0FF09"/>
<stop offset="1" stop-color="#05B8F1"/>
</linearGradient>
<linearGradient id="paint2_linear_3767_5550" x1="657.153" y1="57.0271" x2="691.094" y2="308.107" gradientUnits="userSpaceOnUse">
<stop stop-color="#B0FF09"/>
<stop offset="1" stop-color="#05B8F1"/>
</linearGradient>
<linearGradient id="paint3_linear_3767_5550" x1="657.153" y1="57.0271" x2="691.094" y2="308.107" gradientUnits="userSpaceOnUse">
<stop stop-color="#B0FF09"/>
<stop offset="1" stop-color="#05B8F1"/>
</linearGradient>
</defs>
</svg>
