<svg width="32" height="32" viewBox="0 0 32 32" fill="none" xmlns="http://www.w3.org/2000/svg">
<path d="M23.5462 30.2284C22.8395 30.2284 21.9328 30.0017 20.7995 29.3351L16.8128 26.9751C16.3995 26.7351 15.5995 26.7351 15.1995 26.9751L11.1995 29.3351C8.83951 30.7351 7.45284 30.1751 6.82617 29.7217C6.21284 29.2684 5.25284 28.1084 5.87951 25.4417L6.82617 21.3484C6.93284 20.9217 6.71951 20.1884 6.39951 19.8684L3.09284 16.5617C1.43951 14.9084 1.57284 13.4951 1.79951 12.8017C2.02617 12.1084 2.74617 10.8817 5.03951 10.4951L9.29284 9.78839C9.69284 9.72172 10.2662 9.29505 10.4395 8.93505L12.7995 4.22839C13.8662 2.08172 15.2662 1.76172 15.9995 1.76172C16.7328 1.76172 18.1328 2.08172 19.1995 4.22839L21.5462 8.92172C21.7328 9.28172 22.3062 9.70839 22.7062 9.77505L26.9595 10.4817C29.2662 10.8684 29.9862 12.0951 30.1995 12.7884C30.4128 13.4817 30.5462 14.8951 28.9062 16.5484L25.5995 19.8684C25.2795 20.1884 25.0795 20.9084 25.1728 21.3484L26.1195 25.4417C26.7328 28.1084 25.7862 29.2684 25.1728 29.7217C24.8395 29.9617 24.3062 30.2284 23.5462 30.2284ZM15.9995 24.7884C16.6528 24.7884 17.3062 24.9484 17.8262 25.2551L21.8128 27.6151C22.9728 28.3084 23.7062 28.3084 23.9862 28.1084C24.2662 27.9084 24.4662 27.2017 24.1728 25.8951L23.2262 21.8017C22.9728 20.6951 23.3862 19.2684 24.1862 18.4551L27.4928 15.1484C28.1462 14.4951 28.4395 13.8551 28.3062 13.4151C28.1595 12.9751 27.5462 12.6151 26.6395 12.4684L22.3862 11.7617C21.3595 11.5884 20.2395 10.7617 19.7728 9.82839L17.4262 5.13505C16.9995 4.28172 16.4662 3.77505 15.9995 3.77505C15.5328 3.77505 14.9995 4.28172 14.5862 5.13505L12.2262 9.82839C11.7595 10.7617 10.6395 11.5884 9.61284 11.7617L5.37284 12.4684C4.46617 12.6151 3.85284 12.9751 3.70617 13.4151C3.55951 13.8551 3.86617 14.5084 4.51951 15.1484L7.82617 18.4551C8.62617 19.2551 9.03951 20.6951 8.78617 21.8017L7.83951 25.8951C7.53284 27.2151 7.74617 27.9084 8.02617 28.1084C8.30617 28.3084 9.02617 28.2951 10.1995 27.6151L14.1862 25.2551C14.6928 24.9484 15.3462 24.7884 15.9995 24.7884Z" fill="url(#paint0_linear_3507_1518)"/>
<defs>
<linearGradient id="paint0_linear_3507_1518" x1="16.4733" y1="0.383281" x2="41.6858" y2="23.9359" gradientUnits="userSpaceOnUse">
<stop stop-color="#B0FF09"/>
<stop offset="1" stop-color="#05B8F1"/>
</linearGradient>
</defs>
</svg>
