<svg width="32" height="32" viewBox="0 0 32 32" fill="none" xmlns="http://www.w3.org/2000/svg">
<g id="vuesax/outline/verify">
<g id="verify">
<path id="Vector" d="M14.3874 20.2296C14.1207 20.2296 13.8674 20.123 13.6807 19.9363L10.4541 16.7096C10.0674 16.323 10.0674 15.683 10.4541 15.2963C10.8407 14.9096 11.4807 14.9096 11.8674 15.2963L14.3874 17.8163L20.1207 12.083C20.5074 11.6963 21.1474 11.6963 21.5341 12.083C21.9207 12.4696 21.9207 13.1096 21.5341 13.4963L15.0941 19.9363C14.9074 20.123 14.6541 20.2296 14.3874 20.2296Z" fill="url(#paint0_linear_3520_1229)"/>
<path id="Vector_2" d="M16.0005 30.3346C15.1605 30.3346 14.3205 30.0546 13.6672 29.4946L11.5605 27.6813C11.3472 27.4946 10.8138 27.308 10.5338 27.308H8.24049C6.26716 27.308 4.66716 25.708 4.66716 23.7346L4.66716 21.4546C4.66716 21.1746 4.48049 20.6546 4.29383 20.4413L2.49383 18.3213C1.40049 17.028 1.40049 14.988 2.49383 13.6946L4.29383 11.5746C4.48049 11.3613 4.66716 10.8413 4.66716 10.5613V8.26797C4.66716 6.29464 6.26716 4.69464 8.24049 4.69464H10.5472C10.8272 4.69464 11.3605 4.49464 11.5738 4.3213L13.6805 2.50797C14.9872 1.38797 17.0272 1.38797 18.3338 2.50797L20.4405 4.3213C20.6538 4.50797 21.1872 4.69464 21.4672 4.69464L23.7338 4.69464C25.7072 4.69464 27.3072 6.29464 27.3072 8.26797V10.5346C27.3072 10.8146 27.5072 11.348 27.6938 11.5613L29.5072 13.668C30.6272 14.9746 30.6272 17.0146 29.5072 18.3213L27.6938 20.428C27.5072 20.6413 27.3072 21.1746 27.3072 21.4546V23.7213C27.3072 25.6946 25.7072 27.2946 23.7338 27.2946H21.4672C21.1872 27.2946 20.6538 27.4946 20.4405 27.668L18.3338 29.4813C17.6805 30.0546 16.8405 30.3346 16.0005 30.3346ZM8.24049 6.69464C7.37383 6.69464 6.66716 7.4013 6.66716 8.26797V10.548C6.66716 11.308 6.30716 12.2813 5.81383 12.8546L4.01383 14.9746C3.54716 15.5213 3.54716 16.468 4.01383 17.0146L5.81383 19.1346C6.30716 19.7213 6.66716 20.6813 6.66716 21.4413V23.7213C6.66716 24.588 7.37383 25.2946 8.24049 25.2946H10.5472C11.3205 25.2946 12.2938 25.6546 12.8805 26.1613L14.9872 27.9746C15.5338 28.4413 16.4938 28.4413 17.0405 27.9746L19.1472 26.1613C19.7338 25.668 20.7072 25.2946 21.4805 25.2946H23.7472C24.6138 25.2946 25.3205 24.588 25.3205 23.7213V21.4546C25.3205 20.6813 25.6805 19.708 26.1872 19.1213L28.0005 17.0146C28.4672 16.468 28.4672 15.508 28.0005 14.9613L26.1872 12.8546C25.6805 12.268 25.3205 11.2946 25.3205 10.5213V8.26797C25.3205 7.4013 24.6138 6.69464 23.7472 6.69464H21.4805C20.7072 6.69464 19.7338 6.33464 19.1472 5.82797L17.0405 4.01464C16.4938 3.54797 15.5338 3.54797 14.9872 4.01464L12.8805 5.8413C12.2938 6.33464 11.3072 6.69464 10.5472 6.69464H8.24049Z" fill="url(#paint1_linear_3520_1229)"/>
</g>
</g>
<defs>
<linearGradient id="paint0_linear_3520_1229" x1="16.1886" y1="11.3844" x2="23.4522" y2="20.6996" gradientUnits="userSpaceOnUse">
<stop stop-color="#B0FF09"/>
<stop offset="1" stop-color="#05B8F1"/>
</linearGradient>
<linearGradient id="paint1_linear_3520_1229" x1="16.4889" y1="0.279847" x2="41.8667" y2="23.8339" gradientUnits="userSpaceOnUse">
<stop stop-color="#B0FF09"/>
<stop offset="1" stop-color="#05B8F1"/>
</linearGradient>
</defs>
</svg>
