<svg width="32" height="32" viewBox="0 0 32 32" fill="none" xmlns="http://www.w3.org/2000/svg">
<g id="vuesax/outline/graph">
<g id="graph">
<path id="Vector" d="M24.4267 17.0006H20C16.68 17.0006 15 15.1206 15 11.4006L15 7.57393C15 6.21393 15.16 4.26727 16.5733 3.2006C17.76 2.3206 19.4667 2.25393 21.9867 2.98727C25.2933 3.94727 28.0533 6.70727 29.0133 10.0139C29.7467 12.5206 29.68 14.2406 28.8 15.4139C27.7333 16.8406 25.7867 17.0006 24.4267 17.0006ZM19.04 4.4806C18.4933 4.4806 18.0667 4.58727 17.7867 4.8006C17.2667 5.18727 17.0133 6.09393 17.0133 7.57393V11.4139C17.0133 14.4006 18.16 15.0139 20.0133 15.0139L24.44 15.0139C25.9067 15.0139 26.8133 14.7606 27.2133 14.2406C27.68 13.6273 27.64 12.4006 27.12 10.6006C26.3467 7.97393 24.08 5.69393 21.4533 4.93393C20.4667 4.62727 19.6667 4.4806 19.04 4.4806Z" fill="url(#paint0_linear_3820_115)"/>
<path id="Vector_2" d="M14.7618 30.3325C14.0551 30.3325 13.3351 30.2791 12.6151 30.1591C7.1618 29.2791 2.7218 24.8525 1.8418 19.3991C0.708463 12.3858 5.22846 5.77246 12.1485 4.35913C12.6951 4.25246 13.2151 4.59913 13.3351 5.13246C13.4418 5.67913 13.0951 6.19913 12.5618 6.31913C6.70846 7.51913 2.86846 13.1191 3.8418 19.0791C4.58846 23.6925 8.33513 27.4391 12.9485 28.1858C18.9351 29.1458 24.5218 25.2925 25.7085 19.4125C25.8151 18.8658 26.3485 18.5191 26.8818 18.6258C27.4285 18.7325 27.7751 19.2658 27.6685 19.7991C26.4018 26.0258 20.9618 30.3325 14.7618 30.3325Z" fill="url(#paint1_linear_3820_115)"/>
</g>
</g>
<defs>
<linearGradient id="paint0_linear_3820_115" x1="22.5003" y1="1.78146" x2="35.3509" y2="13.7058" gradientUnits="userSpaceOnUse">
<stop stop-color="#B0FF09"/>
<stop offset="1" stop-color="#05B8F1"/>
</linearGradient>
<linearGradient id="paint1_linear_3820_115" x1="15.112" y1="3.08121" x2="38.1239" y2="24.4567" gradientUnits="userSpaceOnUse">
<stop stop-color="#B0FF09"/>
<stop offset="1" stop-color="#05B8F1"/>
</linearGradient>
</defs>
</svg>
