<svg width="908" height="1704" viewBox="0 0 908 1704" fill="none" xmlns="http://www.w3.org/2000/svg">
<g opacity="0.4">
<path opacity="0.0144928" d="M-243.463 -162.64C-244.512 -172.765 -238.735 -182.362 -229.297 -186.173L52.5707 -299.996C58.1524 -302.25 64.3982 -302.209 69.95 -299.883L471.279 -131.704C475.645 -129.874 479.335 -126.733 481.838 -122.715L683.335 200.765C687.874 208.051 687.944 217.266 683.517 224.62L546.805 451.735C542.378 459.089 534.202 463.341 525.64 462.74L145.469 436.085C140.747 435.754 136.244 433.964 132.583 430.962L-203.882 155.026C-208.537 151.209 -211.496 145.709 -212.117 139.721L-243.463 -162.64Z" stroke="url(#paint0_linear_3923_1825)"/>
<path opacity="0.0289855" d="M-260.09 -117.782C-261.648 -127.814 -256.397 -137.669 -247.202 -141.973L26.1419 -269.908C31.602 -272.464 37.851 -272.757 43.5263 -270.724L449.413 -125.323C453.883 -123.722 457.743 -120.767 460.456 -116.87L676.31 193.222C681.207 200.258 681.753 209.443 677.722 217.009L553.825 449.577C549.794 457.143 541.867 461.814 533.295 461.675L155.523 455.521C150.775 455.443 146.17 453.888 142.347 451.072L-204.756 195.328C-209.61 191.752 -212.852 186.403 -213.777 180.446L-260.09 -117.782Z" stroke="url(#paint1_linear_3923_1825)"/>
<path opacity="0.0434783" d="M-275.231 -72.726C-277.29 -82.6388 -272.577 -92.7241 -263.652 -97.5044L0.470822 -238.973C5.79297 -241.824 12.0273 -242.451 17.8107 -240.718L426.98 -118.108C431.543 -116.741 435.563 -113.981 438.48 -110.216L667.848 185.878C673.091 192.646 674.109 201.778 670.484 209.534L559.596 446.839C555.972 454.595 548.314 459.673 539.759 459.994L165.48 474.015C160.72 474.193 156.024 472.879 152.049 470.257L-204.51 235.057C-209.55 231.732 -213.068 226.548 -214.296 220.636L-275.231 -72.726Z" stroke="url(#paint2_linear_3923_1825)"/>
<path opacity="0.057971" d="M-288.893 -27.553C-291.445 -37.3217 -287.279 -47.6069 -278.649 -52.8476L-24.4085 -207.237C-19.2402 -210.376 -13.0383 -211.337 -7.16258 -209.909L404.026 -110.03C408.669 -108.903 412.841 -106.348 415.955 -102.725L657.971 178.813C663.544 185.297 665.03 194.35 661.821 202.274L564.095 443.597C560.886 451.522 553.52 456.991 545.006 457.769L175.287 491.581C170.53 492.017 165.755 490.949 161.636 488.528L-203.188 274.156C-208.401 271.093 -212.187 266.087 -213.715 260.237L-288.893 -27.553Z" stroke="url(#paint3_linear_3923_1825)"/>
<path opacity="0.0724638" d="M-301.087 17.6532C-304.122 8.05315 -300.512 -2.40189 -292.201 -8.085L-48.4642 -174.75C-43.4653 -178.169 -37.3136 -179.462 -31.3617 -178.345L380.599 -101.07C385.309 -100.186 389.622 -97.8435 392.928 -94.3731L646.703 172.102C652.591 178.284 654.539 187.235 651.753 195.306L567.305 439.924C564.519 447.995 557.464 453.837 549.016 455.071L184.894 508.234C180.152 508.926 175.312 508.11 171.06 505.899L-200.836 312.57C-206.209 309.776 -210.253 304.964 -212.079 299.19L-301.087 17.6532Z" stroke="url(#paint4_linear_3923_1825)"/>
<path opacity="0.0869565" d="M-311.811 62.8181C-315.319 53.4109 -312.271 42.8162 -304.302 36.7098L-71.6509 -141.557C-66.8366 -145.246 -60.7527 -146.869 -54.7408 -146.067L356.762 -91.2002C361.528 -90.5648 365.972 -88.4417 369.46 -85.1334L634.09 165.824C640.276 171.691 642.68 180.515 640.323 188.709L569.229 435.899C566.872 444.093 560.147 450.292 551.789 451.976L194.268 523.996C189.555 524.946 184.662 524.384 180.287 522.39L-197.488 350.252C-203.007 347.738 -207.299 343.131 -209.418 337.448L-311.811 62.8181Z" stroke="url(#paint5_linear_3923_1825)"/>
<path opacity="0.101449" d="M-321.101 107.849C-325.068 98.6579 -322.588 87.9542 -314.983 81.4447L-93.9573 -107.723C-89.3423 -111.673 -83.3438 -113.622 -77.2885 -113.138L332.551 -80.4175C337.359 -80.0336 341.922 -78.1375 345.586 -75.0009L620.149 160.038C626.617 165.575 629.468 174.25 627.546 182.544L569.841 431.584C567.92 439.878 561.544 446.415 553.3 448.543L203.345 538.875C198.675 540.08 193.743 539.776 189.256 538.006L-193.209 387.142C-198.86 384.913 -203.39 380.525 -205.797 374.948L-321.101 107.849Z" stroke="url(#paint6_linear_3923_1825)"/>
<path opacity="0.115942" d="M-328.963 152.685C-333.378 143.733 -331.467 132.951 -324.246 126.06L-115.344 -73.2833C-110.942 -77.4835 -105.046 -79.754 -98.9645 -79.591L308.032 -68.6901C312.869 -68.5605 317.54 -66.8978 321.372 -63.9419L604.935 154.831C611.666 160.025 614.956 168.527 613.473 176.899L569.155 427.068C567.672 435.44 561.662 442.294 553.556 444.859L212.096 552.909C207.482 554.369 202.524 554.326 197.936 552.785L-188.037 423.211C-193.804 421.275 -198.561 417.117 -201.252 411.66L-328.963 152.685Z" stroke="url(#paint7_linear_3923_1825)"/>
<path opacity="0.130435" d="M-335.432 197.234C-340.279 188.542 -338.941 177.712 -332.123 170.462L-135.797 -38.3092C-131.622 -42.7485 -125.847 -45.3354 -119.755 -45.4945L283.247 -56.0251C288.101 -56.1519 292.869 -54.7288 296.858 -51.9622L588.481 150.251C595.457 155.089 599.175 163.396 598.133 171.822L567.162 422.408C566.12 430.833 560.492 437.985 552.548 440.979L220.468 566.105C215.924 567.817 210.954 568.036 206.277 566.732L-182.034 458.398C-187.904 456.76 -192.876 452.845 -195.844 447.523L-335.432 197.234Z" stroke="url(#paint8_linear_3923_1825)"/>
<path opacity="0.144928" d="M-340.528 241.432C-345.793 233.022 -345.026 222.175 -338.63 214.59L-155.288 -2.84314C-151.353 -7.50924 -145.715 -10.4064 -139.631 -10.8884L258.261 -42.4019C263.117 -42.7866 267.969 -41.6084 272.108 -39.0393L570.842 146.374C578.044 150.844 582.178 158.935 581.58 167.391L563.876 417.687C563.278 426.143 558.046 433.571 550.287 436.983L228.43 578.502C223.97 580.463 219 580.946 214.246 579.882L-175.248 492.676C-181.204 491.343 -186.378 487.681 -189.617 482.507L-340.528 241.432Z" stroke="url(#paint9_linear_3923_1825)"/>
<path opacity="0.15942" d="M-344.292 285.202C-349.957 277.093 -349.76 266.26 -343.802 258.364L-173.808 33.0522C-170.125 28.172 -164.641 24.9716 -158.58 24.1672L233.118 -27.8232C237.964 -28.4664 242.888 -27.5379 247.167 -25.1742L552.061 143.251C559.47 147.343 564.007 155.197 563.853 163.66L559.302 412.97C559.147 421.432 554.326 429.115 546.773 432.935L235.935 590.12C231.573 592.326 226.618 593.074 221.799 592.254L-167.741 526.003C-173.768 524.978 -179.133 521.579 -182.634 516.568L-344.292 285.202Z" stroke="url(#paint10_linear_3923_1825)"/>
<path opacity="0.173913" d="M-346.756 328.476C-352.804 320.689 -353.173 309.899 -347.669 301.717L-191.338 69.3239C-187.92 64.2431 -182.606 60.7474 -176.586 59.6217L207.877 -12.2841C212.698 -13.1859 217.682 -12.5114 222.091 -10.3604L532.195 140.943C539.79 144.648 544.718 152.245 545.006 160.691L553.456 408.329C553.744 416.774 549.345 424.689 542.02 428.904L242.951 600.992C238.699 603.439 233.772 604.451 228.901 603.88L-159.57 558.347C-165.652 557.634 -171.192 554.509 -174.949 549.673L-346.756 328.476Z" stroke="url(#paint11_linear_3923_1825)"/>
<path opacity="0.188406" d="M-347.962 371.19C-354.375 363.742 -355.304 353.026 -350.268 344.585L-207.872 105.918C-204.729 100.651 -199.6 96.869 -193.639 95.4239L182.588 4.21645C187.373 3.05672 192.403 3.47362 196.931 5.40501L511.298 139.505C519.058 142.815 524.362 150.134 525.09 158.54L546.353 403.834C547.082 412.24 543.117 420.363 536.042 424.959L249.439 611.153C245.311 613.834 240.427 615.111 235.515 614.791L-150.795 589.683C-156.915 589.285 -162.619 586.442 -166.621 581.794L-347.962 371.19Z" stroke="url(#paint12_linear_3923_1825)"/>
<path opacity="0.202899" d="M-347.957 413.278C-354.716 406.185 -356.198 395.573 -351.642 386.899L-223.403 142.776C-220.546 137.337 -215.618 133.278 -209.732 131.517L157.303 21.6711C162.036 20.2546 167.1 20.4109 171.737 22.1165L489.424 138.983C497.33 141.891 502.993 148.915 504.159 157.257L538.013 399.55C539.179 407.892 535.658 416.199 528.852 421.163L255.365 620.631C251.373 623.543 246.546 625.081 241.606 625.016L-141.481 619.982C-147.624 619.901 -153.476 617.349 -157.714 612.901L-347.957 413.278Z" stroke="url(#paint13_linear_3923_1825)"/>
<path opacity="0.217391" d="M-346.78 454.677C-353.865 447.957 -355.893 437.476 -351.828 428.598L-237.922 179.841C-235.359 174.245 -230.647 169.921 -224.853 167.846L132.08 40.0727C136.748 38.4017 141.833 38.295 146.567 39.7689L466.642 139.422C474.672 141.922 480.678 148.633 482.276 156.889L528.467 395.54C530.065 403.796 526.997 412.263 520.48 417.579L260.703 629.463C256.86 632.597 252.103 634.395 247.148 634.586L-131.683 649.221C-137.832 649.458 -143.818 647.204 -148.283 642.968L-346.78 454.677Z" stroke="url(#paint14_linear_3923_1825)"/>
<path opacity="0.231884" d="M-344.49 495.333C-351.879 489 -354.443 478.679 -350.878 469.624L-251.434 217.059C-249.175 211.323 -244.694 206.743 -239.008 204.361L106.963 59.4133C111.553 57.4902 116.645 57.119 121.465 58.356L443.007 140.867C451.139 142.954 457.471 149.335 459.495 157.483L517.735 391.869C519.76 400.017 517.151 408.619 510.941 414.269L265.416 637.685C261.736 641.034 257.062 643.089 252.106 643.538L-121.471 677.383C-127.611 677.939 -133.715 675.99 -138.396 671.978L-344.49 495.333Z" stroke="url(#paint15_linear_3923_1825)"/>
<path opacity="0.246377" d="M-341.132 535.187C-348.804 529.254 -351.893 519.123 -348.835 509.919L-263.935 254.372C-261.988 248.512 -257.751 243.689 -252.189 241.005L82.0088 79.6769C86.5072 77.5055 91.5935 76.8685 96.4885 77.8638L418.588 143.353C426.801 145.023 433.44 151.057 435.884 159.075L505.855 388.595C508.299 396.612 506.156 405.324 500.271 411.292L269.485 645.332C265.978 648.888 261.401 651.197 256.456 651.905L-110.904 704.452C-117.018 705.326 -123.224 703.688 -128.11 699.91L-341.132 535.187Z" stroke="url(#paint16_linear_3923_1825)"/>
<path opacity="0.26087" d="M-336.766 574.193C-344.7 568.673 -348.3 558.756 -345.756 549.432L-275.436 291.729C-273.807 285.761 -269.827 280.708 -264.406 277.728L57.2628 100.851C61.6566 98.4353 66.7233 97.5324 71.6811 98.2818L393.447 146.916C401.72 148.167 408.647 153.84 411.502 161.705L492.856 385.779C495.711 393.643 494.038 402.439 488.494 408.706L272.879 652.445C269.556 656.201 265.09 658.759 260.17 659.724L-100.05 730.418C-106.121 731.61 -112.415 730.288 -117.493 726.754L-336.766 574.193Z" stroke="url(#paint17_linear_3923_1825)"/>
<path opacity="0.275362" d="M-331.451 612.303C-339.623 607.207 -343.721 597.532 -341.694 588.116L-285.943 329.076C-284.639 323.018 -280.929 317.749 -275.664 314.479L32.7738 122.92C37.0498 120.264 42.0833 119.095 47.092 119.595L367.653 151.588C375.963 152.418 383.158 157.717 386.416 165.408L478.775 383.478C482.032 391.168 480.832 400.023 475.645 406.569L275.575 659.066C272.449 663.011 268.107 665.813 263.224 667.036L-88.9727 755.277C-94.9841 756.783 -101.349 755.782 -106.608 752.503L-331.451 612.303Z" stroke="url(#paint18_linear_3923_1825)"/>
<path opacity="0.289855" d="M-325.244 649.474C-333.632 644.812 -338.211 635.404 -336.705 625.926L-295.467 366.361C-294.493 360.23 -291.065 354.759 -285.972 351.209L8.58945 145.862C12.7349 142.972 17.7217 141.538 22.769 141.786L341.273 157.395C349.6 157.803 357.043 162.716 360.692 170.211L463.654 381.744C467.302 389.24 466.577 398.129 461.761 404.934L277.554 665.235C274.635 669.36 270.431 672.4 265.599 673.88L-77.7356 779.024C-83.6718 780.842 -90.0923 780.165 -95.5188 777.149L-325.244 649.474Z" stroke="url(#paint19_linear_3923_1825)"/>
<path opacity="0.304348" d="M-318.204 685.661C-326.784 681.442 -331.828 672.325 -330.844 662.814L-304.017 403.527C-303.377 397.341 -300.241 391.683 -295.335 387.861L-15.24 169.648C-11.2377 166.53 -6.31112 164.834 -1.23766 164.826L314.383 164.353C322.704 164.34 330.374 168.854 334.402 176.136L447.539 380.624C451.567 387.906 451.317 396.801 446.885 403.844L278.803 670.987C276.101 675.281 272.046 678.553 267.279 680.288L-66.3983 801.654C-72.2432 803.78 -78.7022 803.43 -84.2835 800.685L-318.204 685.661Z" stroke="url(#paint20_linear_3923_1825)"/>
<path opacity="0.318841" d="M-310.4 720.832C-319.148 717.063 -324.639 708.26 -324.176 698.746L-311.616 440.528C-311.314 434.305 -308.481 428.475 -303.776 424.39L-38.6776 194.259C-34.8307 190.919 -29.9779 188.962 -24.8907 188.697L287.045 172.484C295.339 172.053 303.214 176.158 307.609 183.205L430.467 380.169C434.863 387.216 435.087 396.094 431.052 403.353L279.299 676.369C276.824 680.822 272.931 684.319 268.24 686.305L-55.0311 823.174C-60.7689 825.604 -67.2501 825.583 -72.9725 823.118L-310.4 720.832Z" stroke="url(#paint21_linear_3923_1825)"/>
<path opacity="0.333333" d="M-301.894 754.962C-310.786 751.65 -316.704 743.184 -316.76 733.695L-318.28 477.322C-318.317 471.079 -315.797 465.094 -311.307 460.758L-61.6765 219.673C-57.9971 216.12 -53.2314 213.904 -48.1431 213.382L259.333 181.809C267.579 180.962 275.637 184.65 280.386 191.444L412.491 380.431C417.24 387.225 417.936 396.059 414.308 403.512L279.031 681.431C276.793 686.03 273.075 689.745 268.474 691.98L-43.6929 843.601C-49.308 846.328 -55.7947 846.638 -61.6444 844.459L-301.894 754.962Z" stroke="url(#paint22_linear_3923_1825)"/>
<path opacity="0.347826" d="M-292.752 788.011C-301.764 785.159 -308.089 777.051 -308.66 767.616L-324.029 513.846C-324.407 507.604 -322.209 501.479 -317.947 496.902L-84.1968 245.846C-80.6966 242.087 -76.0313 239.617 -70.9545 238.836L231.319 192.323C239.496 191.065 247.713 194.327 252.802 200.85L393.659 381.436C398.747 387.96 399.91 396.724 396.698 404.349L277.99 686.201C275.996 690.935 272.465 694.859 267.966 697.338L-32.4462 862.929C-37.9232 865.948 -44.3987 866.589 -50.3614 864.703L-292.752 788.011Z" stroke="url(#paint23_linear_3923_1825)"/>
<path opacity="0.362319" d="M-283.047 819.96C-292.155 817.573 -298.864 809.842 -299.946 800.49L-328.894 550.065C-329.613 543.84 -327.744 537.594 -323.724 532.788L-106.205 272.756C-102.896 268.799 -98.3441 266.079 -93.2915 265.039L203.066 204.041C211.153 202.376 219.508 205.206 224.92 211.441L374.015 383.233C379.427 389.468 381.052 398.139 378.266 405.911L276.16 690.732C274.419 695.587 271.086 699.711 266.703 702.431L-21.3573 881.182C-26.6813 884.486 -33.1289 885.457 -39.19 883.869L-283.047 819.96Z" stroke="url(#paint24_linear_3923_1825)"/>
<path opacity="0.376812" d="M-272.834 850.795C-282.013 848.875 -289.085 841.54 -290.669 832.297L-332.887 585.935C-333.947 579.748 -332.414 573.396 -328.647 568.374L-127.653 300.37C-124.544 296.225 -120.119 293.26 -115.104 291.962L174.658 216.965C182.634 214.901 191.104 217.292 196.823 223.224L353.626 385.857C359.344 391.789 361.425 400.34 359.071 408.236L273.548 695.067C272.068 700.032 268.943 704.346 264.688 707.301L-10.4731 898.381C-15.6296 901.961 -22.0325 903.262 -28.1773 901.976L-272.834 850.795Z" stroke="url(#paint25_linear_3923_1825)"/>
<path opacity="0.391304" d="M-262.194 880.493C-271.419 879.04 -278.831 872.118 -280.909 863.013L-336.049 621.41C-337.449 615.277 -336.258 608.839 -332.757 603.614L-148.517 328.648C-145.62 324.325 -141.335 321.12 -136.369 319.565L146.152 231.088C153.998 228.631 162.559 230.58 168.568 236.192L332.532 389.336C338.54 394.948 341.069 403.357 339.152 411.352L270.138 699.247C268.925 704.307 266.02 708.801 261.905 711.986L0.135538 914.539C-4.83898 918.388 -11.1807 920.015 -17.3941 919.037L-262.194 880.493Z" stroke="url(#paint26_linear_3923_1825)"/>
<path opacity="0.405797" d="M-251.186 909.042C-260.433 908.057 -268.16 901.563 -270.722 892.623L-338.403 656.449C-340.139 650.39 -339.294 643.884 -336.07 638.47L-168.756 357.552C-166.082 353.061 -161.948 349.624 -157.044 347.813L117.627 246.403C125.323 243.561 133.952 245.066 140.233 250.344L310.798 393.699C317.079 398.977 320.046 407.218 318.571 415.289L265.937 703.313C264.997 708.455 262.322 713.119 258.359 716.526L10.4213 929.682C5.64249 933.791 -0.621555 935.742 -6.88819 935.074L-251.186 909.042Z" stroke="url(#paint27_linear_3923_1825)"/>
<path opacity="0.42029" d="M-239.884 936.44C-249.129 935.92 -257.146 929.869 -260.18 921.12L-339.983 691.018C-342.052 685.052 -341.559 678.496 -338.621 672.906L-188.346 387.048C-185.902 382.401 -181.932 378.737 -177.104 376.673L89.1453 262.903C96.6727 259.687 105.346 260.745 111.88 265.676L288.476 398.973C295.01 403.905 298.404 411.956 297.374 420.076L260.941 707.313C260.28 712.522 257.845 717.344 254.045 720.968L20.3247 943.841C15.7549 948.199 9.58483 950.471 3.28025 950.116L-239.884 936.44Z" stroke="url(#paint28_linear_3923_1825)"/>
<path opacity="0.434783" d="M-228.358 962.682C-237.578 962.624 -245.859 957.029 -249.352 948.497L-340.828 725.081C-343.226 719.226 -343.087 712.638 -340.444 706.889L-207.26 417.095C-205.057 412.302 -201.263 408.419 -196.522 406.106L60.7707 280.574C68.111 276.993 76.805 277.604 83.5725 282.176L265.619 405.18C272.387 409.753 276.197 417.591 275.614 425.738L255.149 711.288C254.772 716.55 252.586 721.519 248.961 725.351L29.7894 957.046C25.4414 961.642 19.3815 964.229 13.0545 964.19L-228.358 962.682Z" stroke="url(#paint29_linear_3923_1825)"/>
<path opacity="0.449275" d="M-216.669 987.762C-225.839 988.163 -234.358 983.035 -238.296 974.744L-340.964 758.598C-343.684 752.872 -343.901 746.272 -341.564 740.379L-225.466 447.647C-223.512 442.72 -219.905 438.626 -215.264 436.067L32.5783 299.392C39.7138 295.457 48.4051 295.622 55.3864 299.824L242.295 412.333C249.276 416.536 253.49 424.139 253.352 432.287L248.578 715.276C248.489 720.575 246.559 725.679 243.12 729.711L38.7743 969.323C34.6604 974.147 28.7266 977.044 22.3928 977.32L-216.669 987.762Z" stroke="url(#paint30_linear_3923_1825)"/>
<path opacity="0.463768" d="M-204.891 1011.69C-213.989 1012.54 -222.719 1007.89 -227.086 999.864L-340.436 791.541C-343.472 785.961 -344.047 779.368 -342.023 773.346L-242.948 478.661C-241.251 473.614 -237.843 469.317 -233.314 466.516L4.62294 319.337C11.5364 315.06 20.202 314.781 27.3766 318.603L218.552 420.449C225.726 424.271 230.329 431.619 230.636 439.742L241.225 719.319C241.427 724.641 239.762 729.866 236.52 734.09L47.222 980.711C43.354 985.75 37.5618 988.951 31.2368 989.544L-204.891 1011.69Z" stroke="url(#paint31_linear_3923_1825)"/>
<path opacity="0.478261" d="M-193.084 1034.48C-202.086 1035.78 -211.001 1031.61 -215.779 1023.87L-339.276 823.89C-342.62 818.473 -343.553 811.907 -341.848 805.773L-259.679 510.106C-258.246 504.95 -255.048 500.461 -250.643 497.422L-23.026 340.394C-16.3508 335.789 -7.73433 335.068 -0.38732 338.502L194.456 429.548C201.803 432.981 206.779 440.053 207.529 448.128L233.107 723.469C233.602 728.798 232.21 734.131 229.175 738.538L55.0938 991.257C51.4826 996.499 45.8474 999.997 39.5468 1000.91L-193.084 1034.48Z" stroke="url(#paint32_linear_3923_1825)"/>
<path opacity="0.492754" d="M-181.317 1056.13C-190.201 1057.86 -199.272 1054.19 -204.444 1046.76L-337.526 855.604C-341.171 850.369 -342.46 843.848 -341.082 837.62L-275.645 541.923C-274.483 536.672 -271.505 531.999 -267.236 528.728L-50.3122 362.52C-43.8909 357.6 -35.3462 356.444 -27.8483 359.48L170.062 439.625C177.56 442.661 182.893 449.437 184.081 457.439L224.233 727.751C225.023 733.071 223.911 738.499 221.091 743.079L62.3422 1000.99C58.9984 1006.42 53.5351 1010.21 47.2746 1011.43L-181.317 1056.13Z" stroke="url(#paint33_linear_3923_1825)"/>
<path opacity="0.507246" d="M-169.657 1076.66C-178.401 1078.82 -187.602 1075.65 -193.147 1068.55L-335.231 886.663C-339.167 881.625 -340.811 875.169 -339.764 868.863L-290.834 574.069C-289.949 568.736 -287.201 563.89 -283.079 560.393L-77.1813 385.686C-71.0288 380.466 -62.5783 378.879 -54.9512 381.512L145.425 450.686C153.052 453.319 158.724 459.781 160.345 467.686L214.612 732.207C215.699 737.502 214.872 743.011 212.278 747.754L68.9231 1009.95C65.8565 1015.56 60.5796 1019.63 54.3747 1021.16L-169.657 1076.66Z" stroke="url(#paint34_linear_3923_1825)"/>
<path opacity="0.521739" d="M-158.158 1096.09C-166.742 1098.68 -176.043 1096 -181.942 1089.25L-332.424 917.051C-336.64 912.227 -338.636 905.855 -337.925 899.488L-305.225 606.504C-304.622 601.105 -302.115 596.097 -298.152 592.38L-103.569 409.864C-97.6995 404.359 -89.3653 402.348 -81.631 404.573L120.61 462.74C128.344 464.964 134.337 471.095 136.385 478.878L204.27 736.881C205.652 742.136 205.116 747.711 202.758 752.606L74.8066 1018.19C72.0262 1023.97 66.95 1028.3 60.816 1030.15L-158.158 1096.09Z" stroke="url(#paint35_linear_3923_1825)"/>
<path opacity="0.536232" d="M-146.888 1114.45C-155.29 1117.45 -164.666 1115.27 -170.895 1108.89L-329.155 946.748C-333.639 942.154 -335.983 935.885 -335.612 929.476L-318.816 639.184C-318.501 633.731 -316.241 628.572 -312.448 624.642L-129.43 435.016C-123.857 429.241 -115.66 426.815 -107.841 428.627L95.668 475.782C103.487 477.594 109.781 483.377 112.247 491.015L193.215 741.81C194.893 747.007 194.653 752.634 192.538 757.67L79.9502 1025.77C77.4644 1031.68 72.6024 1036.28 66.5547 1038.44L-146.888 1114.45Z" stroke="url(#paint36_linear_3923_1825)"/>
<path opacity="0.550725" d="M-135.906 1131.75C-144.107 1135.14 -153.527 1133.47 -160.066 1127.47L-325.465 975.724C-330.206 971.374 -332.892 965.227 -332.864 958.794L-331.599 672.046C-331.574 666.555 -329.573 661.257 -325.96 657.121L-154.714 461.086C-149.448 455.057 -141.411 452.226 -133.529 453.622L70.6553 489.794C78.5369 491.19 85.1125 496.61 87.9871 504.081L181.469 747.013C183.441 752.138 183.501 757.801 181.638 762.967L84.3219 1032.7C82.1385 1038.75 77.5038 1043.6 71.5574 1046.06L-135.906 1131.75Z" stroke="url(#paint37_linear_3923_1825)"/>
<path opacity="0.565217" d="M-125.263 1148.04C-133.244 1151.81 -142.683 1150.64 -149.506 1145.04L-321.395 1003.99C-326.379 999.895 -329.402 993.888 -329.718 987.448L-343.564 705.065C-343.835 699.551 -342.099 694.125 -338.677 689.792L-179.369 488.051C-174.422 481.787 -166.564 478.56 -158.643 479.539L45.6314 504.786C53.553 505.765 60.3888 510.809 63.6614 518.089L169.057 752.546C171.321 757.582 171.684 763.267 170.079 768.55L87.8963 1039.06C86.022 1045.23 81.6274 1050.32 75.7972 1053.08L-125.263 1148.04Z" stroke="url(#paint38_linear_3923_1825)"/>
<path opacity="0.57971" d="M-115.015 1163.33C-122.758 1167.47 -132.187 1166.8 -139.271 1161.62L-316.987 1031.5C-322.201 1027.69 -325.554 1021.84 -326.215 1015.41L-354.712 738.18C-355.279 732.657 -353.816 727.117 -350.595 722.595L-203.351 515.852C-198.734 509.369 -191.075 505.757 -183.136 506.319L20.6503 520.732C28.5893 521.294 35.6635 525.948 39.3222 533.016L156.001 758.426C158.553 763.357 159.222 769.048 157.882 774.436L90.6469 1044.9C89.0879 1051.17 84.9453 1056.48 79.2458 1059.53L-115.015 1163.33Z" stroke="url(#paint39_linear_3923_1825)"/>
<path opacity="0.594203" d="M-105.211 1177.67C-112.699 1182.16 -122.091 1181.99 -129.41 1177.23L-312.283 1058.28C-317.712 1054.75 -321.387 1049.08 -322.392 1042.68L-365.038 771.352C-365.905 765.836 -364.721 760.194 -361.711 755.492L-226.615 544.448C-222.336 537.764 -214.896 533.781 -206.962 533.925L-4.23204 537.626C3.70201 537.771 10.9922 542.024 15.0237 548.859L142.328 764.693C145.164 769.502 146.141 775.184 145.073 780.664L92.5535 1050.26C91.3151 1056.61 87.4359 1062.15 81.8815 1065.48L-105.211 1177.67Z" stroke="url(#paint40_linear_3923_1825)"/>
<path opacity="0.608696" d="M-95.9091 1191.09C-103.125 1195.92 -112.455 1196.24 -119.983 1191.91L-307.336 1084.31C-312.965 1081.07 -316.952 1075.6 -318.301 1069.25L-374.556 804.531C-375.723 799.038 -374.826 793.308 -372.036 788.435L-249.132 573.785C-245.201 566.919 -237.997 562.577 -230.09 562.307L-28.9733 555.445C-21.0666 555.175 -13.5834 559.017 -9.19353 565.598L128.055 771.372C131.171 776.043 132.457 781.699 131.667 787.259L93.5868 1055.2C92.6734 1061.62 89.0686 1067.36 83.6732 1070.97L-95.9091 1191.09Z" stroke="url(#paint41_linear_3923_1825)"/>
<path opacity="0.623188" d="M-87.1474 1203.64C-94.0769 1208.78 -103.316 1209.59 -111.028 1205.71L-302.18 1109.58C-307.992 1106.65 -312.282 1101.39 -313.973 1095.11L-383.261 837.675C-384.729 832.22 -384.124 826.415 -381.562 821.381L-270.858 603.814C-267.281 596.785 -260.331 592.098 -252.474 591.417L-53.5141 574.171C-45.6569 573.489 -38.0043 576.91 -33.2716 583.219L113.219 778.492C116.609 783.01 118.204 788.624 117.696 794.25L93.7395 1059.77C93.1548 1066.25 89.8345 1072.17 84.6117 1076.05L-87.1474 1203.64Z" stroke="url(#paint42_linear_3923_1825)"/>
<path opacity="0.637681" d="M-78.9765 1215.35C-85.6048 1220.8 -94.7289 1222.07 -102.597 1218.65L-296.865 1134.09C-302.844 1131.49 -307.426 1126.46 -309.455 1120.26L-391.17 870.737C-392.938 865.337 -392.63 859.471 -390.306 854.286L-291.768 634.481C-288.552 627.308 -281.873 622.292 -274.087 621.204L-77.8132 593.78C-70.0275 592.692 -62.2295 595.684 -57.1706 601.702L97.8417 786.079C101.499 790.429 103.403 795.985 103.182 801.663L92.9912 1064.03C92.7381 1070.54 89.7117 1076.64 84.6747 1080.78L-78.9765 1215.35Z" stroke="url(#paint43_linear_3923_1825)"/>
<path opacity="0.652174" d="M-71.4373 1226.26C-77.7513 1232 -86.7349 1233.74 -94.7327 1230.77L-291.434 1157.85C-297.563 1155.58 -302.425 1150.79 -304.789 1144.7L-398.292 903.674C-400.36 898.344 -400.353 892.432 -398.274 887.107L-311.834 665.732C-308.984 658.433 -302.592 653.105 -294.899 651.616L-101.824 614.246C-94.1317 612.757 -86.2127 615.315 -80.8452 621.024L81.9522 794.158C85.8687 798.324 88.0806 803.806 88.151 809.523L91.3316 1068.03C91.412 1074.56 88.6884 1080.82 83.8501 1085.22L-71.4373 1226.26Z" stroke="url(#paint44_linear_3923_1825)"/>
<path opacity="0.666667" d="M-64.5571 1236.43C-70.5445 1242.43 -79.3633 1244.63 -87.4633 1242.13L-285.919 1180.85C-292.179 1178.92 -297.308 1174.39 -300.002 1168.42L-404.63 936.438C-406.995 931.194 -407.294 925.25 -405.467 919.795L-331.02 697.505C-328.54 690.1 -322.449 684.475 -314.871 682.592L-125.493 635.536C-117.914 633.653 -109.899 635.772 -104.241 641.155L65.5923 802.746C69.7603 806.712 72.2781 812.104 72.6425 817.846L88.7647 1071.82C89.1798 1078.36 86.767 1084.76 82.1396 1089.4L-64.5571 1236.43Z" stroke="url(#paint45_linear_3923_1825)"/>
<path opacity="0.681159" d="M-58.384 1245.91C-64.0338 1252.16 -72.6642 1254.79 -80.8388 1252.76L-280.375 1203.12C-286.748 1201.53 -292.13 1197.28 -295.147 1191.44L-410.213 968.996C-412.873 963.854 -413.48 957.893 -411.913 952.319L-349.318 729.753C-347.212 722.262 -341.436 716.359 -333.992 714.09L-148.789 657.629C-141.345 655.36 -133.258 657.037 -127.331 662.079L48.7804 811.874C53.1906 815.625 56.0116 820.911 56.6728 826.663L85.2734 1075.47C86.0234 1082 83.9287 1088.53 79.524 1093.4L-58.384 1245.91Z" stroke="url(#paint46_linear_3923_1825)"/>
<path opacity="0.695652" d="M-52.9406 1254.74C-58.2428 1261.22 -66.6622 1264.27 -74.8839 1262.71L-274.833 1224.64C-281.3 1223.41 -286.921 1219.44 -290.255 1213.77L-415.048 1001.3C-418 996.276 -418.919 990.313 -417.617 984.633L-366.702 762.413C-364.97 754.855 -359.522 748.692 -352.234 746.045L-171.665 680.487C-164.376 677.841 -156.243 679.073 -150.066 683.76L31.558 821.553C36.2006 825.075 39.3212 830.239 40.2811 835.987L80.8663 1079.03C81.9506 1085.52 80.1805 1092.16 76.01 1097.26L-52.9406 1254.74Z" stroke="url(#paint47_linear_3923_1825)"/>
<path opacity="0.710145" d="M-48.2625 1262.97C-53.2085 1269.66 -61.3951 1273.12 -69.6363 1272.03L-269.341 1245.43C-275.883 1244.56 -281.727 1240.9 -285.37 1235.4L-419.165 1033.31C-422.403 1028.42 -423.635 1022.47 -422.606 1016.7L-383.164 795.425C-381.809 787.82 -376.7 781.415 -369.586 778.402L-194.09 704.074C-186.976 701.061 -178.821 701.848 -172.416 706.166L13.951 831.8C18.8152 835.079 22.2312 840.104 23.491 845.833L75.5388 1082.54C76.9559 1088.99 75.5162 1095.73 71.5906 1101.03L-48.2625 1262.97Z" stroke="url(#paint48_linear_3923_1825)"/>
<path opacity="0.724638" d="M-44.3635 1270.66C-48.9455 1277.53 -56.8787 1281.39 -65.112 1280.76L-263.927 1265.5C-270.522 1265 -276.574 1261.66 -280.518 1256.34L-422.572 1064.99C-426.092 1060.25 -427.639 1054.33 -426.887 1048.47L-398.683 828.733C-397.703 821.099 -392.945 814.473 -386.025 811.104L-216.018 728.354C-209.098 724.986 -200.947 725.329 -194.335 729.268L-3.99528 842.631C1.07901 845.653 4.7853 850.524 6.34567 856.22L69.3081 1086.07C71.0558 1092.45 69.9515 1099.27 66.2809 1104.78L-44.3635 1270.66Z" stroke="url(#paint49_linear_3923_1825)"/>
<path opacity="0.73913" d="M-41.2779 1277.86C-45.4895 1284.9 -53.1497 1289.14 -61.348 1288.97L-258.64 1284.88C-265.27 1284.74 -271.513 1281.73 -275.746 1276.63L-425.307 1096.31C-429.104 1091.73 -430.965 1085.85 -430.496 1079.93L-413.264 862.281C-412.659 854.639 -408.26 847.81 -401.552 844.099L-237.429 753.295C-230.721 749.584 -222.599 749.485 -215.803 753.033L-22.2593 854.063C-16.9873 856.815 -12.9966 861.515 -11.1356 867.163L62.1705 1089.67C64.2456 1095.97 63.4807 1102.86 60.0748 1108.55L-41.2779 1277.86Z" stroke="url(#paint50_linear_3923_1825)"/>
<path opacity="0.753623" d="M-39.0181 1284.63C-42.8541 1291.81 -50.2227 1296.41 -58.3592 1296.69L-253.511 1303.57C-260.155 1303.8 -266.571 1301.13 -271.084 1296.25L-427.39 1127.22C-431.456 1122.83 -433.633 1117.01 -433.45 1111.02L-426.898 896.007C-426.665 888.375 -422.635 881.365 -416.157 877.324L-258.287 778.852C-251.809 774.811 -243.74 774.274 -236.784 777.422L-40.8003 866.102C-35.3437 868.571 -31.0753 873.085 -28.9145 878.671L54.1439 1093.39C56.5423 1099.59 56.1203 1106.52 52.9881 1112.39L-39.0181 1284.63Z" stroke="url(#paint51_linear_3923_1825)"/>
<path opacity="0.768116" d="M-37.6011 1291C-41.0575 1298.31 -48.1173 1303.24 -56.1655 1303.98L-248.578 1321.59C-255.215 1322.19 -261.786 1319.87 -266.568 1315.23L-428.85 1157.69C-433.179 1153.49 -435.669 1147.75 -435.778 1141.72L-439.587 929.846C-439.724 922.244 -436.068 915.072 -429.836 910.716L-278.569 804.978C-272.337 800.621 -264.346 799.652 -257.253 802.392L-59.5856 878.752C-53.9583 880.925 -49.4196 885.237 -46.9603 890.746L45.2411 1097.27C47.958 1103.36 47.8813 1110.32 45.0311 1116.35L-37.6011 1291Z" stroke="url(#paint52_linear_3923_1825)"/>
<path opacity="0.782609" d="M-37.0296 1297.06C-40.1035 1304.47 -46.8385 1309.73 -54.7727 1310.9L-243.866 1338.97C-250.474 1339.95 -257.182 1337.98 -262.22 1333.6L-429.709 1187.71C-434.292 1183.72 -437.095 1178.06 -437.497 1172L-451.326 963.759C-451.828 956.205 -448.554 948.893 -442.584 944.237L-298.24 831.649C-292.271 826.993 -284.381 825.597 -277.177 827.923L-78.5713 892.036C-72.7878 893.903 -67.987 897.998 -65.2312 903.415L35.4887 1101.38C38.5184 1107.34 38.7886 1114.32 36.2282 1120.49L-37.0296 1297.06Z" stroke="url(#paint53_linear_3923_1825)"/>
<path opacity="0.797101" d="M-37.3228 1302.84C-40.0125 1310.33 -46.4079 1315.88 -54.2028 1317.49L-239.417 1355.71C-245.977 1357.07 -252.8 1355.47 -258.082 1351.35L-430.008 1217.21C-434.836 1213.45 -437.949 1207.9 -438.649 1201.82L-462.133 997.67C-462.995 990.182 -460.106 982.751 -454.414 977.811L-317.291 858.804C-311.598 853.863 -303.835 852.05 -296.542 853.956L-97.7329 905.942C-91.8088 907.491 -86.7548 911.354 -83.7053 916.664L24.8963 1105.76C28.2323 1111.57 28.8503 1118.55 26.5866 1124.85L-37.3228 1302.84Z" stroke="url(#paint54_linear_3923_1825)"/>
<path opacity="0.811594" d="M-38.4769 1308.41C-40.7821 1315.96 -46.8245 1321.79 -54.4557 1323.81L-235.254 1371.86C-241.744 1373.58 -248.664 1372.36 -254.175 1368.53L-429.773 1246.2C-434.836 1242.67 -438.256 1237.25 -439.256 1231.16L-472.011 1031.53C-473.226 1024.13 -470.727 1016.6 -465.325 1011.39L-335.693 886.409C-330.292 881.202 -322.677 878.979 -315.323 880.463L-117.027 920.482C-110.979 921.703 -105.681 925.319 -102.341 930.508L13.4955 1110.45C17.1305 1116.1 18.0961 1123.06 16.1356 1129.48L-38.4769 1308.41Z" stroke="url(#paint55_linear_3923_1825)"/>
<path opacity="0.826087" d="M-40.501 1313.81C-42.4222 1321.4 -48.0997 1327.48 -55.5435 1329.91L-231.413 1387.43C-237.812 1389.52 -244.809 1388.68 -250.534 1385.14L-429.043 1274.63C-434.331 1271.36 -438.056 1266.07 -439.356 1259.99L-480.979 1065.29C-482.541 1057.99 -480.433 1050.38 -475.336 1044.93L-353.44 914.417C-348.343 908.96 -340.899 906.339 -333.507 907.399L-136.427 935.655C-130.271 936.537 -124.74 939.893 -121.114 944.946L1.30453 1115.51C5.23046 1120.98 6.54289 1127.9 4.89118 1134.43L-40.501 1313.81Z" stroke="url(#paint56_linear_3923_1825)"/>
<path opacity="0.84058" d="M-43.3847 1319.1C-44.9241 1326.71 -50.2259 1333.02 -57.4596 1335.85L-227.913 1402.44C-234.201 1404.9 -241.253 1404.45 -247.177 1401.21L-427.847 1302.49C-433.349 1299.48 -437.373 1294.34 -438.976 1288.28L-489.048 1098.89C-490.948 1091.7 -489.233 1084.04 -484.452 1078.35L-370.51 942.783C-365.729 937.094 -358.478 934.087 -351.074 934.722L-155.889 951.458C-149.642 951.994 -143.89 955.074 -139.982 959.977L-11.6399 1120.96C-7.43193 1126.24 -5.77446 1133.11 -7.11245 1139.73L-43.3847 1319.1Z" stroke="url(#paint57_linear_3923_1825)"/>
<path opacity="0.855072" d="M-47.1264 1324.34C-48.2868 1331.95 -53.2039 1338.46 -60.2057 1341.67L-224.783 1416.94C-230.938 1419.75 -238.025 1419.69 -244.131 1416.77L-426.224 1329.75C-431.928 1327.02 -436.247 1322.05 -438.153 1316.02L-496.241 1132.28C-498.469 1125.23 -497.147 1117.53 -492.693 1111.63L-386.896 971.467C-382.441 965.566 -375.405 962.186 -368.015 962.397L-175.383 967.895C-169.063 968.075 -163.101 970.867 -158.916 975.605L-25.3107 1126.87C-20.8302 1131.94 -18.8302 1138.74 -19.8503 1145.43L-47.1264 1324.34Z" stroke="url(#paint58_linear_3923_1825)"/>
<path opacity="0.869565" d="M-51.7243 1329.57C-52.5101 1337.16 -57.0348 1343.85 -63.784 1347.42L-222.053 1430.93C-228.055 1434.09 -235.154 1434.43 -241.426 1431.84L-424.218 1356.38C-430.112 1353.95 -434.72 1349.16 -436.929 1343.18L-502.586 1165.4C-505.135 1158.5 -504.204 1150.79 -500.086 1144.7L-402.597 1000.41C-398.479 994.319 -391.678 990.581 -384.326 990.37L-194.881 984.95C-188.508 984.768 -182.348 987.258 -177.892 991.818L-39.6816 1133.25C-34.9389 1138.11 -32.6 1144.82 -33.2987 1151.57L-51.7243 1329.57Z" stroke="url(#paint59_linear_3923_1825)"/>
<path opacity="0.884058" d="M-57.1539 1334.85C-57.5703 1342.4 -61.6964 1349.26 -68.1735 1353.16L-219.731 1444.46C-225.559 1447.97 -232.649 1448.7 -239.07 1446.45L-421.855 1382.39C-427.924 1380.27 -432.816 1375.68 -435.327 1369.76L-508.098 1198.22C-510.955 1191.48 -510.413 1183.78 -506.64 1177.52L-417.597 1029.59C-413.824 1023.33 -407.277 1019.24 -399.988 1018.62L-214.336 1002.63C-207.929 1002.08 -201.586 1004.26 -196.865 1008.62L-54.7047 1140.17C-49.7108 1144.79 -47.037 1151.4 -47.4117 1158.19L-57.1539 1334.85Z" stroke="url(#paint60_linear_3923_1825)"/>
<path opacity="0.898551" d="M-63.4062 1340.24C-63.4596 1347.73 -67.1824 1354.72 -73.3691 1358.94L-217.843 1457.55C-223.477 1461.4 -230.536 1462.53 -237.087 1460.62L-419.178 1407.75C-425.41 1405.94 -430.577 1401.57 -433.391 1395.72L-512.81 1230.68C-515.964 1224.12 -515.807 1216.46 -512.387 1210.04L-431.899 1058.95C-428.479 1052.53 -422.204 1048.12 -415.004 1047.09L-233.723 1020.92C-227.301 1020 -220.788 1021.85 -215.81 1026.01L-70.3485 1147.64C-65.115 1152.01 -62.1116 1158.5 -62.1602 1165.32L-63.4062 1340.24Z" stroke="url(#paint61_linear_3923_1825)"/>
<path opacity="0.913043" d="M-70.4683 1345.76C-70.1661 1353.18 -73.4824 1360.27 -79.3618 1364.8L-216.409 1470.24C-221.83 1474.41 -228.836 1475.93 -235.499 1474.38L-416.233 1432.44C-422.612 1430.96 -428.048 1426.82 -431.162 1421.06L-516.757 1262.73C-520.197 1256.37 -520.42 1248.75 -517.358 1242.2L-445.509 1088.44C-442.447 1081.89 -436.462 1077.17 -429.375 1075.73L-253.013 1039.81C-246.597 1038.5 -239.928 1040.01 -234.701 1043.96L-86.579 1155.69C-81.1182 1159.81 -77.7911 1166.16 -77.5124 1172.99L-70.4683 1345.76Z" stroke="url(#paint62_linear_3923_1825)"/>
<path opacity="0.927536" d="M-78.3155 1351.48C-77.6662 1358.79 -80.5743 1365.98 -86.1308 1370.78L-215.442 1482.54C-220.631 1487.02 -227.561 1488.94 -234.316 1487.76L-413.054 1456.46C-419.565 1455.32 -425.262 1451.41 -428.674 1445.75L-519.97 1294.34C-523.682 1288.18 -524.279 1280.64 -521.581 1273.97L-458.426 1118.02C-455.728 1111.36 -450.049 1106.35 -443.099 1104.51L-272.171 1059.28C-265.781 1057.59 -258.973 1058.75 -253.504 1062.46L-103.352 1164.35C-97.6763 1168.2 -94.0321 1174.4 -93.4257 1181.23L-78.3155 1351.48Z" stroke="url(#paint63_linear_3923_1825)"/>
</g>
<defs>
<linearGradient id="paint0_linear_3923_1825" x1="-283.83" y1="-216.15" x2="560.755" y2="-670.032" gradientUnits="userSpaceOnUse">
<stop stop-color="#B0FF09"/>
<stop offset="1" stop-color="#05B8F1"/>
</linearGradient>
<linearGradient id="paint1_linear_3923_1825" x1="-302.796" y1="-168.786" x2="512.368" y2="-661.879" gradientUnits="userSpaceOnUse">
<stop stop-color="#B0FF09"/>
<stop offset="1" stop-color="#05B8F1"/>
</linearGradient>
<linearGradient id="paint2_linear_3923_1825" x1="-320.125" y1="-121.126" x2="463.837" y2="-651.599" gradientUnits="userSpaceOnUse">
<stop stop-color="#B0FF09"/>
<stop offset="1" stop-color="#05B8F1"/>
</linearGradient>
<linearGradient id="paint3_linear_3923_1825" x1="-335.82" y1="-73.2595" x2="415.269" y2="-639.202" gradientUnits="userSpaceOnUse">
<stop stop-color="#B0FF09"/>
<stop offset="1" stop-color="#05B8F1"/>
</linearGradient>
<linearGradient id="paint4_linear_3923_1825" x1="-349.889" y1="-25.2802" x2="366.771" y2="-624.71" gradientUnits="userSpaceOnUse">
<stop stop-color="#B0FF09"/>
<stop offset="1" stop-color="#05B8F1"/>
</linearGradient>
<linearGradient id="paint5_linear_3923_1825" x1="-362.328" y1="22.7288" x2="318.463" y2="-608.139" gradientUnits="userSpaceOnUse">
<stop stop-color="#B0FF09"/>
<stop offset="1" stop-color="#05B8F1"/>
</linearGradient>
<linearGradient id="paint6_linear_3923_1825" x1="-373.169" y1="70.6653" x2="270.434" y2="-589.533" gradientUnits="userSpaceOnUse">
<stop stop-color="#B0FF09"/>
<stop offset="1" stop-color="#05B8F1"/>
</linearGradient>
<linearGradient id="paint7_linear_3923_1825" x1="-382.417" y1="118.46" x2="222.799" y2="-568.911" gradientUnits="userSpaceOnUse">
<stop stop-color="#B0FF09"/>
<stop offset="1" stop-color="#05B8F1"/>
</linearGradient>
<linearGradient id="paint8_linear_3923_1825" x1="-390.107" y1="166.01" x2="175.649" y2="-546.329" gradientUnits="userSpaceOnUse">
<stop stop-color="#B0FF09"/>
<stop offset="1" stop-color="#05B8F1"/>
</linearGradient>
<linearGradient id="paint9_linear_3923_1825" x1="-396.256" y1="213.244" x2="129.09" y2="-521.822" gradientUnits="userSpaceOnUse">
<stop stop-color="#B0FF09"/>
<stop offset="1" stop-color="#05B8F1"/>
</linearGradient>
<linearGradient id="paint10_linear_3923_1825" x1="-400.906" y1="260.074" x2="83.2083" y2="-495.446" gradientUnits="userSpaceOnUse">
<stop stop-color="#B0FF09"/>
<stop offset="1" stop-color="#05B8F1"/>
</linearGradient>
<linearGradient id="paint11_linear_3923_1825" x1="-404.089" y1="306.424" x2="38.0969" y2="-467.254" gradientUnits="userSpaceOnUse">
<stop stop-color="#B0FF09"/>
<stop offset="1" stop-color="#05B8F1"/>
</linearGradient>
<linearGradient id="paint12_linear_3923_1825" x1="-405.849" y1="352.221" x2="-6.15954" y2="-437.301" gradientUnits="userSpaceOnUse">
<stop stop-color="#B0FF09"/>
<stop offset="1" stop-color="#05B8F1"/>
</linearGradient>
<linearGradient id="paint13_linear_3923_1825" x1="-406.232" y1="397.389" x2="-49.4819" y2="-405.655" gradientUnits="userSpaceOnUse">
<stop stop-color="#B0FF09"/>
<stop offset="1" stop-color="#05B8F1"/>
</linearGradient>
<linearGradient id="paint14_linear_3923_1825" x1="-405.281" y1="441.858" x2="-91.7859" y2="-372.382" gradientUnits="userSpaceOnUse">
<stop stop-color="#B0FF09"/>
<stop offset="1" stop-color="#05B8F1"/>
</linearGradient>
<linearGradient id="paint15_linear_3923_1825" x1="-403.055" y1="485.564" x2="-133.005" y2="-337.55" gradientUnits="userSpaceOnUse">
<stop stop-color="#B0FF09"/>
<stop offset="1" stop-color="#05B8F1"/>
</linearGradient>
<linearGradient id="paint16_linear_3923_1825" x1="-399.603" y1="528.441" x2="-173.064" y2="-301.235" gradientUnits="userSpaceOnUse">
<stop stop-color="#B0FF09"/>
<stop offset="1" stop-color="#05B8F1"/>
</linearGradient>
<linearGradient id="paint17_linear_3923_1825" x1="-394.988" y1="570.432" x2="-211.904" y2="-263.512" gradientUnits="userSpaceOnUse">
<stop stop-color="#B0FF09"/>
<stop offset="1" stop-color="#05B8F1"/>
</linearGradient>
<linearGradient id="paint18_linear_3923_1825" x1="-389.272" y1="611.484" x2="-249.465" y2="-224.458" gradientUnits="userSpaceOnUse">
<stop stop-color="#B0FF09"/>
<stop offset="1" stop-color="#05B8F1"/>
</linearGradient>
<linearGradient id="paint19_linear_3923_1825" x1="-382.516" y1="651.545" x2="-285.691" y2="-184.154" gradientUnits="userSpaceOnUse">
<stop stop-color="#B0FF09"/>
<stop offset="1" stop-color="#05B8F1"/>
</linearGradient>
<linearGradient id="paint20_linear_3923_1825" x1="-374.784" y1="690.563" x2="-320.529" y2="-142.69" gradientUnits="userSpaceOnUse">
<stop stop-color="#B0FF09"/>
<stop offset="1" stop-color="#05B8F1"/>
</linearGradient>
<linearGradient id="paint21_linear_3923_1825" x1="-366.149" y1="728.499" x2="-353.94" y2="-100.145" gradientUnits="userSpaceOnUse">
<stop stop-color="#B0FF09"/>
<stop offset="1" stop-color="#05B8F1"/>
</linearGradient>
<linearGradient id="paint22_linear_3923_1825" x1="-356.678" y1="765.322" x2="-385.881" y2="-56.5994" gradientUnits="userSpaceOnUse">
<stop stop-color="#B0FF09"/>
<stop offset="1" stop-color="#05B8F1"/>
</linearGradient>
<linearGradient id="paint23_linear_3923_1825" x1="-346.442" y1="800.983" x2="-416.317" y2="-12.1549" gradientUnits="userSpaceOnUse">
<stop stop-color="#B0FF09"/>
<stop offset="1" stop-color="#05B8F1"/>
</linearGradient>
<linearGradient id="paint24_linear_3923_1825" x1="-335.52" y1="835.46" x2="-445.226" y2="33.1077" gradientUnits="userSpaceOnUse">
<stop stop-color="#B0FF09"/>
<stop offset="1" stop-color="#05B8F1"/>
</linearGradient>
<linearGradient id="paint25_linear_3923_1825" x1="-323.973" y1="868.731" x2="-472.569" y2="79.1022" gradientUnits="userSpaceOnUse">
<stop stop-color="#B0FF09"/>
<stop offset="1" stop-color="#05B8F1"/>
</linearGradient>
<linearGradient id="paint26_linear_3923_1825" x1="-311.888" y1="900.768" x2="-498.341" y2="125.733" gradientUnits="userSpaceOnUse">
<stop stop-color="#B0FF09"/>
<stop offset="1" stop-color="#05B8F1"/>
</linearGradient>
<linearGradient id="paint27_linear_3923_1825" x1="-299.33" y1="931.556" x2="-522.516" y2="172.911" gradientUnits="userSpaceOnUse">
<stop stop-color="#B0FF09"/>
<stop offset="1" stop-color="#05B8F1"/>
</linearGradient>
<linearGradient id="paint28_linear_3923_1825" x1="-286.38" y1="961.087" x2="-545.092" y2="220.551" gradientUnits="userSpaceOnUse">
<stop stop-color="#B0FF09"/>
<stop offset="1" stop-color="#05B8F1"/>
</linearGradient>
<linearGradient id="paint29_linear_3923_1825" x1="-273.115" y1="989.351" x2="-566.067" y2="268.563" gradientUnits="userSpaceOnUse">
<stop stop-color="#B0FF09"/>
<stop offset="1" stop-color="#05B8F1"/>
</linearGradient>
<linearGradient id="paint30_linear_3923_1825" x1="-259.602" y1="1016.34" x2="-585.432" y2="316.854" gradientUnits="userSpaceOnUse">
<stop stop-color="#B0FF09"/>
<stop offset="1" stop-color="#05B8F1"/>
</linearGradient>
<linearGradient id="paint31_linear_3923_1825" x1="-245.924" y1="1042.06" x2="-603.201" y2="365.338" gradientUnits="userSpaceOnUse">
<stop stop-color="#B0FF09"/>
<stop offset="1" stop-color="#05B8F1"/>
</linearGradient>
<linearGradient id="paint32_linear_3923_1825" x1="-232.146" y1="1066.52" x2="-619.376" y2="413.94" gradientUnits="userSpaceOnUse">
<stop stop-color="#B0FF09"/>
<stop offset="1" stop-color="#05B8F1"/>
</linearGradient>
<linearGradient id="paint33_linear_3923_1825" x1="-218.345" y1="1089.72" x2="-633.976" y2="462.562" gradientUnits="userSpaceOnUse">
<stop stop-color="#B0FF09"/>
<stop offset="1" stop-color="#05B8F1"/>
</linearGradient>
<linearGradient id="paint34_linear_3923_1825" x1="-204.596" y1="1111.67" x2="-647.024" y2="511.123" gradientUnits="userSpaceOnUse">
<stop stop-color="#B0FF09"/>
<stop offset="1" stop-color="#05B8F1"/>
</linearGradient>
<linearGradient id="paint35_linear_3923_1825" x1="-190.96" y1="1132.41" x2="-658.533" y2="559.55" gradientUnits="userSpaceOnUse">
<stop stop-color="#B0FF09"/>
<stop offset="1" stop-color="#05B8F1"/>
</linearGradient>
<linearGradient id="paint36_linear_3923_1825" x1="-177.512" y1="1151.94" x2="-668.538" y2="607.764" gradientUnits="userSpaceOnUse">
<stop stop-color="#B0FF09"/>
<stop offset="1" stop-color="#05B8F1"/>
</linearGradient>
<linearGradient id="paint37_linear_3923_1825" x1="-164.318" y1="1170.29" x2="-677.07" y2="655.674" gradientUnits="userSpaceOnUse">
<stop stop-color="#B0FF09"/>
<stop offset="1" stop-color="#05B8F1"/>
</linearGradient>
<linearGradient id="paint38_linear_3923_1825" x1="-151.438" y1="1187.49" x2="-684.16" y2="703.228" gradientUnits="userSpaceOnUse">
<stop stop-color="#B0FF09"/>
<stop offset="1" stop-color="#05B8F1"/>
</linearGradient>
<linearGradient id="paint39_linear_3923_1825" x1="-138.935" y1="1203.57" x2="-689.846" y2="750.339" gradientUnits="userSpaceOnUse">
<stop stop-color="#B0FF09"/>
<stop offset="1" stop-color="#05B8F1"/>
</linearGradient>
<linearGradient id="paint40_linear_3923_1825" x1="-126.863" y1="1218.57" x2="-694.167" y2="796.949" gradientUnits="userSpaceOnUse">
<stop stop-color="#B0FF09"/>
<stop offset="1" stop-color="#05B8F1"/>
</linearGradient>
<linearGradient id="paint41_linear_3923_1825" x1="-115.29" y1="1232.53" x2="-697.179" y2="842.989" gradientUnits="userSpaceOnUse">
<stop stop-color="#B0FF09"/>
<stop offset="1" stop-color="#05B8F1"/>
</linearGradient>
<linearGradient id="paint42_linear_3923_1825" x1="-104.259" y1="1245.48" x2="-698.919" y2="888.398" gradientUnits="userSpaceOnUse">
<stop stop-color="#B0FF09"/>
<stop offset="1" stop-color="#05B8F1"/>
</linearGradient>
<linearGradient id="paint43_linear_3923_1825" x1="-93.8283" y1="1257.47" x2="-699.445" y2="933.119" gradientUnits="userSpaceOnUse">
<stop stop-color="#B0FF09"/>
<stop offset="1" stop-color="#05B8F1"/>
</linearGradient>
<linearGradient id="paint44_linear_3923_1825" x1="-84.0456" y1="1268.56" x2="-698.81" y2="977.098" gradientUnits="userSpaceOnUse">
<stop stop-color="#B0FF09"/>
<stop offset="1" stop-color="#05B8F1"/>
</linearGradient>
<linearGradient id="paint45_linear_3923_1825" x1="-74.9445" y1="1278.77" x2="-697.06" y2="1020.28" gradientUnits="userSpaceOnUse">
<stop stop-color="#B0FF09"/>
<stop offset="1" stop-color="#05B8F1"/>
</linearGradient>
<linearGradient id="paint46_linear_3923_1825" x1="-66.5794" y1="1288.18" x2="-694.265" y2="1062.62" gradientUnits="userSpaceOnUse">
<stop stop-color="#B0FF09"/>
<stop offset="1" stop-color="#05B8F1"/>
</linearGradient>
<linearGradient id="paint47_linear_3923_1825" x1="-58.9789" y1="1296.82" x2="-690.477" y2="1104.08" gradientUnits="userSpaceOnUse">
<stop stop-color="#B0FF09"/>
<stop offset="1" stop-color="#05B8F1"/>
</linearGradient>
<linearGradient id="paint48_linear_3923_1825" x1="-52.1845" y1="1304.76" x2="-685.763" y2="1144.6" gradientUnits="userSpaceOnUse">
<stop stop-color="#B0FF09"/>
<stop offset="1" stop-color="#05B8F1"/>
</linearGradient>
<linearGradient id="paint49_linear_3923_1825" x1="-46.2154" y1="1312.05" x2="-680.175" y2="1184.17" gradientUnits="userSpaceOnUse">
<stop stop-color="#B0FF09"/>
<stop offset="1" stop-color="#05B8F1"/>
</linearGradient>
<linearGradient id="paint50_linear_3923_1825" x1="-41.1113" y1="1318.75" x2="-673.79" y2="1222.75" gradientUnits="userSpaceOnUse">
<stop stop-color="#B0FF09"/>
<stop offset="1" stop-color="#05B8F1"/>
</linearGradient>
<linearGradient id="paint51_linear_3923_1825" x1="-36.8896" y1="1324.91" x2="-666.667" y2="1260.31" gradientUnits="userSpaceOnUse">
<stop stop-color="#B0FF09"/>
<stop offset="1" stop-color="#05B8F1"/>
</linearGradient>
<linearGradient id="paint52_linear_3923_1825" x1="-33.572" y1="1330.59" x2="-658.874" y2="1296.81" gradientUnits="userSpaceOnUse">
<stop stop-color="#B0FF09"/>
<stop offset="1" stop-color="#05B8F1"/>
</linearGradient>
<linearGradient id="paint53_linear_3923_1825" x1="-31.1657" y1="1335.87" x2="-650.468" y2="1332.25" gradientUnits="userSpaceOnUse">
<stop stop-color="#B0FF09"/>
<stop offset="1" stop-color="#05B8F1"/>
</linearGradient>
<linearGradient id="paint54_linear_3923_1825" x1="-29.6937" y1="1340.78" x2="-641.526" y2="1366.61" gradientUnits="userSpaceOnUse">
<stop stop-color="#B0FF09"/>
<stop offset="1" stop-color="#05B8F1"/>
</linearGradient>
<linearGradient id="paint55_linear_3923_1825" x1="-29.1564" y1="1345.4" x2="-632.107" y2="1399.88" gradientUnits="userSpaceOnUse">
<stop stop-color="#B0FF09"/>
<stop offset="1" stop-color="#05B8F1"/>
</linearGradient>
<linearGradient id="paint56_linear_3923_1825" x1="-29.5659" y1="1349.78" x2="-622.284" y2="1432.04" gradientUnits="userSpaceOnUse">
<stop stop-color="#B0FF09"/>
<stop offset="1" stop-color="#05B8F1"/>
</linearGradient>
<linearGradient id="paint57_linear_3923_1825" x1="-30.9152" y1="1353.98" x2="-612.116" y2="1463.08" gradientUnits="userSpaceOnUse">
<stop stop-color="#B0FF09"/>
<stop offset="1" stop-color="#05B8F1"/>
</linearGradient>
<linearGradient id="paint58_linear_3923_1825" x1="-33.2051" y1="1358.07" x2="-601.671" y2="1493.03" gradientUnits="userSpaceOnUse">
<stop stop-color="#B0FF09"/>
<stop offset="1" stop-color="#05B8F1"/>
</linearGradient>
<linearGradient id="paint59_linear_3923_1825" x1="-36.4367" y1="1362.09" x2="-591.02" y2="1521.85" gradientUnits="userSpaceOnUse">
<stop stop-color="#B0FF09"/>
<stop offset="1" stop-color="#05B8F1"/>
</linearGradient>
<linearGradient id="paint60_linear_3923_1825" x1="-40.5871" y1="1366.11" x2="-580.215" y2="1549.59" gradientUnits="userSpaceOnUse">
<stop stop-color="#B0FF09"/>
<stop offset="1" stop-color="#05B8F1"/>
</linearGradient>
<linearGradient id="paint61_linear_3923_1825" x1="-45.6491" y1="1370.19" x2="-569.323" y2="1576.23" gradientUnits="userSpaceOnUse">
<stop stop-color="#B0FF09"/>
<stop offset="1" stop-color="#05B8F1"/>
</linearGradient>
<linearGradient id="paint62_linear_3923_1825" x1="-51.6111" y1="1374.37" x2="-558.409" y2="1601.78" gradientUnits="userSpaceOnUse">
<stop stop-color="#B0FF09"/>
<stop offset="1" stop-color="#05B8F1"/>
</linearGradient>
<linearGradient id="paint63_linear_3923_1825" x1="-58.4496" y1="1378.7" x2="-547.53" y2="1626.26" gradientUnits="userSpaceOnUse">
<stop stop-color="#B0FF09"/>
<stop offset="1" stop-color="#05B8F1"/>
</linearGradient>
</defs>
</svg>
