<svg width="64" height="64" viewBox="0 0 64 64" fill="none" xmlns="http://www.w3.org/2000/svg">
<g clip-path="url(#clip0_3515_1439)">
<path d="M38.6138 0H53.5L32.8862 30.6356H18L38.6138 0Z" fill="url(#paint0_linear_3515_1439)"/>
<path d="M28.6138 33.0001L44.6138 33L24 63.6356L8 63.6356L28.6138 33.0001Z" fill="url(#paint1_linear_3515_1439)"/>
<path d="M55.4925 38.6959C59.6015 38.6959 61.7801 40.2954 61.7801 43.715C61.7801 46.0591 60.3461 47.5207 58.2226 47.9619V48.348C60.6494 48.6789 62.4419 49.8647 62.4419 52.8431C62.4419 56.2902 60.0151 58 55.8234 58H45.151V38.6959H55.4925ZM50.2528 53.8634H54.9134C56.5404 53.8634 57.2574 53.367 57.2574 52.0157C57.2574 50.6369 56.5404 50.1405 55.134 50.1405H50.2528V53.8634ZM50.2528 46.39H54.4445C55.9337 46.39 56.5956 45.8936 56.5956 44.5699C56.5956 43.3289 55.9889 42.8325 54.5824 42.8325H50.2528V46.39Z" fill="white"/>
<path d="M12.5476 2.78969C16.4084 2.78969 19.2489 4.63737 19.2489 8.38787C19.2489 11.0904 17.7322 12.7175 15.3054 13.269V13.6551C16.7118 14.1239 17.5943 15.3925 18.6422 17.7917L20.6829 22.0938H14.9469L12.0788 15.4201H7.25281V22.0938H2.15102V2.78969H12.5476ZM7.25281 11.5868H11.8031C13.1819 11.5868 14.0644 11.0077 14.0644 9.27034C14.0644 7.64328 13.1819 7.06416 11.8031 7.06416H7.25281V11.5868Z" fill="white"/>
</g>
<defs>
<linearGradient id="paint0_linear_3515_1439" x1="36.3423" y1="-1.48346" x2="63.4672" y2="27.6827" gradientUnits="userSpaceOnUse">
<stop stop-color="#B0FF09"/>
<stop offset="1" stop-color="#05B8F1"/>
</linearGradient>
<linearGradient id="paint1_linear_3515_1439" x1="26.9178" y1="31.5165" x2="53.9693" y2="61.5163" gradientUnits="userSpaceOnUse">
<stop stop-color="#B0FF09"/>
<stop offset="1" stop-color="#05B8F1"/>
</linearGradient>
<clipPath id="clip0_3515_1439">
<rect width="64" height="64" fill="white"/>
</clipPath>
</defs>
</svg>
