<svg width="917" height="1903" viewBox="0 0 917 1903" fill="none" xmlns="http://www.w3.org/2000/svg">
<g opacity="0.4">
<path opacity="0.0144928" d="M1150.8 36.3598C1151.85 26.2351 1146.07 16.6379 1136.63 12.8265L854.765 -100.996C849.184 -103.25 842.938 -103.209 837.386 -100.883L436.057 67.2964C431.691 69.1261 428.001 72.2673 425.498 76.2855L224.001 399.765C219.462 407.051 219.392 416.266 223.819 423.62L360.531 650.735C364.958 658.089 373.134 662.341 381.696 661.74L761.867 635.085C766.589 634.754 771.092 632.964 774.753 629.962L1111.22 354.026C1115.87 350.209 1118.83 344.709 1119.45 338.721L1150.8 36.3598Z" stroke="url(#paint0_linear_3923_1896)"/>
<path opacity="0.0289855" d="M1167.43 81.2179C1168.98 71.1863 1163.73 61.3305 1154.54 57.0271L881.194 -70.9081C875.734 -73.4636 869.485 -73.7568 863.81 -71.7238L457.923 73.6771C453.453 75.2784 449.593 78.2332 446.88 82.1302L231.026 392.222C226.129 399.258 225.583 408.443 229.614 416.009L353.511 648.577C357.541 656.143 365.469 660.814 374.04 660.675L751.813 654.521C756.561 654.443 761.166 652.888 764.989 650.072L1112.09 394.328C1116.95 390.752 1120.19 385.403 1121.11 379.446L1167.43 81.2179Z" stroke="url(#paint1_linear_3923_1896)"/>
<path opacity="0.0434783" d="M1182.57 126.274C1184.63 116.361 1179.91 106.276 1170.99 101.496L906.865 -39.9733C901.543 -42.824 895.309 -43.4513 889.525 -41.7183L480.356 80.8923C475.793 82.2594 471.773 85.0186 468.856 88.7839L239.488 384.878C234.245 391.646 233.227 400.778 236.852 408.534L347.74 645.839C351.364 653.595 359.022 658.673 367.577 658.994L741.856 673.015C746.615 673.193 751.312 671.879 755.287 669.257L1111.85 434.057C1116.89 430.732 1120.4 425.548 1121.63 419.636L1182.57 126.274Z" stroke="url(#paint2_linear_3923_1896)"/>
<path opacity="0.057971" d="M1196.23 171.447C1198.78 161.678 1194.62 151.393 1185.99 146.152L931.744 -8.23719C926.576 -11.3756 920.374 -12.3366 914.499 -10.9094L503.309 88.9696C498.667 90.0972 494.495 92.6524 491.381 96.2752L249.365 377.813C243.792 384.297 242.306 393.35 245.515 401.274L343.241 642.597C346.45 650.522 353.816 655.991 362.33 656.769L732.049 690.581C736.806 691.017 741.581 689.949 745.7 687.528L1110.52 473.156C1115.74 470.093 1119.52 465.087 1121.05 459.237L1196.23 171.447Z" stroke="url(#paint3_linear_3923_1896)"/>
<path opacity="0.0724638" d="M1208.42 216.653C1211.46 207.053 1207.85 196.598 1199.54 190.915L955.8 24.2495C950.801 20.8313 944.65 19.5383 938.698 20.6548L526.737 97.93C522.027 98.8135 517.713 101.156 514.408 104.627L260.633 371.102C254.745 377.284 252.797 386.235 255.583 394.306L340.031 638.924C342.817 646.995 349.872 652.837 358.32 654.071L722.442 707.234C727.184 707.926 732.024 707.11 736.276 704.899L1108.17 511.57C1113.55 508.776 1117.59 503.964 1119.41 498.19L1208.42 216.653Z" stroke="url(#paint4_linear_3923_1896)"/>
<path opacity="0.0869565" d="M1219.15 261.818C1222.65 252.411 1219.61 241.816 1211.64 235.71L978.987 57.4425C974.173 53.7536 968.089 52.131 962.077 52.9327L550.573 107.8C545.808 108.435 541.364 110.558 537.876 113.867L273.246 364.824C267.06 370.691 264.656 379.515 267.013 387.709L338.107 634.899C340.464 643.093 347.189 649.292 355.547 650.976L713.068 722.996C717.781 723.946 722.674 723.384 727.049 721.39L1104.82 549.252C1110.34 546.738 1114.64 542.131 1116.75 536.448L1219.15 261.818Z" stroke="url(#paint5_linear_3923_1896)"/>
<path opacity="0.101449" d="M1228.44 306.849C1232.4 297.658 1229.92 286.954 1222.32 280.445L1001.29 91.2767C996.678 87.3269 990.68 85.3782 984.624 85.8616L574.785 118.582C569.977 118.966 565.414 120.863 561.75 123.999L287.187 359.038C280.719 364.575 277.868 373.25 279.79 381.544L337.494 630.584C339.416 638.878 345.792 645.415 354.036 647.543L703.991 737.875C708.661 739.08 713.593 738.776 718.08 737.006L1100.54 586.142C1106.2 583.913 1110.73 579.525 1113.13 573.948L1228.44 306.849Z" stroke="url(#paint6_linear_3923_1896)"/>
<path opacity="0.115942" d="M1236.3 351.685C1240.71 342.733 1238.8 331.951 1231.58 325.06L1022.68 125.717C1018.28 121.516 1012.38 119.246 1006.3 119.409L599.304 130.31C594.467 130.44 589.796 132.102 585.964 135.058L302.401 353.831C295.67 359.025 292.38 367.527 293.863 375.899L338.181 626.068C339.664 634.44 345.674 641.294 353.78 643.859L695.24 751.909C699.854 753.369 704.812 753.326 709.4 751.785L1095.37 622.211C1101.14 620.275 1105.9 616.117 1108.59 610.66L1236.3 351.685Z" stroke="url(#paint7_linear_3923_1896)"/>
<path opacity="0.130435" d="M1242.77 396.234C1247.62 387.542 1246.28 376.712 1239.46 369.462L1043.13 160.691C1038.96 156.252 1033.18 153.665 1027.09 153.505L624.089 142.975C619.235 142.848 614.467 144.271 610.478 147.038L318.855 349.251C311.879 354.089 308.161 362.396 309.203 370.822L340.174 621.408C341.216 629.833 346.844 636.985 354.788 639.979L686.868 765.105C691.412 766.817 696.382 767.036 701.059 765.732L1089.37 657.398C1095.24 655.76 1100.21 651.845 1103.18 646.523L1242.77 396.234Z" stroke="url(#paint8_linear_3923_1896)"/>
<path opacity="0.144928" d="M1247.86 440.432C1253.13 432.022 1252.36 421.175 1245.97 413.59L1062.62 196.157C1058.69 191.491 1053.05 188.594 1046.97 188.112L649.075 156.598C644.219 156.213 639.367 157.392 635.228 159.961L336.494 345.374C329.292 349.844 325.158 357.935 325.756 366.391L343.459 616.687C344.058 625.143 349.289 632.571 357.049 635.983L678.906 777.502C683.366 779.463 688.336 779.946 693.09 778.882L1082.58 691.676C1088.54 690.343 1093.71 686.681 1096.95 681.507L1247.86 440.432Z" stroke="url(#paint9_linear_3923_1896)"/>
<path opacity="0.15942" d="M1251.63 484.202C1257.29 476.093 1257.1 465.26 1251.14 457.364L1081.14 232.052C1077.46 227.172 1071.98 223.972 1065.92 223.167L674.218 171.177C669.372 170.534 664.448 171.462 660.169 173.826L355.275 342.251C347.866 346.343 343.328 354.197 343.483 362.66L348.034 611.97C348.189 620.432 353.01 628.115 360.563 631.935L671.401 789.12C675.763 791.326 680.718 792.074 685.537 791.254L1075.08 725.003C1081.1 723.978 1086.47 720.579 1089.97 715.568L1251.63 484.202Z" stroke="url(#paint10_linear_3923_1896)"/>
<path opacity="0.173913" d="M1254.09 527.476C1260.14 519.689 1260.51 508.899 1255 500.717L1098.67 268.324C1095.26 263.243 1089.94 259.747 1083.92 258.622L699.459 186.716C694.637 185.814 689.654 186.489 685.245 188.64L375.141 339.943C367.546 343.648 362.618 351.245 362.33 359.691L353.88 607.329C353.592 615.774 357.991 623.689 365.316 627.904L664.385 799.992C668.637 802.439 673.563 803.451 678.435 802.88L1066.91 757.347C1072.99 756.634 1078.53 753.509 1082.28 748.673L1254.09 527.476Z" stroke="url(#paint11_linear_3923_1896)"/>
<path opacity="0.188406" d="M1255.3 570.19C1261.71 562.742 1262.64 552.026 1257.6 543.585L1115.21 304.918C1112.06 299.651 1106.94 295.869 1100.97 294.424L724.747 203.216C719.963 202.057 714.933 202.474 710.405 204.405L396.038 338.505C388.278 341.815 382.974 349.134 382.245 357.54L360.983 602.834C360.254 611.24 364.219 619.363 371.294 623.959L657.897 810.153C662.025 812.834 666.909 814.111 671.821 813.791L1058.13 788.683C1064.25 788.285 1069.95 785.442 1073.96 780.794L1255.3 570.19Z" stroke="url(#paint12_linear_3923_1896)"/>
<path opacity="0.202899" d="M1255.29 612.278C1262.05 605.185 1263.53 594.573 1258.98 585.899L1130.74 341.776C1127.88 336.337 1122.95 332.278 1117.07 330.517L750.033 220.671C745.3 219.255 740.235 219.411 735.599 221.116L417.912 337.983C410.006 340.891 404.343 347.915 403.177 356.257L369.322 598.55C368.157 606.892 371.678 615.199 378.484 620.163L651.971 819.631C655.962 822.543 660.79 824.081 665.73 824.016L1048.82 818.982C1054.96 818.901 1060.81 816.349 1065.05 811.901L1255.29 612.278Z" stroke="url(#paint13_linear_3923_1896)"/>
<path opacity="0.217391" d="M1254.12 653.677C1261.2 646.957 1263.23 636.476 1259.16 627.598L1145.26 378.841C1142.7 373.245 1137.98 368.921 1132.19 366.846L775.256 239.073C770.588 237.402 765.503 237.295 760.769 238.769L440.694 338.422C432.664 340.922 426.658 347.633 425.06 355.889L378.869 594.54C377.271 602.796 380.339 611.263 386.856 616.579L646.633 828.463C650.475 831.597 655.233 833.395 660.188 833.586L1039.02 848.221C1045.17 848.458 1051.15 846.204 1055.62 841.968L1254.12 653.677Z" stroke="url(#paint14_linear_3923_1896)"/>
<path opacity="0.231884" d="M1251.83 694.333C1259.21 688 1261.78 677.679 1258.21 668.624L1158.77 416.059C1156.51 410.323 1152.03 405.743 1146.34 403.361L800.373 258.413C795.783 256.49 790.691 256.119 785.871 257.356L464.329 339.867C456.197 341.954 449.865 348.335 447.841 356.483L389.601 590.869C387.576 599.017 390.185 607.619 396.395 613.269L641.92 836.685C645.6 840.034 650.274 842.089 655.23 842.538L1028.81 876.383C1034.95 876.939 1041.05 874.99 1045.73 870.978L1251.83 694.333Z" stroke="url(#paint15_linear_3923_1896)"/>
<path opacity="0.246377" d="M1248.47 734.187C1256.14 728.254 1259.23 718.123 1256.17 708.919L1171.27 453.372C1169.32 447.512 1165.09 442.689 1159.53 440.005L825.327 278.677C820.829 276.505 815.742 275.868 810.847 276.864L488.748 342.353C480.535 344.023 473.896 350.057 471.452 358.075L401.481 587.595C399.037 595.612 401.18 604.324 407.065 610.292L637.851 844.332C641.358 847.888 645.935 850.197 650.88 850.905L1018.24 903.452C1024.35 904.326 1030.56 902.688 1035.45 898.91L1248.47 734.187Z" stroke="url(#paint16_linear_3923_1896)"/>
<path opacity="0.26087" d="M1244.1 773.193C1252.04 767.673 1255.64 757.756 1253.09 748.432L1182.77 490.729C1181.14 484.761 1177.16 479.708 1171.74 476.728L850.073 299.851C845.679 297.435 840.613 296.532 835.655 297.282L513.889 345.916C505.616 347.167 498.689 352.84 495.834 360.705L414.48 584.779C411.625 592.643 413.298 601.439 418.842 607.706L634.457 851.445C637.78 855.201 642.246 857.759 647.166 858.724L1007.39 929.418C1013.46 930.61 1019.75 929.288 1024.83 925.754L1244.1 773.193Z" stroke="url(#paint17_linear_3923_1896)"/>
<path opacity="0.275362" d="M1238.79 811.303C1246.96 806.207 1251.06 796.532 1249.03 787.116L1193.28 528.076C1191.97 522.018 1188.26 516.749 1183 513.479L874.562 321.92C870.286 319.264 865.253 318.095 860.244 318.595L539.683 350.588C531.373 351.418 524.177 356.717 520.92 364.408L428.561 582.478C425.304 590.168 426.504 599.023 431.691 605.569L631.761 858.066C634.887 862.011 639.229 864.813 644.111 866.036L996.309 954.277C1002.32 955.783 1008.69 954.782 1013.94 951.503L1238.79 811.303Z" stroke="url(#paint18_linear_3923_1896)"/>
<path opacity="0.289855" d="M1232.58 848.474C1240.97 843.812 1245.55 834.404 1244.04 824.926L1202.8 565.361C1201.83 559.23 1198.4 553.759 1193.31 550.209L898.746 344.862C894.601 341.972 889.614 340.538 884.567 340.786L566.063 356.395C557.736 356.803 550.293 361.716 546.644 369.211L443.682 580.744C440.034 588.24 440.759 597.129 445.575 603.934L629.782 864.235C632.701 868.36 636.905 871.4 641.737 872.88L985.072 978.024C991.008 979.842 997.428 979.165 1002.85 976.149L1232.58 848.474Z" stroke="url(#paint19_linear_3923_1896)"/>
<path opacity="0.304348" d="M1225.54 884.661C1234.12 880.442 1239.16 871.325 1238.18 861.814L1211.35 602.527C1210.71 596.341 1207.58 590.683 1202.67 586.861L922.576 368.648C918.574 365.53 913.647 363.834 908.574 363.826L592.953 363.353C584.632 363.34 576.962 367.854 572.934 375.136L459.797 579.624C455.769 586.906 456.019 595.801 460.451 602.844L628.533 869.987C631.235 874.281 635.289 877.553 640.057 879.288L973.734 1000.65C979.579 1002.78 986.038 1002.43 991.619 999.685L1225.54 884.661Z" stroke="url(#paint20_linear_3923_1896)"/>
<path opacity="0.318841" d="M1217.74 919.832C1226.48 916.063 1231.97 907.26 1231.51 897.746L1218.95 639.528C1218.65 633.305 1215.82 627.475 1211.11 623.39L946.014 393.259C942.167 389.919 937.314 387.962 932.227 387.697L620.291 371.484C611.997 371.053 604.122 375.158 599.727 382.205L476.869 579.169C472.473 586.216 472.249 595.094 476.284 602.353L628.037 875.369C630.512 879.822 634.405 883.319 639.096 885.305L962.367 1022.17C968.105 1024.6 974.586 1024.58 980.308 1022.12L1217.74 919.832Z" stroke="url(#paint21_linear_3923_1896)"/>
<path opacity="0.333333" d="M1209.23 953.962C1218.12 950.65 1224.04 942.184 1224.1 932.695L1225.62 676.322C1225.65 670.079 1223.13 664.094 1218.64 659.758L969.012 418.673C965.333 415.12 960.567 412.904 955.479 412.382L648.003 380.809C639.757 379.962 631.699 383.65 626.95 390.444L494.845 579.431C490.096 586.225 489.4 595.059 493.028 602.512L628.305 880.431C630.543 885.03 634.261 888.745 638.862 890.98L951.029 1042.6C956.644 1045.33 963.131 1045.64 968.98 1043.46L1209.23 953.962Z" stroke="url(#paint22_linear_3923_1896)"/>
<path opacity="0.347826" d="M1200.09 987.011C1209.1 984.159 1215.42 976.051 1216 966.616L1231.36 712.846C1231.74 706.604 1229.54 700.479 1225.28 695.902L991.533 444.846C988.033 441.087 983.367 438.617 978.29 437.836L676.017 391.323C667.84 390.065 659.623 393.327 654.534 399.85L513.677 580.436C508.589 586.96 507.426 595.724 510.637 603.349L629.346 885.201C631.34 889.935 634.871 893.859 639.369 896.338L939.782 1061.93C945.259 1064.95 951.735 1065.59 957.697 1063.7L1200.09 987.011Z" stroke="url(#paint23_linear_3923_1896)"/>
<path opacity="0.362319" d="M1190.38 1018.96C1199.49 1016.57 1206.2 1008.84 1207.28 999.49L1236.23 749.065C1236.95 742.84 1235.08 736.594 1231.06 731.788L1013.54 471.756C1010.23 467.799 1005.68 465.079 1000.63 464.039L704.27 403.041C696.183 401.376 687.828 404.206 682.416 410.441L533.321 582.233C527.909 588.468 526.284 597.139 529.07 604.911L631.176 889.732C632.917 894.587 636.25 898.711 640.633 901.431L928.693 1080.18C934.017 1083.49 940.465 1084.46 946.526 1082.87L1190.38 1018.96Z" stroke="url(#paint24_linear_3923_1896)"/>
<path opacity="0.376812" d="M1180.17 1049.79C1189.35 1047.87 1196.42 1040.54 1198 1031.3L1240.22 784.935C1241.28 778.748 1239.75 772.396 1235.98 767.374L1034.99 499.37C1031.88 495.225 1027.46 492.26 1022.44 490.962L732.678 415.965C724.702 413.901 716.232 416.292 710.513 422.224L553.71 584.857C547.992 590.789 545.911 599.34 548.265 607.236L633.788 894.067C635.268 899.032 638.393 903.346 642.648 906.301L917.809 1097.38C922.965 1100.96 929.368 1102.26 935.513 1100.98L1180.17 1049.79Z" stroke="url(#paint25_linear_3923_1896)"/>
<path opacity="0.391304" d="M1169.53 1079.49C1178.76 1078.04 1186.17 1071.12 1188.24 1062.01L1243.39 820.41C1244.78 814.277 1243.59 807.839 1240.09 802.614L1055.85 527.648C1052.96 523.325 1048.67 520.12 1043.7 518.565L761.184 430.088C753.338 427.631 744.777 429.58 738.768 435.192L574.804 588.336C568.796 593.948 566.267 602.357 568.184 610.352L637.198 898.247C638.411 903.307 641.316 907.801 645.431 910.986L907.2 1113.54C912.175 1117.39 918.517 1119.02 924.73 1118.04L1169.53 1079.49Z" stroke="url(#paint26_linear_3923_1896)"/>
<path opacity="0.405797" d="M1158.52 1108.04C1167.77 1107.06 1175.5 1100.56 1178.06 1091.62L1245.74 855.449C1247.47 849.39 1246.63 842.884 1243.41 837.47L1076.09 556.552C1073.42 552.061 1069.28 548.624 1064.38 546.813L789.709 445.403C782.013 442.561 773.384 444.066 767.103 449.344L596.538 592.699C590.257 597.977 587.29 606.218 588.765 614.289L641.399 902.313C642.339 907.455 645.014 912.119 648.977 915.526L896.915 1128.68C901.693 1132.79 907.957 1134.74 914.224 1134.07L1158.52 1108.04Z" stroke="url(#paint27_linear_3923_1896)"/>
<path opacity="0.42029" d="M1147.22 1135.44C1156.46 1134.92 1164.48 1128.87 1167.52 1120.12L1247.32 890.018C1249.39 884.052 1248.89 877.496 1245.96 871.906L1095.68 586.048C1093.24 581.401 1089.27 577.737 1084.44 575.673L818.191 461.903C810.663 458.687 801.99 459.745 795.456 464.676L618.86 597.973C612.326 602.905 608.931 610.956 609.962 619.076L646.395 906.313C647.056 911.522 649.491 916.344 653.291 919.968L887.011 1142.84C891.581 1147.2 897.751 1149.47 904.056 1149.12L1147.22 1135.44Z" stroke="url(#paint28_linear_3923_1896)"/>
<path opacity="0.434783" d="M1135.69 1161.68C1144.91 1161.62 1153.19 1156.03 1156.69 1147.5L1248.16 924.081C1250.56 918.226 1250.42 911.638 1247.78 905.889L1114.6 616.095C1112.39 611.302 1108.6 607.419 1103.86 605.106L846.565 479.574C839.225 475.993 830.531 476.604 823.763 481.176L641.717 604.18C634.949 608.753 631.139 616.591 631.722 624.738L652.186 910.288C652.564 915.55 654.75 920.519 658.375 924.351L877.547 1156.05C881.895 1160.64 887.954 1163.23 894.281 1163.19L1135.69 1161.68Z" stroke="url(#paint29_linear_3923_1896)"/>
<path opacity="0.449275" d="M1124 1186.76C1133.17 1187.16 1141.69 1182.03 1145.63 1173.74L1248.3 957.598C1251.02 951.872 1251.24 945.272 1248.9 939.379L1132.8 646.647C1130.85 641.72 1127.24 637.626 1122.6 635.067L874.758 498.392C867.622 494.457 858.931 494.622 851.95 498.824L665.041 611.333C658.06 615.536 653.846 623.139 653.984 631.287L658.758 914.276C658.847 919.575 660.777 924.679 664.216 928.711L868.562 1168.32C872.676 1173.15 878.609 1176.04 884.943 1176.32L1124 1186.76Z" stroke="url(#paint30_linear_3923_1896)"/>
<path opacity="0.463768" d="M1112.23 1210.69C1121.32 1211.54 1130.05 1206.89 1134.42 1198.86L1247.77 990.541C1250.81 984.961 1251.38 978.368 1249.36 972.346L1150.28 677.661C1148.59 672.614 1145.18 668.317 1140.65 665.516L902.713 518.337C895.8 514.06 887.134 513.781 879.959 517.603L688.784 619.449C681.609 623.271 677.007 630.619 676.7 638.742L666.111 918.319C665.909 923.641 667.574 928.866 670.816 933.09L860.114 1179.71C863.982 1184.75 869.774 1187.95 876.099 1188.54L1112.23 1210.69Z" stroke="url(#paint31_linear_3923_1896)"/>
<path opacity="0.478261" d="M1100.42 1233.48C1109.42 1234.78 1118.34 1230.61 1123.12 1222.87L1246.61 1022.89C1249.96 1017.47 1250.89 1010.91 1249.18 1004.77L1167.01 709.106C1165.58 703.95 1162.38 699.461 1157.98 696.422L930.362 539.394C923.687 534.789 915.07 534.068 907.723 537.502L712.88 628.548C705.533 631.981 700.557 639.053 699.807 647.128L674.229 922.469C673.734 927.798 675.126 933.131 678.161 937.538L852.242 1190.26C855.853 1195.5 861.489 1199 867.789 1199.91L1100.42 1233.48Z" stroke="url(#paint32_linear_3923_1896)"/>
<path opacity="0.492754" d="M1088.65 1255.13C1097.54 1256.86 1106.61 1253.19 1111.78 1245.76L1244.86 1054.6C1248.51 1049.37 1249.8 1042.85 1248.42 1036.62L1182.98 740.923C1181.82 735.672 1178.84 730.999 1174.57 727.728L957.648 561.52C951.227 556.6 942.682 555.444 935.184 558.48L737.274 638.625C729.776 641.661 724.443 648.437 723.255 656.439L683.103 926.751C682.313 932.071 683.425 937.499 686.244 942.079L844.994 1199.99C848.337 1205.42 853.801 1209.21 860.061 1210.43L1088.65 1255.13Z" stroke="url(#paint33_linear_3923_1896)"/>
<path opacity="0.507246" d="M1076.99 1275.66C1085.74 1277.82 1094.94 1274.65 1100.48 1267.55L1242.57 1085.66C1246.5 1080.63 1248.15 1074.17 1247.1 1067.86L1198.17 773.069C1197.28 767.736 1194.54 762.89 1190.42 759.393L984.517 584.686C978.365 579.466 969.914 577.879 962.287 580.512L761.911 649.686C754.284 652.319 748.612 658.781 746.991 666.686L692.724 931.207C691.637 936.502 692.464 942.011 695.057 946.754L838.413 1208.95C841.479 1214.56 846.756 1218.63 852.961 1220.16L1076.99 1275.66Z" stroke="url(#paint34_linear_3923_1896)"/>
<path opacity="0.521739" d="M1065.49 1295.09C1074.08 1297.68 1083.38 1295 1089.28 1288.25L1239.76 1116.05C1243.98 1111.23 1245.97 1104.85 1245.26 1098.49L1212.56 805.504C1211.96 800.105 1209.45 795.097 1205.49 791.38L1010.91 608.864C1005.04 603.359 996.701 601.348 988.967 603.573L786.726 661.74C778.991 663.964 772.999 670.095 770.951 677.878L703.066 935.881C701.684 941.136 702.22 946.711 704.578 951.606L832.529 1217.19C835.31 1222.97 840.386 1227.3 846.52 1229.15L1065.49 1295.09Z" stroke="url(#paint35_linear_3923_1896)"/>
<path opacity="0.536232" d="M1054.22 1313.45C1062.63 1316.45 1072 1314.27 1078.23 1307.89L1236.49 1145.75C1240.98 1141.15 1243.32 1134.88 1242.95 1128.48L1226.15 838.184C1225.84 832.731 1223.58 827.572 1219.78 823.642L1036.77 634.016C1031.19 628.241 1023 625.815 1015.18 627.627L811.668 674.782C803.849 676.594 797.554 682.377 795.089 690.015L714.121 940.81C712.443 946.007 712.683 951.634 714.798 956.67L827.386 1224.77C829.871 1230.68 834.734 1235.28 840.781 1237.44L1054.22 1313.45Z" stroke="url(#paint36_linear_3923_1896)"/>
<path opacity="0.550725" d="M1043.24 1330.75C1051.44 1334.14 1060.86 1332.47 1067.4 1326.47L1232.8 1174.72C1237.54 1170.37 1240.23 1164.23 1240.2 1157.79L1238.93 871.046C1238.91 865.555 1236.91 860.257 1233.3 856.121L1062.05 660.086C1056.78 654.057 1048.75 651.226 1040.87 652.622L836.681 688.794C828.799 690.19 822.223 695.61 819.349 703.081L725.867 946.013C723.895 951.138 723.835 956.801 725.698 961.967L823.014 1231.7C825.197 1237.75 829.832 1242.6 835.779 1245.06L1043.24 1330.75Z" stroke="url(#paint37_linear_3923_1896)"/>
<path opacity="0.565217" d="M1032.6 1347.04C1040.58 1350.81 1050.02 1349.64 1056.84 1344.04L1228.73 1202.99C1233.71 1198.89 1236.74 1192.89 1237.05 1186.45L1250.9 904.065C1251.17 898.551 1249.43 893.125 1246.01 888.792L1086.7 687.051C1081.76 680.787 1073.9 677.56 1065.98 678.539L861.705 703.786C853.783 704.765 846.947 709.809 843.675 717.089L738.279 951.546C736.015 956.582 735.652 962.267 737.257 967.55L819.44 1238.06C821.314 1244.23 825.709 1249.32 831.539 1252.08L1032.6 1347.04Z" stroke="url(#paint38_linear_3923_1896)"/>
<path opacity="0.57971" d="M1022.35 1362.33C1030.09 1366.47 1039.52 1365.8 1046.61 1360.62L1224.32 1230.5C1229.54 1226.69 1232.89 1220.84 1233.55 1214.41L1262.05 937.18C1262.62 931.657 1261.15 926.117 1257.93 921.595L1110.69 714.852C1106.07 708.369 1098.41 704.757 1090.47 705.319L886.686 719.732C878.747 720.294 871.672 724.948 868.014 732.016L751.335 957.426C748.783 962.357 748.114 968.048 749.454 973.436L816.689 1243.9C818.248 1250.17 822.391 1255.48 828.09 1258.53L1022.35 1362.33Z" stroke="url(#paint39_linear_3923_1896)"/>
<path opacity="0.594203" d="M1012.55 1376.67C1020.03 1381.16 1029.43 1380.99 1036.75 1376.23L1219.62 1257.28C1225.05 1253.75 1228.72 1248.08 1229.73 1241.68L1272.37 970.352C1273.24 964.836 1272.06 959.194 1269.05 954.492L1133.95 743.448C1129.67 736.764 1122.23 732.781 1114.3 732.925L911.568 736.626C903.634 736.771 896.344 741.024 892.312 747.859L765.008 963.693C762.172 968.502 761.195 974.184 762.262 979.664L814.782 1249.26C816.021 1255.61 819.9 1261.15 825.454 1264.48L1012.55 1376.67Z" stroke="url(#paint40_linear_3923_1896)"/>
<path opacity="0.608696" d="M1003.25 1390.09C1010.46 1394.92 1019.79 1395.24 1027.32 1390.91L1214.67 1283.31C1220.3 1280.07 1224.29 1274.6 1225.64 1268.25L1281.89 1003.53C1283.06 998.038 1282.16 992.308 1279.37 987.435L1156.47 772.785C1152.54 765.919 1145.33 761.577 1137.43 761.307L936.309 754.445C928.403 754.175 920.919 758.017 916.529 764.598L779.281 970.372C776.165 975.043 774.879 980.699 775.669 986.259L813.749 1254.2C814.663 1260.62 818.267 1266.36 823.663 1269.97L1003.25 1390.09Z" stroke="url(#paint41_linear_3923_1896)"/>
<path opacity="0.623188" d="M994.483 1402.64C1001.41 1407.78 1010.65 1408.59 1018.36 1404.71L1209.52 1308.58C1215.33 1305.65 1219.62 1300.39 1221.31 1294.11L1290.6 1036.67C1292.07 1031.22 1291.46 1025.42 1288.9 1020.38L1178.19 802.814C1174.62 795.785 1167.67 791.098 1159.81 790.417L960.85 773.171C952.993 772.489 945.34 775.91 940.608 782.219L794.117 977.492C790.727 982.01 789.132 987.624 789.639 993.25L813.596 1258.77C814.181 1265.25 817.501 1271.17 822.724 1275.05L994.483 1402.64Z" stroke="url(#paint42_linear_3923_1896)"/>
<path opacity="0.637681" d="M986.312 1414.35C992.941 1419.8 1002.06 1421.07 1009.93 1417.65L1204.2 1333.09C1210.18 1330.49 1214.76 1325.46 1216.79 1319.26L1298.51 1069.74C1300.27 1064.34 1299.97 1058.47 1297.64 1053.29L1199.1 833.481C1195.89 826.308 1189.21 821.292 1181.42 820.204L985.149 792.78C977.363 791.692 969.565 794.684 964.506 800.702L809.494 985.079C805.837 989.429 803.933 994.985 804.154 1000.66L814.345 1263.03C814.598 1269.54 817.624 1275.64 822.661 1279.78L986.312 1414.35Z" stroke="url(#paint43_linear_3923_1896)"/>
<path opacity="0.652174" d="M978.773 1425.26C985.087 1431 994.071 1432.74 1002.07 1429.77L1198.77 1356.85C1204.9 1354.58 1209.76 1349.79 1212.12 1343.7L1305.63 1102.67C1307.7 1097.34 1307.69 1091.43 1305.61 1086.11L1219.17 864.732C1216.32 857.433 1209.93 852.105 1202.23 850.616L1009.16 813.246C1001.47 811.757 993.549 814.315 988.181 820.024L825.384 993.158C821.467 997.324 819.255 1002.81 819.185 1008.52L816.004 1267.03C815.924 1273.56 818.648 1279.82 823.486 1284.22L978.773 1425.26Z" stroke="url(#paint44_linear_3923_1896)"/>
<path opacity="0.666667" d="M971.893 1435.43C977.88 1441.43 986.699 1443.63 994.799 1441.13L1193.26 1379.85C1199.52 1377.92 1204.64 1373.39 1207.34 1367.42L1311.97 1135.44C1314.33 1130.19 1314.63 1124.25 1312.8 1118.79L1238.36 896.505C1235.88 889.1 1229.79 883.475 1222.21 881.592L1032.83 834.536C1025.25 832.653 1017.23 834.772 1011.58 840.155L841.744 1001.75C837.576 1005.71 835.058 1011.1 834.693 1016.85L818.571 1270.82C818.156 1277.36 820.569 1283.76 825.196 1288.4L971.893 1435.43Z" stroke="url(#paint45_linear_3923_1896)"/>
<path opacity="0.681159" d="M965.72 1444.91C971.37 1451.16 980 1453.79 988.175 1451.76L1187.71 1402.12C1194.08 1400.53 1199.47 1396.28 1202.48 1390.44L1317.55 1168C1320.21 1162.85 1320.82 1156.89 1319.25 1151.32L1256.65 928.753C1254.55 921.262 1248.77 915.359 1241.33 913.09L1056.12 856.629C1048.68 854.36 1040.59 856.037 1034.67 861.079L858.556 1010.87C854.145 1014.62 851.324 1019.91 850.663 1025.66L822.063 1274.47C821.313 1281 823.407 1287.53 827.812 1292.4L965.72 1444.91Z" stroke="url(#paint46_linear_3923_1896)"/>
<path opacity="0.695652" d="M960.276 1453.74C965.579 1460.22 973.998 1463.27 982.22 1461.71L1182.17 1423.64C1188.64 1422.41 1194.26 1418.44 1197.59 1412.77L1322.38 1200.3C1325.34 1195.28 1326.25 1189.31 1324.95 1183.63L1274.04 961.413C1272.31 953.855 1266.86 947.692 1259.57 945.045L1079 879.487C1071.71 876.841 1063.58 878.073 1057.4 882.76L875.778 1020.55C871.135 1024.08 868.015 1029.24 867.055 1034.99L826.47 1278.03C825.385 1284.52 827.155 1291.16 831.326 1296.26L960.276 1453.74Z" stroke="url(#paint47_linear_3923_1896)"/>
<path opacity="0.710145" d="M955.598 1461.97C960.544 1468.66 968.731 1472.12 976.972 1471.03L1176.68 1444.43C1183.22 1443.56 1189.06 1439.9 1192.71 1434.4L1326.5 1232.31C1329.74 1227.42 1330.97 1221.47 1329.94 1215.7L1290.5 994.425C1289.14 986.82 1284.04 980.415 1276.92 977.402L1101.43 903.074C1094.31 900.061 1086.16 900.848 1079.75 905.166L893.385 1030.8C888.521 1034.08 885.105 1039.1 883.845 1044.83L831.797 1281.54C830.38 1287.99 831.82 1294.73 835.745 1300.03L955.598 1461.97Z" stroke="url(#paint48_linear_3923_1896)"/>
<path opacity="0.724638" d="M951.699 1469.66C956.281 1476.53 964.215 1480.39 972.448 1479.76L1171.26 1464.5C1177.86 1464 1183.91 1460.66 1187.85 1455.34L1329.91 1263.99C1333.43 1259.25 1334.98 1253.33 1334.22 1247.47L1306.02 1027.73C1305.04 1020.1 1300.28 1013.47 1293.36 1010.1L1123.35 927.354C1116.43 923.986 1108.28 924.329 1101.67 928.268L911.331 1041.63C906.257 1044.65 902.551 1049.52 900.99 1055.22L838.028 1285.07C836.28 1291.45 837.384 1298.27 841.055 1303.78L951.699 1469.66Z" stroke="url(#paint49_linear_3923_1896)"/>
<path opacity="0.73913" d="M948.614 1476.86C952.825 1483.9 960.486 1488.14 968.684 1487.97L1165.98 1483.88C1172.61 1483.74 1178.85 1480.73 1183.08 1475.63L1332.64 1295.31C1336.44 1290.73 1338.3 1284.85 1337.83 1278.93L1320.6 1061.28C1319.99 1053.64 1315.6 1046.81 1308.89 1043.1L1144.76 952.295C1138.06 948.584 1129.93 948.485 1123.14 952.033L929.595 1053.06C924.323 1055.81 920.333 1060.51 918.472 1066.16L845.165 1288.67C843.09 1294.97 843.855 1301.86 847.261 1307.55L948.614 1476.86Z" stroke="url(#paint50_linear_3923_1896)"/>
<path opacity="0.753623" d="M946.354 1483.63C950.19 1490.81 957.559 1495.41 965.695 1495.69L1160.85 1502.57C1167.49 1502.8 1173.91 1500.13 1178.42 1495.25L1334.73 1326.22C1338.79 1321.83 1340.97 1316.01 1340.79 1310.02L1334.23 1095.01C1334 1087.38 1329.97 1080.36 1323.49 1076.32L1165.62 977.852C1159.15 973.811 1151.08 973.274 1144.12 976.422L948.136 1065.1C942.68 1067.57 938.411 1072.08 936.25 1077.67L853.192 1292.39C850.794 1298.59 851.216 1305.52 854.348 1311.39L946.354 1483.63Z" stroke="url(#paint51_linear_3923_1896)"/>
<path opacity="0.768116" d="M944.937 1490C948.393 1497.31 955.453 1502.24 963.501 1502.98L1155.91 1520.59C1162.55 1521.19 1169.12 1518.87 1173.9 1514.23L1336.19 1356.69C1340.51 1352.49 1343.01 1346.75 1343.11 1340.72L1346.92 1128.85C1347.06 1121.24 1343.4 1114.07 1337.17 1109.72L1185.9 1003.98C1179.67 999.621 1171.68 998.652 1164.59 1001.39L966.922 1077.75C961.294 1079.93 956.756 1084.24 954.296 1089.75L862.095 1296.27C859.378 1302.36 859.455 1309.32 862.305 1315.35L944.937 1490Z" stroke="url(#paint52_linear_3923_1896)"/>
<path opacity="0.782609" d="M944.366 1496.06C947.439 1503.47 954.174 1508.73 962.109 1509.9L1151.2 1537.97C1157.81 1538.95 1164.52 1536.98 1169.56 1532.6L1337.05 1386.71C1341.63 1382.72 1344.43 1377.06 1344.83 1371L1358.66 1162.76C1359.16 1155.21 1355.89 1147.89 1349.92 1143.24L1205.58 1030.65C1199.61 1025.99 1191.72 1024.6 1184.51 1026.92L985.907 1091.04C980.124 1092.9 975.323 1097 972.567 1102.41L871.847 1300.38C868.818 1306.34 868.547 1313.32 871.108 1319.49L944.366 1496.06Z" stroke="url(#paint53_linear_3923_1896)"/>
<path opacity="0.797101" d="M944.659 1501.84C947.348 1509.33 953.744 1514.88 961.539 1516.49L1146.75 1554.71C1153.31 1556.07 1160.14 1554.47 1165.42 1550.35L1337.34 1416.21C1342.17 1412.45 1345.29 1406.9 1345.99 1400.82L1369.47 1196.67C1370.33 1189.18 1367.44 1181.75 1361.75 1176.81L1224.63 1057.8C1218.93 1052.86 1211.17 1051.05 1203.88 1052.96L1005.07 1104.94C999.145 1106.49 994.091 1110.35 991.041 1115.66L882.44 1304.76C879.104 1310.57 878.486 1317.55 880.749 1323.85L944.659 1501.84Z" stroke="url(#paint54_linear_3923_1896)"/>
<path opacity="0.811594" d="M945.813 1507.41C948.118 1514.96 954.16 1520.79 961.792 1522.81L1142.59 1570.86C1149.08 1572.58 1156 1571.36 1161.51 1567.53L1337.11 1445.2C1342.17 1441.67 1345.59 1436.25 1346.59 1430.16L1379.35 1230.53C1380.56 1223.13 1378.06 1215.6 1372.66 1210.39L1243.03 1085.41C1237.63 1080.2 1230.01 1077.98 1222.66 1079.46L1024.36 1119.48C1018.31 1120.7 1013.02 1124.32 1009.68 1129.51L893.84 1309.45C890.205 1315.1 889.24 1322.06 891.2 1328.48L945.813 1507.41Z" stroke="url(#paint55_linear_3923_1896)"/>
<path opacity="0.826087" d="M947.837 1512.81C949.758 1520.4 955.436 1526.48 962.879 1528.91L1138.75 1586.43C1145.15 1588.52 1152.15 1587.68 1157.87 1584.14L1336.38 1473.63C1341.67 1470.36 1345.39 1465.07 1346.69 1458.99L1388.32 1264.29C1389.88 1256.99 1387.77 1249.38 1382.67 1243.93L1260.78 1113.42C1255.68 1107.96 1248.24 1105.34 1240.84 1106.4L1043.76 1134.65C1037.61 1135.54 1032.08 1138.89 1028.45 1143.95L906.031 1314.51C902.105 1319.98 900.793 1326.9 902.445 1333.43L947.837 1512.81Z" stroke="url(#paint56_linear_3923_1896)"/>
<path opacity="0.84058" d="M950.721 1518.1C952.26 1525.71 957.562 1532.02 964.796 1534.85L1135.25 1601.44C1141.54 1603.9 1148.59 1603.45 1154.51 1600.21L1335.18 1501.49C1340.69 1498.48 1344.71 1493.34 1346.31 1487.28L1396.38 1297.89C1398.28 1290.7 1396.57 1283.04 1391.79 1277.35L1277.85 1141.78C1273.06 1136.09 1265.81 1133.09 1258.41 1133.72L1063.23 1150.46C1056.98 1150.99 1051.23 1154.07 1047.32 1158.98L918.976 1319.96C914.768 1325.24 913.11 1332.11 914.448 1338.73L950.721 1518.1Z" stroke="url(#paint57_linear_3923_1896)"/>
<path opacity="0.855072" d="M954.462 1523.34C955.623 1530.95 960.54 1537.46 967.542 1540.67L1132.12 1615.94C1138.27 1618.75 1145.36 1618.69 1151.47 1615.77L1333.56 1528.75C1339.26 1526.02 1343.58 1521.05 1345.49 1515.02L1403.58 1331.28C1405.81 1324.23 1404.48 1316.53 1400.03 1310.63L1294.23 1170.47C1289.78 1164.57 1282.74 1161.19 1275.35 1161.4L1082.72 1166.9C1076.4 1167.08 1070.44 1169.87 1066.25 1174.61L932.647 1325.87C928.166 1330.94 926.166 1337.74 927.186 1344.43L954.462 1523.34Z" stroke="url(#paint58_linear_3923_1896)"/>
<path opacity="0.869565" d="M959.06 1528.57C959.846 1536.16 964.371 1542.85 971.12 1546.42L1129.39 1629.93C1135.39 1633.09 1142.49 1633.43 1148.76 1630.84L1331.55 1555.38C1337.45 1552.95 1342.06 1548.16 1344.26 1542.18L1409.92 1364.4C1412.47 1357.5 1411.54 1349.79 1407.42 1343.7L1309.93 1199.41C1305.82 1193.32 1299.01 1189.58 1291.66 1189.37L1102.22 1183.95C1095.84 1183.77 1089.68 1186.26 1085.23 1190.82L947.018 1332.25C942.275 1337.11 939.936 1343.82 940.635 1350.57L959.06 1528.57Z" stroke="url(#paint59_linear_3923_1896)"/>
<path opacity="0.884058" d="M964.49 1533.85C964.906 1541.4 969.032 1548.26 975.509 1552.16L1127.07 1643.46C1132.9 1646.97 1139.99 1647.7 1146.41 1645.45L1329.19 1581.39C1335.26 1579.27 1340.15 1574.68 1342.66 1568.76L1415.43 1397.22C1418.29 1390.48 1417.75 1382.78 1413.98 1376.52L1324.93 1228.59C1321.16 1222.33 1314.61 1218.24 1307.32 1217.62L1121.67 1201.63C1115.26 1201.08 1108.92 1203.26 1104.2 1207.62L962.041 1339.17C957.047 1343.79 954.373 1350.4 954.748 1357.19L964.49 1533.85Z" stroke="url(#paint60_linear_3923_1896)"/>
<path opacity="0.898551" d="M970.742 1539.24C970.796 1546.73 974.518 1553.72 980.705 1557.94L1125.18 1656.55C1130.81 1660.4 1137.87 1661.53 1144.42 1659.62L1326.51 1606.75C1332.75 1604.94 1337.91 1600.57 1340.73 1594.72L1420.15 1429.68C1423.3 1423.12 1423.14 1415.46 1419.72 1409.04L1339.24 1257.95C1335.81 1251.53 1329.54 1247.12 1322.34 1246.09L1141.06 1219.92C1134.64 1219 1128.12 1220.85 1123.15 1225.01L977.684 1346.64C972.451 1351.01 969.448 1357.5 969.496 1364.32L970.742 1539.24Z" stroke="url(#paint61_linear_3923_1896)"/>
<path opacity="0.913043" d="M977.804 1544.76C977.502 1552.18 980.818 1559.27 986.698 1563.8L1123.75 1669.24C1129.17 1673.41 1136.17 1674.93 1142.83 1673.38L1323.57 1631.44C1329.95 1629.96 1335.38 1625.82 1338.5 1620.06L1424.09 1461.73C1427.53 1455.37 1427.76 1447.75 1424.69 1441.2L1352.85 1287.44C1349.78 1280.89 1343.8 1276.17 1336.71 1274.73L1160.35 1238.81C1153.93 1237.5 1147.26 1239.01 1142.04 1242.96L993.915 1354.69C988.454 1358.81 985.127 1365.16 984.848 1371.99L977.804 1544.76Z" stroke="url(#paint62_linear_3923_1896)"/>
<path opacity="0.927536" d="M985.651 1550.48C985.002 1557.79 987.91 1564.98 993.467 1569.78L1122.78 1681.54C1127.97 1686.02 1134.9 1687.94 1141.65 1686.76L1320.39 1655.46C1326.9 1654.32 1332.6 1650.41 1336.01 1644.75L1427.31 1493.34C1431.02 1487.18 1431.61 1479.64 1428.92 1472.97L1365.76 1317.02C1363.06 1310.36 1357.39 1305.35 1350.43 1303.51L1179.51 1258.28C1173.12 1256.59 1166.31 1257.75 1160.84 1261.46L1010.69 1363.35C1005.01 1367.2 1001.37 1373.4 1000.76 1380.23L985.651 1550.48Z" stroke="url(#paint63_linear_3923_1896)"/>
</g>
<defs>
<linearGradient id="paint0_linear_3923_1896" x1="1191.17" y1="-17.15" x2="346.581" y2="-471.032" gradientUnits="userSpaceOnUse">
<stop stop-color="#B0FF09"/>
<stop offset="1" stop-color="#05B8F1"/>
</linearGradient>
<linearGradient id="paint1_linear_3923_1896" x1="1210.13" y1="30.2143" x2="394.967" y2="-462.879" gradientUnits="userSpaceOnUse">
<stop stop-color="#B0FF09"/>
<stop offset="1" stop-color="#05B8F1"/>
</linearGradient>
<linearGradient id="paint2_linear_3923_1896" x1="1227.46" y1="77.8744" x2="443.499" y2="-452.599" gradientUnits="userSpaceOnUse">
<stop stop-color="#B0FF09"/>
<stop offset="1" stop-color="#05B8F1"/>
</linearGradient>
<linearGradient id="paint3_linear_3923_1896" x1="1243.16" y1="125.741" x2="492.067" y2="-440.202" gradientUnits="userSpaceOnUse">
<stop stop-color="#B0FF09"/>
<stop offset="1" stop-color="#05B8F1"/>
</linearGradient>
<linearGradient id="paint4_linear_3923_1896" x1="1257.22" y1="173.72" x2="540.565" y2="-425.71" gradientUnits="userSpaceOnUse">
<stop stop-color="#B0FF09"/>
<stop offset="1" stop-color="#05B8F1"/>
</linearGradient>
<linearGradient id="paint5_linear_3923_1896" x1="1269.66" y1="221.729" x2="588.873" y2="-409.139" gradientUnits="userSpaceOnUse">
<stop stop-color="#B0FF09"/>
<stop offset="1" stop-color="#05B8F1"/>
</linearGradient>
<linearGradient id="paint6_linear_3923_1896" x1="1280.5" y1="269.665" x2="636.902" y2="-390.533" gradientUnits="userSpaceOnUse">
<stop stop-color="#B0FF09"/>
<stop offset="1" stop-color="#05B8F1"/>
</linearGradient>
<linearGradient id="paint7_linear_3923_1896" x1="1289.75" y1="317.46" x2="684.537" y2="-369.911" gradientUnits="userSpaceOnUse">
<stop stop-color="#B0FF09"/>
<stop offset="1" stop-color="#05B8F1"/>
</linearGradient>
<linearGradient id="paint8_linear_3923_1896" x1="1297.44" y1="365.01" x2="731.687" y2="-347.329" gradientUnits="userSpaceOnUse">
<stop stop-color="#B0FF09"/>
<stop offset="1" stop-color="#05B8F1"/>
</linearGradient>
<linearGradient id="paint9_linear_3923_1896" x1="1303.59" y1="412.244" x2="778.246" y2="-322.822" gradientUnits="userSpaceOnUse">
<stop stop-color="#B0FF09"/>
<stop offset="1" stop-color="#05B8F1"/>
</linearGradient>
<linearGradient id="paint10_linear_3923_1896" x1="1308.24" y1="459.074" x2="824.128" y2="-296.446" gradientUnits="userSpaceOnUse">
<stop stop-color="#B0FF09"/>
<stop offset="1" stop-color="#05B8F1"/>
</linearGradient>
<linearGradient id="paint11_linear_3923_1896" x1="1311.43" y1="505.424" x2="869.239" y2="-268.254" gradientUnits="userSpaceOnUse">
<stop stop-color="#B0FF09"/>
<stop offset="1" stop-color="#05B8F1"/>
</linearGradient>
<linearGradient id="paint12_linear_3923_1896" x1="1313.18" y1="551.221" x2="913.495" y2="-238.301" gradientUnits="userSpaceOnUse">
<stop stop-color="#B0FF09"/>
<stop offset="1" stop-color="#05B8F1"/>
</linearGradient>
<linearGradient id="paint13_linear_3923_1896" x1="1313.57" y1="596.389" x2="956.818" y2="-206.655" gradientUnits="userSpaceOnUse">
<stop stop-color="#B0FF09"/>
<stop offset="1" stop-color="#05B8F1"/>
</linearGradient>
<linearGradient id="paint14_linear_3923_1896" x1="1312.62" y1="640.858" x2="999.122" y2="-173.382" gradientUnits="userSpaceOnUse">
<stop stop-color="#B0FF09"/>
<stop offset="1" stop-color="#05B8F1"/>
</linearGradient>
<linearGradient id="paint15_linear_3923_1896" x1="1310.39" y1="684.564" x2="1040.34" y2="-138.55" gradientUnits="userSpaceOnUse">
<stop stop-color="#B0FF09"/>
<stop offset="1" stop-color="#05B8F1"/>
</linearGradient>
<linearGradient id="paint16_linear_3923_1896" x1="1306.94" y1="727.441" x2="1080.4" y2="-102.235" gradientUnits="userSpaceOnUse">
<stop stop-color="#B0FF09"/>
<stop offset="1" stop-color="#05B8F1"/>
</linearGradient>
<linearGradient id="paint17_linear_3923_1896" x1="1302.32" y1="769.432" x2="1119.24" y2="-64.5124" gradientUnits="userSpaceOnUse">
<stop stop-color="#B0FF09"/>
<stop offset="1" stop-color="#05B8F1"/>
</linearGradient>
<linearGradient id="paint18_linear_3923_1896" x1="1296.61" y1="810.484" x2="1156.8" y2="-25.4584" gradientUnits="userSpaceOnUse">
<stop stop-color="#B0FF09"/>
<stop offset="1" stop-color="#05B8F1"/>
</linearGradient>
<linearGradient id="paint19_linear_3923_1896" x1="1289.85" y1="850.545" x2="1193.03" y2="14.8456" gradientUnits="userSpaceOnUse">
<stop stop-color="#B0FF09"/>
<stop offset="1" stop-color="#05B8F1"/>
</linearGradient>
<linearGradient id="paint20_linear_3923_1896" x1="1282.12" y1="889.563" x2="1227.86" y2="56.3104" gradientUnits="userSpaceOnUse">
<stop stop-color="#B0FF09"/>
<stop offset="1" stop-color="#05B8F1"/>
</linearGradient>
<linearGradient id="paint21_linear_3923_1896" x1="1273.48" y1="927.499" x2="1261.28" y2="98.855" gradientUnits="userSpaceOnUse">
<stop stop-color="#B0FF09"/>
<stop offset="1" stop-color="#05B8F1"/>
</linearGradient>
<linearGradient id="paint22_linear_3923_1896" x1="1264.01" y1="964.322" x2="1293.22" y2="142.401" gradientUnits="userSpaceOnUse">
<stop stop-color="#B0FF09"/>
<stop offset="1" stop-color="#05B8F1"/>
</linearGradient>
<linearGradient id="paint23_linear_3923_1896" x1="1253.78" y1="999.983" x2="1323.65" y2="186.845" gradientUnits="userSpaceOnUse">
<stop stop-color="#B0FF09"/>
<stop offset="1" stop-color="#05B8F1"/>
</linearGradient>
<linearGradient id="paint24_linear_3923_1896" x1="1242.86" y1="1034.46" x2="1352.56" y2="232.108" gradientUnits="userSpaceOnUse">
<stop stop-color="#B0FF09"/>
<stop offset="1" stop-color="#05B8F1"/>
</linearGradient>
<linearGradient id="paint25_linear_3923_1896" x1="1231.31" y1="1067.73" x2="1379.91" y2="278.102" gradientUnits="userSpaceOnUse">
<stop stop-color="#B0FF09"/>
<stop offset="1" stop-color="#05B8F1"/>
</linearGradient>
<linearGradient id="paint26_linear_3923_1896" x1="1219.22" y1="1099.77" x2="1405.68" y2="324.733" gradientUnits="userSpaceOnUse">
<stop stop-color="#B0FF09"/>
<stop offset="1" stop-color="#05B8F1"/>
</linearGradient>
<linearGradient id="paint27_linear_3923_1896" x1="1206.67" y1="1130.56" x2="1429.85" y2="371.911" gradientUnits="userSpaceOnUse">
<stop stop-color="#B0FF09"/>
<stop offset="1" stop-color="#05B8F1"/>
</linearGradient>
<linearGradient id="paint28_linear_3923_1896" x1="1193.72" y1="1160.09" x2="1452.43" y2="419.551" gradientUnits="userSpaceOnUse">
<stop stop-color="#B0FF09"/>
<stop offset="1" stop-color="#05B8F1"/>
</linearGradient>
<linearGradient id="paint29_linear_3923_1896" x1="1180.45" y1="1188.35" x2="1473.4" y2="467.563" gradientUnits="userSpaceOnUse">
<stop stop-color="#B0FF09"/>
<stop offset="1" stop-color="#05B8F1"/>
</linearGradient>
<linearGradient id="paint30_linear_3923_1896" x1="1166.94" y1="1215.34" x2="1492.77" y2="515.854" gradientUnits="userSpaceOnUse">
<stop stop-color="#B0FF09"/>
<stop offset="1" stop-color="#05B8F1"/>
</linearGradient>
<linearGradient id="paint31_linear_3923_1896" x1="1153.26" y1="1241.06" x2="1510.54" y2="564.338" gradientUnits="userSpaceOnUse">
<stop stop-color="#B0FF09"/>
<stop offset="1" stop-color="#05B8F1"/>
</linearGradient>
<linearGradient id="paint32_linear_3923_1896" x1="1139.48" y1="1265.52" x2="1526.71" y2="612.94" gradientUnits="userSpaceOnUse">
<stop stop-color="#B0FF09"/>
<stop offset="1" stop-color="#05B8F1"/>
</linearGradient>
<linearGradient id="paint33_linear_3923_1896" x1="1125.68" y1="1288.72" x2="1541.31" y2="661.562" gradientUnits="userSpaceOnUse">
<stop stop-color="#B0FF09"/>
<stop offset="1" stop-color="#05B8F1"/>
</linearGradient>
<linearGradient id="paint34_linear_3923_1896" x1="1111.93" y1="1310.67" x2="1554.36" y2="710.123" gradientUnits="userSpaceOnUse">
<stop stop-color="#B0FF09"/>
<stop offset="1" stop-color="#05B8F1"/>
</linearGradient>
<linearGradient id="paint35_linear_3923_1896" x1="1098.3" y1="1331.41" x2="1565.87" y2="758.55" gradientUnits="userSpaceOnUse">
<stop stop-color="#B0FF09"/>
<stop offset="1" stop-color="#05B8F1"/>
</linearGradient>
<linearGradient id="paint36_linear_3923_1896" x1="1084.85" y1="1350.94" x2="1575.87" y2="806.764" gradientUnits="userSpaceOnUse">
<stop stop-color="#B0FF09"/>
<stop offset="1" stop-color="#05B8F1"/>
</linearGradient>
<linearGradient id="paint37_linear_3923_1896" x1="1071.65" y1="1369.29" x2="1584.41" y2="854.674" gradientUnits="userSpaceOnUse">
<stop stop-color="#B0FF09"/>
<stop offset="1" stop-color="#05B8F1"/>
</linearGradient>
<linearGradient id="paint38_linear_3923_1896" x1="1058.77" y1="1386.49" x2="1591.5" y2="902.228" gradientUnits="userSpaceOnUse">
<stop stop-color="#B0FF09"/>
<stop offset="1" stop-color="#05B8F1"/>
</linearGradient>
<linearGradient id="paint39_linear_3923_1896" x1="1046.27" y1="1402.57" x2="1597.18" y2="949.339" gradientUnits="userSpaceOnUse">
<stop stop-color="#B0FF09"/>
<stop offset="1" stop-color="#05B8F1"/>
</linearGradient>
<linearGradient id="paint40_linear_3923_1896" x1="1034.2" y1="1417.57" x2="1601.5" y2="995.949" gradientUnits="userSpaceOnUse">
<stop stop-color="#B0FF09"/>
<stop offset="1" stop-color="#05B8F1"/>
</linearGradient>
<linearGradient id="paint41_linear_3923_1896" x1="1022.63" y1="1431.53" x2="1604.51" y2="1041.99" gradientUnits="userSpaceOnUse">
<stop stop-color="#B0FF09"/>
<stop offset="1" stop-color="#05B8F1"/>
</linearGradient>
<linearGradient id="paint42_linear_3923_1896" x1="1011.59" y1="1444.48" x2="1606.25" y2="1087.4" gradientUnits="userSpaceOnUse">
<stop stop-color="#B0FF09"/>
<stop offset="1" stop-color="#05B8F1"/>
</linearGradient>
<linearGradient id="paint43_linear_3923_1896" x1="1001.16" y1="1456.47" x2="1606.78" y2="1132.12" gradientUnits="userSpaceOnUse">
<stop stop-color="#B0FF09"/>
<stop offset="1" stop-color="#05B8F1"/>
</linearGradient>
<linearGradient id="paint44_linear_3923_1896" x1="991.382" y1="1467.56" x2="1606.15" y2="1176.1" gradientUnits="userSpaceOnUse">
<stop stop-color="#B0FF09"/>
<stop offset="1" stop-color="#05B8F1"/>
</linearGradient>
<linearGradient id="paint45_linear_3923_1896" x1="982.28" y1="1477.77" x2="1604.4" y2="1219.28" gradientUnits="userSpaceOnUse">
<stop stop-color="#B0FF09"/>
<stop offset="1" stop-color="#05B8F1"/>
</linearGradient>
<linearGradient id="paint46_linear_3923_1896" x1="973.915" y1="1487.18" x2="1601.6" y2="1261.62" gradientUnits="userSpaceOnUse">
<stop stop-color="#B0FF09"/>
<stop offset="1" stop-color="#05B8F1"/>
</linearGradient>
<linearGradient id="paint47_linear_3923_1896" x1="966.315" y1="1495.82" x2="1597.81" y2="1303.08" gradientUnits="userSpaceOnUse">
<stop stop-color="#B0FF09"/>
<stop offset="1" stop-color="#05B8F1"/>
</linearGradient>
<linearGradient id="paint48_linear_3923_1896" x1="959.52" y1="1503.76" x2="1593.1" y2="1343.6" gradientUnits="userSpaceOnUse">
<stop stop-color="#B0FF09"/>
<stop offset="1" stop-color="#05B8F1"/>
</linearGradient>
<linearGradient id="paint49_linear_3923_1896" x1="953.551" y1="1511.05" x2="1587.51" y2="1383.17" gradientUnits="userSpaceOnUse">
<stop stop-color="#B0FF09"/>
<stop offset="1" stop-color="#05B8F1"/>
</linearGradient>
<linearGradient id="paint50_linear_3923_1896" x1="948.447" y1="1517.75" x2="1581.13" y2="1421.75" gradientUnits="userSpaceOnUse">
<stop stop-color="#B0FF09"/>
<stop offset="1" stop-color="#05B8F1"/>
</linearGradient>
<linearGradient id="paint51_linear_3923_1896" x1="944.226" y1="1523.91" x2="1574" y2="1459.31" gradientUnits="userSpaceOnUse">
<stop stop-color="#B0FF09"/>
<stop offset="1" stop-color="#05B8F1"/>
</linearGradient>
<linearGradient id="paint52_linear_3923_1896" x1="940.908" y1="1529.59" x2="1566.21" y2="1495.81" gradientUnits="userSpaceOnUse">
<stop stop-color="#B0FF09"/>
<stop offset="1" stop-color="#05B8F1"/>
</linearGradient>
<linearGradient id="paint53_linear_3923_1896" x1="938.502" y1="1534.87" x2="1557.8" y2="1531.25" gradientUnits="userSpaceOnUse">
<stop stop-color="#B0FF09"/>
<stop offset="1" stop-color="#05B8F1"/>
</linearGradient>
<linearGradient id="paint54_linear_3923_1896" x1="937.03" y1="1539.78" x2="1548.86" y2="1565.61" gradientUnits="userSpaceOnUse">
<stop stop-color="#B0FF09"/>
<stop offset="1" stop-color="#05B8F1"/>
</linearGradient>
<linearGradient id="paint55_linear_3923_1896" x1="936.492" y1="1544.4" x2="1539.44" y2="1598.88" gradientUnits="userSpaceOnUse">
<stop stop-color="#B0FF09"/>
<stop offset="1" stop-color="#05B8F1"/>
</linearGradient>
<linearGradient id="paint56_linear_3923_1896" x1="936.902" y1="1548.78" x2="1529.62" y2="1631.04" gradientUnits="userSpaceOnUse">
<stop stop-color="#B0FF09"/>
<stop offset="1" stop-color="#05B8F1"/>
</linearGradient>
<linearGradient id="paint57_linear_3923_1896" x1="938.251" y1="1552.98" x2="1519.45" y2="1662.08" gradientUnits="userSpaceOnUse">
<stop stop-color="#B0FF09"/>
<stop offset="1" stop-color="#05B8F1"/>
</linearGradient>
<linearGradient id="paint58_linear_3923_1896" x1="940.541" y1="1557.07" x2="1509.01" y2="1692.03" gradientUnits="userSpaceOnUse">
<stop stop-color="#B0FF09"/>
<stop offset="1" stop-color="#05B8F1"/>
</linearGradient>
<linearGradient id="paint59_linear_3923_1896" x1="943.773" y1="1561.09" x2="1498.36" y2="1720.85" gradientUnits="userSpaceOnUse">
<stop stop-color="#B0FF09"/>
<stop offset="1" stop-color="#05B8F1"/>
</linearGradient>
<linearGradient id="paint60_linear_3923_1896" x1="947.923" y1="1565.11" x2="1487.55" y2="1748.59" gradientUnits="userSpaceOnUse">
<stop stop-color="#B0FF09"/>
<stop offset="1" stop-color="#05B8F1"/>
</linearGradient>
<linearGradient id="paint61_linear_3923_1896" x1="952.985" y1="1569.19" x2="1476.66" y2="1775.23" gradientUnits="userSpaceOnUse">
<stop stop-color="#B0FF09"/>
<stop offset="1" stop-color="#05B8F1"/>
</linearGradient>
<linearGradient id="paint62_linear_3923_1896" x1="958.947" y1="1573.37" x2="1465.75" y2="1800.78" gradientUnits="userSpaceOnUse">
<stop stop-color="#B0FF09"/>
<stop offset="1" stop-color="#05B8F1"/>
</linearGradient>
<linearGradient id="paint63_linear_3923_1896" x1="965.786" y1="1577.7" x2="1454.87" y2="1825.26" gradientUnits="userSpaceOnUse">
<stop stop-color="#B0FF09"/>
<stop offset="1" stop-color="#05B8F1"/>
</linearGradient>
</defs>
</svg>
