<svg width="1276" height="272" viewBox="0 0 1276 272" fill="none" xmlns="http://www.w3.org/2000/svg">
<g filter="url(#filter0_d_4015_1799)">
<path d="M157.509 65.3822C158.092 64.5182 159.068 64 160.113 64H984.396C986.909 64 988.403 66.7974 987 68.8759L894.031 206.615C893.448 207.479 892.472 207.997 891.427 207.997L67.1441 207.997C64.6311 207.997 63.137 205.199 64.54 203.121L157.509 65.3822Z" fill="url(#paint0_linear_4015_1799)"/>
<path d="M157.834 65.6018C158.344 64.846 159.198 64.3924 160.113 64.3924H984.396C986.597 64.3924 987.901 66.8403 986.675 68.6564L893.706 206.395C893.196 207.151 892.342 207.605 891.427 207.605L67.1441 207.604C64.9432 207.604 63.6394 205.157 64.8652 203.34L157.834 65.6018Z" stroke="white" stroke-opacity="0.2" stroke-width="0.784708"/>
</g>
<g filter="url(#filter1_d_4015_1799)">
<path d="M1009.05 65.3822C1009.63 64.5182 1010.61 64 1011.65 64L1117.5 64C1120.01 64 1121.51 66.7974 1120.1 68.8759L1027.14 206.615C1026.55 207.479 1025.58 207.997 1024.53 207.997L918.683 207.997C916.17 207.997 914.676 205.199 916.079 203.121L1009.05 65.3822Z" fill="url(#paint1_linear_4015_1799)"/>
<path d="M1009.37 65.6018C1009.88 64.846 1010.74 64.3924 1011.65 64.3924H1117.5C1119.7 64.3924 1121 66.8403 1119.78 68.6564L1026.81 206.395C1026.3 207.151 1025.45 207.605 1024.53 207.605L918.683 207.604C916.482 207.604 915.178 205.157 916.404 203.34L1009.37 65.6018Z" stroke="white" stroke-opacity="0.2" stroke-width="0.784708"/>
</g>
<g filter="url(#filter2_d_4015_1799)">
<path d="M1142.15 65.3824C1142.74 64.5183 1143.71 64.0001 1144.76 64.0001L1208.02 64C1210.54 64 1212.03 66.7974 1210.63 68.8759L1117.66 206.615C1117.08 207.479 1116.1 207.997 1115.05 207.997H1051.79C1049.28 207.997 1047.78 205.2 1049.18 203.121L1142.15 65.3824Z" fill="url(#paint2_linear_4015_1799)"/>
<path d="M1142.48 65.6019C1142.99 64.8461 1143.84 64.3925 1144.76 64.3925L1208.02 64.3924C1210.22 64.3924 1211.53 66.8403 1210.3 68.6564L1117.33 206.395C1116.82 207.151 1115.97 207.605 1115.05 207.605H1051.79C1049.59 207.605 1048.28 205.157 1049.51 203.341L1142.48 65.6019Z" stroke="white" stroke-opacity="0.2" stroke-width="0.784708"/>
</g>
<defs>
<filter id="filter0_d_4015_1799" x="0" y="0" width="1051.54" height="271.996" filterUnits="userSpaceOnUse" color-interpolation-filters="sRGB">
<feFlood flood-opacity="0" result="BackgroundImageFix"/>
<feColorMatrix in="SourceAlpha" type="matrix" values="0 0 0 0 0 0 0 0 0 0 0 0 0 0 0 0 0 0 127 0" result="hardAlpha"/>
<feOffset/>
<feGaussianBlur stdDeviation="32"/>
<feComposite in2="hardAlpha" operator="out"/>
<feColorMatrix type="matrix" values="0 0 0 0 0.407843 0 0 0 0 0.882353 0 0 0 0 0.419608 0 0 0 0.3 0"/>
<feBlend mode="normal" in2="BackgroundImageFix" result="effect1_dropShadow_4015_1799"/>
<feBlend mode="normal" in="SourceGraphic" in2="effect1_dropShadow_4015_1799" result="shape"/>
</filter>
<filter id="filter1_d_4015_1799" x="851.539" y="0" width="333.105" height="271.996" filterUnits="userSpaceOnUse" color-interpolation-filters="sRGB">
<feFlood flood-opacity="0" result="BackgroundImageFix"/>
<feColorMatrix in="SourceAlpha" type="matrix" values="0 0 0 0 0 0 0 0 0 0 0 0 0 0 0 0 0 0 127 0" result="hardAlpha"/>
<feOffset/>
<feGaussianBlur stdDeviation="32"/>
<feComposite in2="hardAlpha" operator="out"/>
<feColorMatrix type="matrix" values="0 0 0 0 0.407843 0 0 0 0 0.882353 0 0 0 0 0.419608 0 0 0 0.3 0"/>
<feBlend mode="normal" in2="BackgroundImageFix" result="effect1_dropShadow_4015_1799"/>
<feBlend mode="normal" in="SourceGraphic" in2="effect1_dropShadow_4015_1799" result="shape"/>
</filter>
<filter id="filter2_d_4015_1799" x="984.645" y="0" width="290.523" height="271.996" filterUnits="userSpaceOnUse" color-interpolation-filters="sRGB">
<feFlood flood-opacity="0" result="BackgroundImageFix"/>
<feColorMatrix in="SourceAlpha" type="matrix" values="0 0 0 0 0 0 0 0 0 0 0 0 0 0 0 0 0 0 127 0" result="hardAlpha"/>
<feOffset/>
<feGaussianBlur stdDeviation="32"/>
<feComposite in2="hardAlpha" operator="out"/>
<feColorMatrix type="matrix" values="0 0 0 0 0.407843 0 0 0 0 0.882353 0 0 0 0 0.419608 0 0 0 0.3 0"/>
<feBlend mode="normal" in2="BackgroundImageFix" result="effect1_dropShadow_4015_1799"/>
<feBlend mode="normal" in="SourceGraphic" in2="effect1_dropShadow_4015_1799" result="shape"/>
</filter>
<linearGradient id="paint0_linear_4015_1799" x1="541.178" y1="57.0273" x2="582.958" y2="305.67" gradientUnits="userSpaceOnUse">
<stop stop-color="#B0FF09"/>
<stop offset="1" stop-color="#05B8F1"/>
</linearGradient>
<linearGradient id="paint1_linear_4015_1799" x1="1021.51" y1="57.0273" x2="1144.53" y2="219.616" gradientUnits="userSpaceOnUse">
<stop stop-color="#B0FF09"/>
<stop offset="1" stop-color="#05B8F1"/>
</linearGradient>
<linearGradient id="paint2_linear_4015_1799" x1="1132.62" y1="57.0273" x2="1260.31" y2="190.762" gradientUnits="userSpaceOnUse">
<stop stop-color="#B0FF09"/>
<stop offset="1" stop-color="#05B8F1"/>
</linearGradient>
</defs>
</svg>
